SplineFontDB: 3.2
FontName: D-DIN-PRO-Exp-Light-Italic
FullName: D-DIN-PRO-Exp-Light-Italic
FamilyName: D-DIN-PRO-Exp
Weight: Regular
Copyright: Copyright (c) CyberFei. All rights reserved
Version: 1.1.0
ItalicAngle: -13
UnderlinePosition: -150
UnderlineWidth: 50
Ascent: 831
Descent: 169
InvalidEm: 0
sfntRevision: 0x00010000
LayerCount: 2
Layer: 0 0 "Back" 1
Layer: 1 0 "Fore" 0
XUID: [1021 868 -1451673819 18787]
StyleMap: 0x0040
FSType: 4
OS2Version: 4
OS2_WeightWidthSlopeOnly: 1
OS2_UseTypoMetrics: 0
CreationTime: 1462909513
ModificationTime: 1778060080
PfmFamily: 17
TTFWeight: 300
TTFWidth: 7
LineGap: 0
VLineGap: 0
Panose: 2 11 5 4 2 2 2 3 2 4
OS2TypoAscent: 831
OS2TypoAOffset: 0
OS2TypoDescent: -169
OS2TypoDOffset: 0
OS2TypoLinegap: 86
OS2WinAscent: 902
OS2WinAOffset: 0
OS2WinDescent: 184
OS2WinDOffset: 0
HheadAscent: 902
HheadAOffset: 0
HheadDescent: -184
HheadDOffset: 0
OS2SubXSize: 650
OS2SubYSize: 600
OS2SubXOff: 0
OS2SubYOff: 75
OS2SupXSize: 650
OS2SupYSize: 600
OS2SupXOff: 0
OS2SupYOff: 350
OS2StrikeYSize: 50
OS2StrikeYPos: 307
OS2CapHeight: 690
OS2XHeight: 512
OS2Vendor: 'MONO'
OS2CodePages: 00000001.00000000
OS2UnicodeRanges: 8000006f.4000000a.00000000.00000000
Lookup: 1 0 0 "'rtla' Right to Left Alternates lookup 0" { "'rtla' Right to Left Alternates lookup 0 subtable"  } ['rtla' ('DFLT' <'dflt' > ) ]
Lookup: 1 0 0 "'sups' Superscript lookup 1" { "'sups' Superscript lookup 1 subtable" ("superior") } ['sups' ('DFLT' <'dflt' > ) ]
Lookup: 4 0 0 "'frac' Diagonal Fractions lookup 2" { "'frac' Diagonal Fractions lookup 2 subtable"  } ['frac' ('DFLT' <'dflt' > ) ]
Lookup: 258 0 0 "'kern' Horizontal Kerning in Latin lookup 0" { "'kern' Horizontal Kerning in Latin lookup 0 subtable"  } ['kern' ('DFLT' <'dflt' > 'latn' <'dflt' > ) ]
Lookup: 258 0 0 "Pairwise Positioning (kerning) lookup 1" { "Pairwise Positioning (kerning) lookup 1 subtable"  } []
Lookup: 258 0 0 "Pairwise Positioning (kerning) lookup 2" { "Pairwise Positioning (kerning) lookup 2 subtable"  } []

StartChar: .notdef
Encoding: 65536 -1 0
Width: 600
GlyphClass: 1
Flags: W
LayerCount: 2
Fore
SplineSet
565.02734375 688.919921875 m 1
 175.387695312 688.919921875 l 1
 16.4345703125 0.419921875 l 1
 406.07421875 0.419921875 l 1
 565.02734375 688.919921875 l 1
391.168945312 19.7998046875 m 1
 40.2890625 19.7998046875 l 1
 190.29296875 669.540039062 l 1
 541.172851562 669.540039062 l 1
 391.168945312 19.7998046875 l 1
EndSplineSet
EndChar

StartChar: exclam
Encoding: 33 33 4
Width: 232
GlyphClass: 2
Flags: MW
VStem: 67.1572 87.7197 85.2383 52.5625
LayerCount: 2
Fore
SplineSet
230.194335938 688.919921875 m 1x40
 143.038085938 688.919921875 l 1
 50.38671875 210.540039062 l 1
 102.94921875 210.540039062 l 1
 230.194335938 688.919921875 l 1x40
92.4736328125 91.2001953125 m 1x80
 4.75390625 91.2001953125 l 1
 -16.205078125 0.419921875 l 1
 71.5146484375 0.419921875 l 1
 92.4736328125 91.2001953125 l 1x80
EndSplineSet
EndChar

StartChar: quotedbl
Encoding: 34 34 5
Width: 331
GlyphClass: 2
Flags: MW
HStem: 448.2 240.72<121.328 133.073 133.073 133.073 121.328 284.527 284.527 297.294 297.294 297.294>
LayerCount: 2
Fore
SplineSet
188.647460938 688.919921875 m 1
 121.328125 688.919921875 l 1
 65.75390625 448.200195312 l 1
 133.073242188 448.200195312 l 1
 188.647460938 688.919921875 l 1
352.868164062 688.919921875 m 1
 284.52734375 688.919921875 l 1
 228.953125 448.200195312 l 1
 297.293945312 448.200195312 l 1
 352.868164062 688.919921875 l 1
EndSplineSet
EndChar

StartChar: numbersign
Encoding: 35 35 6
Width: 583
GlyphClass: 2
Flags: W
LayerCount: 2
Fore
SplineSet
443.365234375 431.879882812 m 1
 570.96484375 431.879882812 l 1
 582.974609375 483.900390625 l 1
 461.560546875 483.900390625 l 1
 535.4140625 688.919921875 l 1
 477.40234375 688.919921875 l 1
 403.549804688 483.900390625 l 1
 257.560546875 483.900390625 l 1
 331.4140625 688.919921875 l 1
 273.40234375 688.919921875 l 1
 199.549804688 483.900390625 l 1
 72.974609375 483.900390625 l 1
 60.96484375 431.879882812 l 1
 180.33203125 431.879882812 l 1
 123.504882812 273.780273438 l 1
 -0.0146484375 273.780273438 l 1
 -12.259765625 220.740234375 l 1
 104.056640625 220.740234375 l 1
 24.630859375 0.419921875 l 1
 83.6611328125 0.419921875 l 1
 163.086914062 220.740234375 l 1
 309.076171875 220.740234375 l 1
 229.651367188 0.419921875 l 1
 288.681640625 0.419921875 l 1
 368.106445312 220.740234375 l 1
 496.719726562 220.740234375 l 1
 508.96484375 273.780273438 l 1
 386.538085938 273.780273438 l 1
 443.365234375 431.879882812 l 1
328.525390625 273.780273438 m 1
 182.538085938 273.780273438 l 1
 239.365234375 431.879882812 l 1
 385.352539062 431.879882812 l 1
 328.525390625 273.780273438 l 1
EndSplineSet
EndChar

StartChar: dollar
Encoding: 36 36 7
Width: 517
GlyphClass: 2
Flags: MW
HStem: 28.4023 62.6953<145.296 159.77> 597.053 61.9609<267.921 290.884>
VStem: 28.9658 69.624 41.6572 72.4199 387.683 69.5254 396.617 72.4199
LayerCount: 2
Fore
SplineSet
433.596679688 207.989257812 m 0xe4
 447.68359375 269.009765625 447.233398438 349.5390625 309.366210938 375.893554688 c 2
 279.745117188 381.02734375 l 1
 329.885742188 598.20703125 l 1
 362.610351562 593.705078125 427.979492188 584.712890625 418.53125 495.119140625 c 1
 488.056640625 495.119140625 l 1
 497.641601562 563.784179688 481.580078125 647.852539062 350.989257812 659.368164062 c 2
 344.145507812 659.97265625 l 1
 362.837890625 740.940429688 l 1
 309.797851562 740.940429688 l 1
 290.883789062 659.013671875 l 1
 262.439453125 656.36328125 199.0390625 650.455078125 143.055664062 604.971679688 c 0
 106.0625 574.916992188 81.90234375 535.822265625 70.50390625 486.450195312 c 0xd8
 59.5439453125 438.977539062 65.041015625 403.42578125 85.962890625 378.29296875 c 0
 116.526367188 341.577148438 164.533203125 331.510742188 212.930664062 321.362304688 c 1
 159.76953125 91.09765625 l 1
 114.051757812 97.578125 52.810546875 110.171875 62.08984375 203.400390625 c 1
 -7.5341796875 203.400390625 l 1
 -30.6103515625 45.1787109375 94.9619140625 32.4345703125 145.295898438 28.40234375 c 1
 124.94140625 -59.759765625 l 1
 177.981445312 -59.759765625 l 1
 198.5546875 29.3505859375 l 1
 228.33984375 31.9453125 296.666992188 37.8955078125 356.389648438 84.0244140625 c 0
 395.681640625 114.372070312 421.4140625 155.223632812 433.596679688 207.989257812 c 0xe4
144.572265625 493.588867188 m 0
 158.346679688 553.251953125 201.362304688 588.53515625 267.920898438 597.052734375 c 2
 276.842773438 598.194335938 l 1
 228.845703125 390.298828125 l 1
 183.875 400.361328125 126.70703125 416.206054688 144.572265625 493.588867188 c 0
359.763671875 201.869140625 m 0xc4
 336.729492188 102.098632812 247.77734375 93.73046875 212.655273438 90.4267578125 c 1
 263.84375 312.1484375 l 1
 327.916015625 298.96484375 378.096679688 281.278320312 359.763671875 201.869140625 c 0xc4
EndSplineSet
EndChar

StartChar: percent
Encoding: 37 37 8
Width: 922
GlyphClass: 2
Flags: MW
HStem: -5.7002 53.0391<631.815 686.09> 271.74 53.04<137.669 185.556> 364.559 53.041<714.33 766.8> 643.02 53.04<230.638 272.493>
VStem: 39.6172 63.2412 251.777 64.2598 597.557 63.2412 809.718 64.2588
LayerCount: 2
Fore
SplineSet
55.748046875 431.370117188 m 2
 23.3564453125 291.06640625 98.7724609375 271.740234375 156.083984375 271.740234375 c 0
 215.028320312 271.740234375 299.922851562 291.703125 332.16796875 431.370117188 c 2
 357.600585938 541.530273438 l 2
 386.087890625 664.923828125 328.748046875 696.059570312 255.06640625 696.059570312 c 0
 206.208984375 696.059570312 113.584960938 681.890625 81.1806640625 541.530273438 c 2
 55.748046875 431.370117188 l 2
748.903320312 690.959960938 m 1
 690.895507812 690.959960938 l 1
 152.2734375 0.419921875 l 1
 209.283203125 0.419921875 l 1
 748.903320312 690.959960938 l 1
269.084960938 436.469726562 m 2
 254.541015625 373.471679688 230.125976562 324.780273438 169.349609375 324.780273438 c 0
 105.989257812 324.780273438 106.647460938 377.913085938 120.166015625 436.469726562 c 2
 142.538085938 533.370117188 l 2
 155.953125 591.48046875 180.5625 643.01953125 242.821289062 643.01953125 c 0
 302.1640625 643.01953125 306.008789062 596.401367188 291.45703125 533.370117188 c 2
 269.084960938 436.469726562 l 2
748.717773438 417.599609375 m 0
 679.942382812 417.599609375 604.049804688 389.625 574.83203125 263.069335938 c 2
 549.634765625 153.9296875 l 2
 519.55859375 23.65234375 579.865234375 -5.7001953125 649.971679688 -5.7001953125 c 0
 722.208984375 -5.7001953125 796.209960938 24.65625 826.0546875 153.9296875 c 2
 851.251953125 263.0703125 l 2
 879.740234375 386.463867188 822.399414062 417.599609375 748.717773438 417.599609375 c 0
762.73828125 158.008789062 m 2
 748.208984375 95.076171875 723.350585938 47.3388671875 663.236328125 47.3388671875 c 0
 600.393554688 47.3388671875 600.36328125 99.7275390625 613.818359375 158.008789062 c 2
 636.189453125 254.909179688 l 2
 649.533203125 312.706054688 673.267578125 364.55859375 736.473632812 364.55859375 c 0
 797.125976562 364.55859375 799.443359375 316.99609375 785.109375 254.909179688 c 2
 762.73828125 158.008789062 l 2
EndSplineSet
EndChar

StartChar: ampersand
Encoding: 38 38 9
Width: 664
GlyphClass: 2
Flags: MW
HStem: -10.7988 63.2402<160.532 212.312> 0.420898 64.2588<508.002 521.335 521.335 521.335> 643.021 57.1201<311.768 353.094>
VStem: 49.8164 70.3799 113.056 70.3799 366.016 69.3613
LayerCount: 2
Fore
SplineSet
352.907226562 700.140625 m 0x74
 261.827148438 700.140625 177.704101562 641.525390625 156.973632812 551.731445312 c 0x6c
 143.962890625 495.375 165.16796875 446.743164062 202.96875 381.620117188 c 1
 125.529296875 338.213867188 30.158203125 276.3515625 5.8984375 171.270507812 c 0
 -7.3095703125 114.060546875 -0.2509765625 50.3212890625 59.259765625 13.2646484375 c 0
 84.8466796875 -2.6689453125 118.37109375 -10.798828125 160.213867188 -10.798828125 c 0xb4
 264.41015625 -10.798828125 333.775390625 45.7548828125 379.53515625 84.9208984375 c 1
 397.438476562 54.8427734375 l 2
 424.80078125 12.40234375 448.140625 0.4208984375 494.3046875 0.4208984375 c 2
 521.334960938 0.4208984375 l 1
 526.279296875 21.8408203125 531.225585938 43.2607421875 536.170898438 64.6796875 c 1
 523.420898438 64.6796875 l 2
 492.583007812 64.6796875 474.68359375 73.8974609375 457.900390625 102.0234375 c 2
 437.217773438 136.68359375 l 1
 563.096679688 252.11328125 l 1
 525.909179688 293.018554688 l 1
 408.293945312 184.916992188 l 1
 297.526367188 369.078125 l 1
 311.890625 376.647460938 l 2
 364.620117188 406.9296875 403.809570312 435.384765625 429.379882812 461.453125 c 0
 454.763671875 487.333984375 471.247070312 516.872070312 479.059570312 550.7109375 c 0
 489.317382812 595.142578125 482.69921875 630.588867188 459.416992188 658.341796875 c 0
 436.123046875 686.110351562 401.012695312 700.140625 352.907226562 700.140625 c 0x74
227.588867188 552.750976562 m 0
 239.669921875 605.079101562 283.81640625 643.020507812 339.719726562 643.020507812 c 0
 366.467773438 643.020507812 387.005859375 634.7265625 400.001953125 617.829101562 c 0
 412.999023438 600.931640625 416.109375 578.478515625 409.93359375 551.731445312 c 0
 395.173828125 487.796875 340.684570312 456.31640625 269.298828125 415.073242188 c 1
 266.114257812 420.357421875 l 2
 263.370117188 424.9140625 238.029296875 467.416015625 229.120117188 498.228515625 c 0
 223.9375 516.15234375 223.349609375 534.385742188 227.588867188 552.750976562 c 0
180.934570312 52.44140625 m 0xb4
 140.12890625 52.44140625 109.875 63.609375 91.6943359375 86.76953125 c 0
 73.7041015625 109.6875 68.8916015625 139.275390625 76.984375 174.331054688 c 0
 94.5166015625 250.267578125 168.249023438 298.932617188 230.203125 334.432617188 c 1
 351.338867188 132.174804688 l 1
 304.213867188 92.1796875 251.487304688 52.44140625 180.934570312 52.44140625 c 0xb4
EndSplineSet
EndChar

StartChar: quotesingle
Encoding: 39 39 10
Width: 169
GlyphClass: 2
Flags: MW
HStem: 448.2 240.72<121.328 133.073 133.073 133.073>
VStem: 45.7373 67.3193
LayerCount: 2
Fore
SplineSet
188.647460938 688.919921875 m 1
 121.328125 688.919921875 l 1
 65.75390625 448.200195312 l 1
 133.073242188 448.200195312 l 1
 188.647460938 688.919921875 l 1
EndSplineSet
EndChar

StartChar: parenleft
Encoding: 40 40 11
Width: 307
GlyphClass: 2
Flags: MW
VStem: 49.8184 71.3984
LayerCount: 2
Fore
SplineSet
274.111328125 739.921875 m 1
 185.747070312 649.594726562 84.529296875 511.8515625 41.9296875 327.33203125 c 0
 14.25 207.436523438 9.955078125 59.9287109375 82.6337890625 -85.2587890625 c 1
 137.955078125 -85.2587890625 l 1
 92.0234375 24.861328125 77.3974609375 171.700195312 113.328125 327.331054688 c 0
 131.119140625 404.391601562 184.1484375 574.411132812 328.546875 739.921875 c 1
 274.111328125 739.921875 l 1
EndSplineSet
Substitution2: "'rtla' Right to Left Alternates lookup 0 subtable" parenright
EndChar

StartChar: parenright
Encoding: 41 41 12
Width: 307
GlyphClass: 2
Flags: MW
VStem: 176.298 71.3994
LayerCount: 2
Fore
SplineSet
143.69921875 739.918945312 m 1
 189.409179688 628.622070312 204.02734375 481.610351562 168.408203125 327.328125 c 0
 150.456054688 249.565429688 97.1767578125 78.482421875 -46.7265625 -85.259765625 c 1
 8.5947265625 -85.259765625 l 1
 80.619140625 -10.4150390625 193.885742188 128.416992188 239.80859375 327.329101562 c 0
 265.939453125 440.517578125 274.2265625 592.606445312 198.133789062 739.918945312 c 1
 143.69921875 739.918945312 l 1
EndSplineSet
Substitution2: "'rtla' Right to Left Alternates lookup 0 subtable" parenleft
EndChar

StartChar: asterisk
Encoding: 42 42 13
Width: 407
GlyphClass: 2
Flags: MW
HStem: 415.56 273.36<191.838 293.708 230.598 293.708>
LayerCount: 2
Fore
SplineSet
217.208984375 525.455078125 m 1
 191.837890625 415.559570312 l 1
 230.59765625 415.559570312 l 1
 255.96875 525.455078125 l 1
 353.375976562 469.196289062 l 1
 377.244140625 501.364257812 l 1
 278.551757812 555.916992188 l 1
 401.0078125 608.359375 l 1
 392.760742188 640.321289062 l 1
 269.513671875 584.125 l 1
 293.708007812 688.919921875 l 1
 254.948242188 688.919921875 l 1
 231.014648438 585.250976562 l 1
 133.385742188 640.435546875 l 1
 109.51953125 608.270507812 l 1
 208.5 554.790039062 l 1
 84.8251953125 501.309570312 l 1
 93.8251953125 469.196289062 l 1
 217.208984375 525.455078125 l 1
EndSplineSet
EndChar

StartChar: plus
Encoding: 43 43 14
Width: 507
GlyphClass: 2
Flags: W
LayerCount: 2
Fore
SplineSet
187.26953125 241.139648438 m 1
 149.12109375 75.900390625 l 1
 216.44140625 75.900390625 l 1
 254.58984375 241.139648438 l 1
 418.809570312 241.139648438 l 1
 434.116210938 307.440429688 l 1
 269.896484375 307.440429688 l 1
 308.044921875 472.6796875 l 1
 240.724609375 472.6796875 l 1
 202.576171875 307.440429688 l 1
 38.3564453125 307.440429688 l 1
 23.0498046875 241.139648438 l 1
 187.26953125 241.139648438 l 1
EndSplineSet
EndChar

StartChar: comma
Encoding: 44 44 15
Width: 169
GlyphClass: 2
Flags: MW
VStem: 45.7373 67.3193
LayerCount: 2
Fore
SplineSet
51.359375 94.259765625 m 1
 -15.9599609375 94.259765625 l 1
 -69.5673828125 -137.939453125 l 1
 11.7587890625 -77.267578125 l 1
 51.359375 94.259765625 l 1
EndSplineSet
EndChar

StartChar: hyphen
Encoding: 45 45 16
Width: 418
GlyphClass: 2
Flags: MW
HStem: 312.54 67.3203<54.0557 347.573 347.573 347.573>
VStem: 49.8174 309.06
LayerCount: 2
Fore
SplineSet
363.115234375 379.860351562 m 1
 54.0556640625 379.860351562 l 1
 38.513671875 312.540039062 l 1
 347.573242188 312.540039062 l 1
 363.115234375 379.860351562 l 1
EndSplineSet
EndChar

StartChar: period
Encoding: 46 46 17
Width: 191
GlyphClass: 2
Flags: MW
HStem: 0.419922 93.8398<-15.96 51.1143 51.1143 51.1143>
VStem: 45.7373 88.7393
LayerCount: 2
Fore
SplineSet
72.779296875 94.259765625 m 1
 -15.9599609375 94.259765625 l 1
 -37.625 0.419921875 l 1
 51.1142578125 0.419921875 l 1
 72.779296875 94.259765625 l 1
EndSplineSet
EndChar

StartChar: slash
Encoding: 47 47 18
Width: 424
GlyphClass: 2
Flags: W
LayerCount: 2
Fore
SplineSet
437.84765625 690.959960938 m 1
 379.638671875 690.959960938 l 1
 -32.6884765625 -9.7802734375 l 1
 25.51953125 -9.7802734375 l 1
 437.84765625 690.959960938 l 1
EndSplineSet
EndChar

StartChar: zero
Encoding: 48 48 19
Width: 548
GlyphClass: 2
Flags: MW
HStem: -9.78027 67.3203<146.261 231.355> 631.8 67.3193<304.802 384.181>
VStem: 58.9971 77.5186 403.757 77.5205
LayerCount: 2
Fore
SplineSet
30.8564453125 239.609375 m 2
 -3.01953125 92.87890625 28.7314453125 -9.7802734375 183.91015625 -9.7802734375 c 0
 278.80078125 -9.7802734375 404.30078125 28.080078125 453.13671875 239.609375 c 2
 502.82421875 454.829101562 l 2
 533.455078125 587.5078125 510.734375 699.119140625 347.572265625 699.119140625 c 0
 262.03125 699.119140625 130.120117188 669.568359375 80.5439453125 454.829101562 c 2
 30.8564453125 239.609375 l 2
377.264648438 246.75 m 2
 349.107421875 124.787109375 299.231445312 57.5400390625 199.452148438 57.5400390625 c 0
 93.0693359375 57.5400390625 85.2685546875 139.526367188 110.0234375 246.75 c 2
 155.236328125 442.58984375 l 2
 179.993164062 549.82421875 225.654296875 631.799804688 332.030273438 631.799804688 c 0
 436.331054688 631.799804688 448.551757812 555.530273438 422.477539062 442.58984375 c 2
 377.264648438 246.75 l 2
EndSplineSet
EndChar

StartChar: one
Encoding: 49 49 20
Width: 357
GlyphClass: 2
Flags: W
LayerCount: 2
Fore
SplineSet
249.849609375 609.40234375 m 1
 109.254882812 0.419921875 l 1
 186.774414062 0.419921875 l 1
 345.727539062 688.919921875 l 1
 262.793945312 688.919921875 l 1
 96.9306640625 596.501953125 l 1
 78.2451171875 515.5625 l 1
 249.849609375 609.40234375 l 1
EndSplineSet
Substitution2: "'sups' Superscript lookup 1 subtable" uni00B9
EndChar

StartChar: two
Encoding: 50 50 21
Width: 528
GlyphClass: 2
Flags: MW
HStem: 633.84 65.2803<302.663 337.189>
VStem: 52.877 74.46 385.396 77.5215
LayerCount: 2
Fore
SplineSet
499.53515625 520.110351562 m 2
 523.904296875 625.6640625 463.7890625 699.120117188 334.311523438 699.120117188 c 0
 271.014648438 699.120117188 217.9453125 682.858398438 174.224609375 651.03125 c 0
 130.598632812 619.2734375 102.508789062 576.481445312 89.73046875 521.129882812 c 2
 87.2578125 510.419921875 l 1
 161.717773438 510.419921875 l 1
 162.541992188 513.990234375 l 2
 171.345703125 552.122070312 189.2265625 582.422851562 216.741210938 603.265625 c 0
 244.084960938 623.978515625 277.88671875 633.83984375 317.200195312 633.83984375 c 0
 357.178710938 633.83984375 387.194335938 623.9921875 405.984375 603.388671875 c 0
 424.834960938 582.717773438 429.778320312 553.744140625 421.54296875 518.0703125 c 2
 418.716796875 505.830078125 l 2
 406.483398438 452.841796875 374.166992188 413.665039062 310.951171875 356.87890625 c 2
 -14.7080078125 64.33984375 l 1
 -29.4658203125 0.419921875 l 1
 385.674804688 0.419921875 l 1
 400.981445312 66.7197265625 l 1
 83.6728515625 66.7197265625 l 1
 361.965820312 317.27734375 l 2
 448.116210938 390.708984375 481.587890625 442.374023438 496.002929688 504.809570312 c 2
 499.53515625 520.110351562 l 2
EndSplineSet
Substitution2: "'sups' Superscript lookup 1 subtable" uni00B2
EndChar

StartChar: three
Encoding: 51 51 22
Width: 548
GlyphClass: 2
Flags: MW
HStem: -9.78027 65.2812<173.333 212.85> 323.76 66.2998<229.812 248.675 248.675 262.962 229.812 280.016> 633.84 65.2803<310.771 349.082>
VStem: 53.8984 74.46 62.0576 72.4199 391.518 76.499 403.758 77.5195
LayerCount: 2
Fore
SplineSet
361.958984375 180.451171875 m 2xe2
 352.588867188 139.86328125 318.2734375 55.5009765625 194.90234375 55.5009765625 c 0
 151.763671875 55.5009765625 119.838867188 64.2998046875 100.176757812 83.1396484375 c 0
 80.4072265625 102.08203125 74.84375 129.701171875 82.7919921875 164.130859375 c 2
 83.1455078125 165.661132812 l 1
 8.685546875 165.661132812 l 1
 8.0966796875 163.111328125 l 2
 -4.6796875 107.771484375 4.0068359375 65.94140625 33.564453125 35.9091796875 c 0
 63.224609375 5.7734375 111.262695312 -9.7802734375 178.810546875 -9.7802734375 c 0
 246.889648438 -9.7802734375 303.5859375 7.51953125 349.780273438 41.3505859375 c 0
 395.8984375 75.1259765625 425.749023438 120.98046875 439.478515625 180.450195312 c 2
 443.716796875 198.809570312 l 2xf2
 456.408203125 253.779296875 455.327148438 328.104492188 371.454101562 357.797851562 c 2
 353.262695312 364.237304688 l 1
 374.228515625 372.143554688 l 2
 418.301757812 388.763671875 483.168945312 427.1328125 502.750976562 511.950195312 c 2
 506.283203125 527.25 l 2
 518.9140625 581.959960938 510.782226562 623.50390625 482.534179688 653.518554688 c 0
 454.211914062 683.610351562 408.266601562 699.120117188 343.4921875 699.120117188 c 0
 278.049804688 699.120117188 224.56640625 683.280273438 182.21484375 652.551757812 c 0
 139.91796875 621.861328125 112.411132812 579.60546875 99.6171875 524.190429688 c 2
 98.79296875 520.620117188 l 1
 171.212890625 520.620117188 l 1
 171.801757812 523.169921875 l 2
 185.411132812 582.116210938 229.282226562 633.83984375 325.362304688 633.83984375 c 0
 372.801757812 633.83984375 451.08984375 619.53515625 428.37109375 521.129882812 c 2
 425.07421875 506.849609375 l 2xec
 416.09765625 467.966796875 383.119140625 390.059570312 262.961914062 390.059570312 c 2
 229.811523438 390.059570312 l 1
 214.504882812 323.759765625 l 1
 248.674804688 323.759765625 l 2
 311.357421875 323.759765625 390.532226562 304.21484375 366.43359375 199.831054688 c 2
 361.958984375 180.451171875 l 2xe2
EndSplineSet
Substitution2: "'sups' Superscript lookup 1 subtable" uni00B3
EndChar

StartChar: four
Encoding: 52 52 23
Width: 563
GlyphClass: 2
Flags: W
LayerCount: 2
Fore
SplineSet
345.89453125 0.419921875 m 1
 376.037109375 130.98046875 l 1
 460.697265625 130.98046875 l 1
 476.239257812 198.299804688 l 1
 391.579101562 198.299804688 l 1
 433.73046875 380.879882812 l 1
 356.2109375 380.879882812 l 1
 314.059570312 198.299804688 l 1
 77.9169921875 198.299804688 l 1
 430.884765625 688.919921875 l 1
 353.055664062 688.919921875 l 1
 4.31640625 204.1796875 l 1
 -12.5830078125 130.98046875 l 1
 298.517578125 130.98046875 l 1
 268.375 0.419921875 l 1
 345.89453125 0.419921875 l 1
EndSplineSet
EndChar

StartChar: five
Encoding: 53 53 24
Width: 534
GlyphClass: 2
Flags: MW
HStem: -9.78027 66.2998<169.733 206.337> 383.94 65.2793<227.943 330.239>
VStem: 58.9961 73.4658 391.516 76.5
LayerCount: 2
Fore
SplineSet
354.662109375 201.870117188 m 2
 343.0625 151.627929688 310.022460938 56.51953125 190.036132812 56.51953125 c 0
 149.430664062 56.51953125 119.623046875 66.3212890625 102.126953125 87.13671875 c 0
 85.4267578125 107.005859375 80.125 132.18359375 86.306640625 161.580078125 c 1
 12.8408203125 161.580078125 l 1
 12.72265625 161.0703125 l 2
 1.0615234375 110.557617188 8.8525390625 70.0205078125 35.9501953125 38.16796875 c 0
 62.8701171875 6.5244140625 107.979492188 -9.7802734375 172.690429688 -9.7802734375 c 0
 239.984375 -9.7802734375 295.3671875 8.6123046875 340.002929688 44.6123046875 c 0
 384.634765625 80.609375 414.848632812 131.208007812 430.219726562 197.790039062 c 2
 440.345703125 241.650390625 l 2
 455.916992188 309.095703125 450.845703125 360.020507812 426.392578125 395.598632812 c 0
 401.950195312 431.16015625 360.400390625 449.219726562 300.077148438 449.219726562 c 0
 280.873046875 449.219726562 215.243164062 445.676757812 159.58984375 400.461914062 c 2
 143.516601562 387.403320312 l 1
 197.584960938 621.599609375 l 1
 508.684570312 621.599609375 l 1
 524.2265625 688.919921875 l 1
 145.806640625 688.919921875 l 1
 59.3837890625 314.580078125 l 1
 136.528320312 314.580078125 l 1
 147.084960938 329.6953125 187.200195312 383.940429688 268.686523438 383.940429688 c 0
 307.717773438 383.940429688 394.22265625 373.224609375 362.904296875 237.5703125 c 2
 354.662109375 201.870117188 l 2
EndSplineSet
EndChar

StartChar: six
Encoding: 54 54 25
Width: 551
GlyphClass: 2
Flags: MW
HStem: -9.78027 65.2803<179.917 219.587> 345.181 66.2998<223.042 364.346>
VStem: 52.876 77.5186 413.955 76.501
LayerCount: 2
Fore
SplineSet
457.134765625 217.169921875 m 2
 483.297851562 330.493164062 421.006835938 411.48046875 307.684570312 411.48046875 c 0
 294.630859375 411.48046875 251.540039062 410.184570312 219.74609375 394.124023438 c 2
 190.670898438 379.436523438 l 1
 449.9453125 688.919921875 l 1
 366.890625 688.919921875 l 1
 131.000976562 404.770507812 l 2
 62.2744140625 326.671875 32.6181640625 273.755859375 18.1416015625 211.049804688 c 2
 12.9609375 188.610351562 l 2
 -1.083984375 127.774414062 7.54296875 80.1474609375 38.3642578125 44.3095703125 c 0
 69.193359375 8.4638671875 117.9609375 -9.7802734375 185.950195312 -9.7802734375 c 0
 253.223632812 -9.7802734375 310.280273438 8.60546875 358.115234375 44.818359375 c 0
 405.852539062 80.9560546875 436.955078125 129.76171875 451.483398438 192.690429688 c 2
 457.134765625 217.169921875 l 2
374.275390625 189.630859375 m 2
 355.693359375 109.142578125 290.228515625 55.5 201.01953125 55.5 c 0
 158.814453125 55.5 126.92578125 67.205078125 106.646484375 91.2060546875 c 0
 86.3125 115.2734375 81.15625 148.225585938 90.4794921875 188.610351562 c 2
 95.8955078125 212.0703125 l 2
 115.09765625 295.2421875 179.208007812 345.180664062 266.876953125 345.180664062 c 0
 310.380859375 345.180664062 342.96875 333.526367188 363.290039062 309.474609375 c 0
 383.599609375 285.436523438 388.8671875 252.833984375 379.692382812 213.090820312 c 2
 374.275390625 189.630859375 l 2
EndSplineSet
EndChar

StartChar: seven
Encoding: 55 55 26
Width: 486
GlyphClass: 2
Flags: W
LayerCount: 2
Fore
SplineSet
520.147460938 688.919921875 m 1
 110.107421875 688.919921875 l 1
 94.5654296875 621.599609375 l 1
 431.073242188 621.599609375 l 1
 19.40234375 0.419921875 l 1
 96.56640625 0.419921875 l 1
 503.203125 615.528320312 l 1
 520.147460938 688.919921875 l 1
EndSplineSet
EndChar

StartChar: eight
Encoding: 56 56 27
Width: 567
GlyphClass: 2
Flags: MW
HStem: -9.78027 65.2793<187.138 227.774> 328.859 65.2793<267.701 294.333> 633.839 65.2803<302.196 362.341>
VStem: 58.998 76.499 74.2979 76.5 409.877 76.5 424.157 76.5
LayerCount: 2
Fore
SplineSet
357.772460938 699.119140625 m 0xe4
 226.986328125 699.119140625 134.747070312 623.333007812 111.622070312 523.169921875 c 2
 108.560546875 509.91015625 l 2xec
 93.9814453125 446.7578125 113.74609375 395.016601562 164.5234375 370.03125 c 2
 179.060546875 362.876953125 l 1
 142.537109375 348.799804688 105.318359375 334.454101562 69.7431640625 294.094726562 c 0
 46.083984375 267.25390625 29.8671875 235.322265625 21.2021484375 197.7890625 c 2
 17.669921875 182.489257812 l 2
 3.9580078125 123.094726562 13.1689453125 76.90625 44.9111328125 42.40625 c 0
 76.724609375 7.8310546875 126.068359375 -9.7802734375 194.110351562 -9.7802734375 c 0
 261.4375 -9.7802734375 318.77734375 7.9736328125 367.0078125 42.9130859375 c 0
 415.12109375 77.767578125 445.857421875 124.135742188 459.564453125 183.509765625 c 2
 463.096679688 198.809570312 l 2xf2
 472.762695312 240.677734375 477.34375 317.467773438 396.913085938 356.001953125 c 2
 382.590820312 362.86328125 l 1
 400.0234375 370.00390625 l 2
 430.186523438 382.359375 455.771484375 400.681640625 477.333984375 425.307617188 c 0
 498.828125 449.85546875 513.249023438 477.895507812 520.639648438 509.91015625 c 2
 523.701171875 523.169921875 l 2
 547.431640625 625.958007812 486.46875 699.119140625 357.772460938 699.119140625 c 0xe4
188.122070312 523.168945312 m 2
 203.58984375 590.166015625 261.690429688 633.838867188 342.702148438 633.838867188 c 0
 381.98046875 633.838867188 411.673828125 624.34765625 430.616210938 604.498046875 c 0
 449.618164062 584.5859375 454.998046875 556.942382812 447.201171875 523.168945312 c 2
 443.668945312 507.869140625 l 2
 435.733398438 473.495117188 417.705078125 445.247070312 389.750976562 424.629882812 c 0
 361.755859375 403.982421875 327.336914062 394.138671875 287.36328125 394.138671875 c 0
 248.0390625 394.138671875 218.51171875 404.008789062 200.073242188 424.629882812 c 0
 181.638671875 445.247070312 176.654296875 473.495117188 184.58984375 507.869140625 c 2
 188.122070312 523.168945312 l 2
383.299804688 184.529296875 m 2xf2
 365.154296875 105.931640625 301.66015625 55.4990234375 209.180664062 55.4990234375 c 0
 165.095703125 55.4990234375 132.107421875 66.5595703125 111.5 89.5556640625 c 0
 90.837890625 112.611328125 85.466796875 144.793945312 94.6396484375 184.529296875 c 2
 98.4072265625 200.848632812 l 2
 107.43359375 239.9453125 127.618164062 271.776367188 158.884765625 294.802734375 c 0
 190.111328125 317.798828125 228.206054688 328.859375 272.291015625 328.859375 c 0
 316.375976562 328.859375 349.365234375 317.798828125 369.97265625 294.802734375 c 0
 390.606445312 271.776367188 396.09375 239.9453125 387.067382812 200.848632812 c 2
 383.299804688 184.529296875 l 2xf2
EndSplineSet
EndChar

StartChar: nine
Encoding: 57 57 28
Width: 551
GlyphClass: 2
Flags: MW
HStem: 277.86 66.2998<224.373 246.175> 633.84 65.2803<315.976 355.97>
VStem: 52.8779 76.5 413.959 76.498
LayerCount: 2
Fore
SplineSet
78.427734375 472.169921875 m 2
 52.265625 358.846679688 114.556640625 277.860351562 227.877929688 277.860351562 c 0
 264.471679688 277.860351562 294.145507812 283.919921875 316.887695312 295.2421875 c 2
 345.60546875 309.540039062 l 1
 86.6357421875 0.419921875 l 1
 168.68359375 0.419921875 l 1
 168.68359375 0.419921875 405.399414062 284.3515625 405.513671875 284.487304688 c 0
 476.1015625 366.333007812 503.663085938 418.702148438 517.419921875 478.290039062 c 2
 522.600585938 500.73046875 l 2
 536.645507812 561.565429688 528.020507812 609.192382812 497.198242188 645.030273438 c 0
 466.369140625 680.876953125 417.600585938 699.120117188 349.612304688 699.120117188 c 0
 282.338867188 699.120117188 225.282226562 680.734375 177.447265625 644.522460938 c 0
 129.709960938 608.383789062 98.607421875 559.578125 84.080078125 496.650390625 c 2
 78.427734375 472.169921875 l 2
161.286132812 499.709960938 m 2
 179.864257812 580.181640625 245.319335938 633.83984375 334.54296875 633.83984375 c 0
 377.396484375 633.83984375 409.634765625 622.16015625 429.935546875 598.133789062 c 0
 450.271484375 574.06640625 455.426757812 541.115234375 446.102539062 500.73046875 c 2
 440.686523438 477.26953125 l 2
 431.221679688 436.2734375 411.033203125 403.134765625 379.932617188 379.353515625 c 0
 348.928710938 355.646484375 311.510742188 344.16015625 268.684570312 344.16015625 c 0
 180.060546875 344.16015625 137.458984375 396.502929688 155.870117188 476.25 c 2
 161.286132812 499.709960938 l 2
EndSplineSet
EndChar

StartChar: colon
Encoding: 58 58 29
Width: 191
GlyphClass: 2
Flags: MW
VStem: 45.7373 88.7393
LayerCount: 2
Fore
SplineSet
140.834960938 389.040039062 m 1
 52.095703125 389.040039062 l 1
 30.4306640625 295.200195312 l 1
 119.169921875 295.200195312 l 1
 140.834960938 389.040039062 l 1
84.318359375 144.240234375 m 1
 -4.4208984375 144.240234375 l 1
 -26.0859375 50.400390625 l 1
 62.6533203125 50.400390625 l 1
 84.318359375 144.240234375 l 1
EndSplineSet
EndChar

StartChar: semicolon
Encoding: 59 59 30
Width: 191
GlyphClass: 2
Flags: MW
VStem: 45.7373 88.7393
LayerCount: 2
Fore
SplineSet
152.373046875 439.01953125 m 1
 63.6337890625 439.01953125 l 1
 41.9697265625 345.1796875 l 1
 130.708984375 345.1796875 l 1
 152.373046875 439.01953125 l 1
72.779296875 94.259765625 m 1
 4.439453125 94.259765625 l 1
 -49.2001953125 -138.079101562 l 1
 33.185546875 -77.240234375 l 1
 72.779296875 94.259765625 l 1
EndSplineSet
EndChar

StartChar: less
Encoding: 60 60 31
Width: 507
GlyphClass: 2
Flags: W
LayerCount: 2
Fore
SplineSet
37.9873046875 305.84375 m 1
 23.4150390625 242.724609375 l 1
 381.203125 82.66796875 l 1
 397.159179688 151.779296875 l 1
 114.30078125 274.321289062 l 1
 453.495117188 395.796875 l 1
 469.453125 464.91796875 l 1
 37.9873046875 305.84375 l 1
EndSplineSet
Substitution2: "'rtla' Right to Left Alternates lookup 0 subtable" greater
EndChar

StartChar: equal
Encoding: 61 61 32
Width: 507
GlyphClass: 2
Flags: MW
HStem: 155.46 237.66<58.1367 398.009 398.009 398.009>
LayerCount: 2
Fore
SplineSet
452.876953125 393.120117188 m 1
 58.13671875 393.120117188 l 1
 42.5947265625 325.799804688 l 1
 437.334960938 325.799804688 l 1
 452.876953125 393.120117188 l 1
413.315429688 221.759765625 m 1
 18.5751953125 221.759765625 l 1
 3.2685546875 155.459960938 l 1
 398.008789062 155.459960938 l 1
 413.315429688 221.759765625 l 1
EndSplineSet
EndChar

StartChar: greater
Encoding: 62 62 33
Width: 507
GlyphClass: 2
Flags: W
LayerCount: 2
Fore
SplineSet
58.7548828125 395.796875 m 1
 341.859375 274.321289062 l 1
 2.4189453125 151.779296875 l 1
 -13.537109375 82.66796875 l 1
 418.155273438 242.724609375 l 1
 432.727539062 305.84375 l 1
 74.712890625 464.91796875 l 1
 58.7548828125 395.796875 l 1
EndSplineSet
Substitution2: "'rtla' Right to Left Alternates lookup 0 subtable" less
EndChar

StartChar: question
Encoding: 63 63 34
Width: 482
GlyphClass: 2
Flags: MW
HStem: 632.82 66.2998<286.864 313.385>
VStem: 31.7275 73.3193 192.617 74.46 356.837 76.5
LayerCount: 2
Fore
SplineSet
142.724609375 524.700195312 m 1
 158.052734375 581.33984375 198.198242188 632.8203125 293.505859375 632.8203125 c 0
 333.264648438 632.8203125 362.649414062 624.518554688 380.51171875 606.626953125 c 0
 398.439453125 588.668945312 403.270507812 562.626953125 395.809570312 530.309570312 c 0
 385.206054688 484.379882812 362.370117188 456.94921875 315.895507812 419.721679688 c 2
 243.40234375 361.654296875 l 2
 218.203125 341.721679688 200.516601562 323.225585938 190.1328125 306.666015625 c 0
 179.6953125 290.021484375 170.623046875 266.235351562 163.53515625 235.530273438 c 2
 152.348632812 187.080078125 l 1
 226.80859375 187.080078125 l 1
 237.052734375 231.450195312 l 2
 246.989257812 274.491210938 260.47265625 295.3125 296.494140625 324.578125 c 2
 381.76171875 393.852539062 l 2
 435.911132812 440.153320312 461.50390625 483.50390625 473.016601562 533.370117188 c 0
 484.9921875 585.24609375 476.5703125 625.083007812 448.139648438 654.485351562 c 0
 419.658203125 683.940429688 373.938476562 699.120117188 309.83203125 699.120117188 c 0
 263.895507812 699.120117188 116.38671875 693.295898438 69.4052734375 524.700195312 c 1
 142.724609375 524.700195312 l 1
210.557617188 90.1787109375 m 1
 122.836914062 90.1787109375 l 1
 102.114257812 0.4189453125 l 1
 189.834960938 0.4189453125 l 1
 210.557617188 90.1787109375 l 1
EndSplineSet
EndChar

StartChar: at
Encoding: 64 64 35
Width: 861
GlyphClass: 2
Flags: MW
HStem: -132.18 61.2002<233.304 357.888> 57.5439 53.0381<585.033 604.47> 441.065 55.0781<406.261 460.189> 630.781 61.2031<391.13 538.488 391.13 581.855>
VStem: 49.8203 69.3584 260.96 68.3408 514.941 67.3184 733.22 69.3604
LayerCount: 2
Fore
SplineSet
501.98828125 691.984375 m 0
 280.271484375 691.984375 92.1142578125 544.697265625 40.2841796875 320.194335938 c 2
 22.38671875 242.673828125 l 2
 5.216796875 168.302734375 6.0302734375 103.020507812 24.57421875 46.4775390625 c 0
 58.375 -56.587890625 150.515625 -132.1796875 311.711914062 -132.1796875 c 0
 404.064453125 -132.1796875 478.072265625 -115.275390625 559.869140625 -74.498046875 c 1
 546.90625 -21.814453125 l 1
 463.442382812 -60.6171875 396.075195312 -70.9794921875 325.841796875 -70.9794921875 c 0
 140.766601562 -70.9794921875 46.9306640625 48.55859375 91.7451171875 242.670898438 c 2
 109.876953125 321.2109375 l 2
 152.680664062 506.615234375 294.370117188 630.78125 487.856445312 630.78125 c 0
 675.854492188 630.78125 767.724609375 510.95703125 724.154296875 322.232421875 c 2
 706.256835938 244.711914062 l 2
 695.755859375 199.227539062 682.048828125 165.625 663.451171875 143.786132812 c 0
 644.840820312 121.931640625 621.357421875 110.58203125 595.221679688 110.58203125 c 0
 574.84375 110.58203125 559.168945312 118.41015625 549.385742188 133.599609375 c 0
 539.376953125 149.13671875 538.331054688 171.225585938 544.700195312 198.8125 c 2
 610.989257812 485.943359375 l 1
 545.708984375 485.943359375 l 1
 531.078125 422.5703125 l 1
 522.06640625 444.596679688 l 2
 513.65234375 465.159179688 490.913085938 496.143554688 430.254882812 496.143554688 c 0
 382.266601562 496.143554688 344.81640625 480.954101562 315.87890625 451.291015625 c 0
 286.4765625 421.151367188 264.772460938 378.014648438 251.659179688 321.213867188 c 2
 230.936523438 231.454101562 l 2
 217.829101562 174.6796875 219.9921875 131.780273438 236.171875 102.000976562 c 0
 252.118164062 72.65234375 283.645507812 57.5439453125 333.076171875 57.5439453125 c 0
 395.779296875 57.5439453125 440.109375 79.72265625 469.819335938 123.403320312 c 2
 480.327148438 138.852539062 l 1
 483.776367188 123.43359375 l 2
 486.389648438 111.747070312 499.03125 57.5439453125 581.956054688 57.5439453125 c 0
 626.983398438 57.5439453125 666.290039062 73.109375 701.296875 104.435546875 c 0
 735.9609375 135.456054688 761.262695312 182.533203125 776.088867188 246.75390625 c 2
 793.75 323.25390625 l 2
 810.438476562 395.540039062 809.118164062 459.256835938 790.01953125 514.779296875 c 0
 770.900390625 570.365234375 736.4609375 613.65234375 686.375 644.9765625 c 0
 636.331054688 676.274414062 574.98828125 691.984375 501.98828125 691.984375 c 0
441 441.065429688 m 0
 479.377929688 441.065429688 529.166992188 423.118164062 505.875976562 322.235351562 c 2
 485.153320312 232.473632812 l 2
 478.040039062 201.662109375 454.569335938 112.624023438 365.172851562 112.624023438 c 0
 329.478515625 112.624023438 274.470703125 124.00390625 300.455078125 236.5546875 c 2
 319.764648438 320.1953125 l 2
 327.00390625 351.55078125 350.736328125 441.065429688 441 441.065429688 c 0
EndSplineSet
EndChar

StartChar: A
Encoding: 65 65 36
Width: 667
GlyphClass: 2
Flags: W
LayerCount: 2
Fore
SplineSet
103.568359375 159.540039062 m 1
 458.68359375 159.540039062 l 1
 486.20703125 0.419921875 l 1
 567.465820312 0.419921875 l 1
 438.046875 688.919921875 l 1
 369.6953125 688.919921875 l 1
 -76.6318359375 0.419921875 l 1
 3.591796875 0.419921875 l 1
 103.568359375 159.540039062 l 1
447.80078125 222.780273438 m 1
 143.6796875 222.780273438 l 1
 383.505859375 602.931640625 l 1
 447.80078125 222.780273438 l 1
EndSplineSet
EndChar

StartChar: B
Encoding: 66 66 37
Width: 672
GlyphClass: 2
Flags: MW
HStem: 0.419922 66.2998<79.6797 294.385 294.385 311.729 79.6797 342.383> 319.68 66.3008<153.388 364.01 364.01 377.277 153.388 388.386> 622.621 66.2988<208.021 433.95 433.95 447.218 145.808 462.868>
VStem: 516.976 76.501 528.195 77.5205
LayerCount: 2
Fore
SplineSet
294.384765625 0.419921875 m 2xf0
 390.380859375 0.419921875 528.552734375 27.2724609375 565.80078125 188.611328125 c 0xe8
 577.59375 239.69140625 581.0546875 317.497070312 489.763671875 348.59375 c 2
 469.735351562 355.416015625 l 1
 492.825195312 363.08984375 l 2
 530.943359375 375.759765625 605.190429688 412.239257812 627.268554688 507.870117188 c 0
 639.63671875 561.443359375 656.5234375 688.919921875 447.217773438 688.919921875 c 2
 145.807617188 688.919921875 l 1
 -13.1455078125 0.419921875 l 1
 294.384765625 0.419921875 l 2xf0
549.826171875 503.791015625 m 0xf0
 526.981445312 404.841796875 445.834960938 385.98046875 377.27734375 385.98046875 c 2
 153.387695312 385.98046875 l 1
 208.020507812 622.62109375 l 1
 433.950195312 622.62109375 l 2
 491.78515625 622.62109375 574.09375 608.908203125 549.826171875 503.791015625 c 0xf0
489.693359375 194.73046875 m 0xe8
 465.485351562 89.875 386.314453125 66.7197265625 311.729492188 66.7197265625 c 2
 79.6796875 66.7197265625 l 1
 138.080078125 319.6796875 l 1
 364.009765625 319.6796875 l 2
 412.76171875 319.6796875 516.673828125 311.595703125 489.693359375 194.73046875 c 0xe8
EndSplineSet
EndChar

StartChar: C
Encoding: 67 67 38
Width: 681
GlyphClass: 2
Flags: MW
HStem: -8.75977 68.3398<214.424 302.563> 630.78 68.3398<379.543 439.058>
VStem: 58.9951 77.5205 537.345 76.5205
LayerCount: 2
Fore
SplineSet
143.461914062 391.58984375 m 2
 173.517578125 521.772460938 241.30078125 630.780273438 409.313476562 630.780273438 c 0
 468.802734375 630.780273438 512.798828125 618.3828125 540.293945312 592.461914062 c 0
 567.228515625 567.072265625 575.571289062 530.653320312 565.836914062 484.919921875 c 1
 643.377929688 484.919921875 l 1
 658.4140625 552.5390625 646.802734375 604.23046875 608.990234375 641.649414062 c 0
 570.56640625 679.673828125 509.959960938 699.120117188 426.111328125 699.120117188 c 0
 332.974609375 699.120117188 256.251953125 673.587890625 194.743164062 623.349609375 c 0
 133.387695312 573.236328125 90.5439453125 498.154296875 67.119140625 396.690429688 c 2
 43.3349609375 293.669921875 l 2
 19.908203125 192.196289062 27.9228515625 117.1015625 65.80859375 66.9921875 c 0
 103.786132812 16.7607421875 168.202148438 -8.759765625 260.645507812 -8.759765625 c 0
 344.481445312 -8.759765625 414.268554688 10.845703125 470.680664062 49.2158203125 c 0
 526.205078125 86.9833984375 561.8828125 138.853515625 578.071289062 206.459960938 c 1
 501.55078125 206.459960938 l 1
 488.119140625 152.34375 441.340820312 59.580078125 278.461914062 59.580078125 c 0
 107.514648438 59.580078125 92.4853515625 170.786132812 120.620117188 292.650390625 c 2
 143.461914062 391.58984375 l 2
EndSplineSet
EndChar

StartChar: D
Encoding: 68 68 39
Width: 675
GlyphClass: 2
Flags: MW
HStem: 0.419922 67.3193<79.917 237.265 237.265 254.847 79.917 283.845> 621.599 67.3213<145.808 382.716>
VStem: 531.257 77.5205
LayerCount: 2
Fore
SplineSet
237.264648438 0.419921875 m 2
 330.424804688 0.419921875 406.913085938 25.6337890625 467.908203125 75.1884765625 c 0
 528.7578125 124.625 571.186523438 198.67578125 594.294921875 298.768554688 c 2
 615.723632812 391.588867188 l 2
 638.834960938 491.6953125 630.71875 565.575195312 592.96484375 614.661132812 c 0
 555.112304688 663.876953125 490.736328125 688.918945312 398.2578125 688.918945312 c 0
 314.107421875 688.918945312 229.958007812 688.919921875 145.807617188 688.919921875 c 1
 -13.1455078125 0.419921875 l 1
 237.264648438 0.419921875 l 2
516.302734375 296.728515625 m 2
 486.298828125 166.766601562 416.198242188 67.7392578125 254.846679688 67.7392578125 c 2
 79.9169921875 67.7392578125 l 1
 207.786132812 621.598632812 l 1
 382.715820312 621.598632812 l 2
 545.626953125 621.598632812 567.342773438 517.805664062 537.026367188 386.489257812 c 2
 516.302734375 296.728515625 l 2
EndSplineSet
EndChar

StartChar: E
Encoding: 69 69 40
Width: 597
GlyphClass: 2
Flags: W
LayerCount: 2
Fore
SplineSet
207.786132812 621.599609375 m 1
 606.60546875 621.599609375 l 1
 622.147460938 688.919921875 l 1
 145.807617188 688.919921875 l 1
 -13.1455078125 0.419921875 l 1
 463.194335938 0.419921875 l 1
 478.736328125 67.740234375 l 1
 79.9169921875 67.740234375 l 1
 137.375976562 316.620117188 l 1
 479.075195312 316.620117188 l 1
 494.6171875 383.940429688 l 1
 152.91796875 383.940429688 l 1
 207.786132812 621.599609375 l 1
EndSplineSet
EndChar

StartChar: F
Encoding: 70 70 41
Width: 589
GlyphClass: 2
Flags: W
LayerCount: 2
Fore
SplineSet
207.786132812 621.599609375 m 1
 606.60546875 621.599609375 l 1
 622.147460938 688.919921875 l 1
 145.807617188 688.919921875 l 1
 -13.1455078125 0.419921875 l 1
 64.375 0.419921875 l 1
 136.668945312 313.559570312 l 1
 479.388671875 313.559570312 l 1
 494.930664062 380.879882812 l 1
 152.2109375 380.879882812 l 1
 207.786132812 621.599609375 l 1
EndSplineSet
EndChar

StartChar: G
Encoding: 71 71 42
Width: 681
GlyphClass: 2
Flags: MW
HStem: -8.75977 68.3398<215.096 303.852> 630.78 68.3389<378.523 438.745>
VStem: 58.9971 77.5195 538.396 76.5
LayerCount: 2
Fore
SplineSet
143.462890625 391.58984375 m 2
 173.518554688 521.772460938 241.301757812 630.780273438 409.314453125 630.780273438 c 0
 468.17578125 630.780273438 511.947265625 618 539.590820312 591.404296875 c 0
 566.538085938 565.478515625 575.329101562 529.817382812 566.0703125 485.939453125 c 1
 642.59375 485.939453125 l 1
 657.123046875 551.453125 645.262695312 602.51171875 607.200195312 640.653320312 c 0
 568.5703125 679.362304688 508.224609375 699.119140625 425.091796875 699.119140625 c 0
 331.954101562 699.119140625 255.415039062 673.5859375 194.256835938 623.366210938 c 0
 133.234375 573.256835938 90.5478515625 498.163085938 67.12109375 396.689453125 c 2
 43.3369140625 293.668945312 l 2
 19.91015625 192.1953125 27.9228515625 117.1015625 65.80859375 66.9921875 c 0
 103.77734375 16.7724609375 168.52734375 -8.759765625 261.665039062 -8.759765625 c 0
 346.0390625 -8.759765625 416.315429688 13.107421875 473.4453125 56.0595703125 c 0
 530.305664062 98.80859375 568.71875 161.483398438 588.168945312 245.73046875 c 2
 612.77734375 352.3203125 l 1
 341.458007812 352.3203125 l 1
 326.857421875 289.080078125 l 1
 521.676757812 289.080078125 l 1
 510.255859375 239.610351562 l 2
 487.552734375 141.271484375 424.686523438 59.580078125 278.462890625 59.580078125 c 0
 107.515625 59.580078125 92.486328125 170.786132812 120.62109375 292.650390625 c 2
 143.462890625 391.58984375 l 2
EndSplineSet
EndChar

StartChar: H
Encoding: 72 72 43
Width: 686
GlyphClass: 2
Flags: W
LayerCount: 2
Fore
SplineSet
523.375 0.419921875 m 1
 682.328125 688.919921875 l 1
 605.828125 688.919921875 l 1
 535.653320312 384.959960938 l 1
 153.153320312 384.959960938 l 1
 223.328125 688.919921875 l 1
 145.807617188 688.919921875 l 1
 -13.1455078125 0.419921875 l 1
 64.375 0.419921875 l 1
 137.846679688 318.66015625 l 1
 520.346679688 318.66015625 l 1
 446.875 0.419921875 l 1
 523.375 0.419921875 l 1
EndSplineSet
EndChar

StartChar: I
Encoding: 73 73 44
Width: 243
GlyphClass: 2
Flags: MW
VStem: 77.3574 77.5195
LayerCount: 2
Fore
SplineSet
230.467773438 688.919921875 m 1
 152.948242188 688.919921875 l 1
 -6.0048828125 0.419921875 l 1
 71.5146484375 0.419921875 l 1
 230.467773438 688.919921875 l 1
EndSplineSet
EndChar

StartChar: J
Encoding: 74 74 45
Width: 340
GlyphClass: 2
Flags: MW
HStem: 0.419922 67.3203<-41.4629 14.126 -41.4629 16.9443 -41.4629 69.293>
VStem: 175.277 77.5195
LayerCount: 2
Fore
SplineSet
16.9443359375 0.419921875 m 2
 121.641601562 0.419921875 181.038085938 50.677734375 204.168945312 150.870117188 c 2
 328.387695312 688.919921875 l 1
 250.868164062 688.919921875 l 1
 129.475585938 163.110351562 l 2
 113.881835938 95.568359375 81.126953125 67.740234375 14.1259765625 67.740234375 c 2
 -41.462890625 67.740234375 l 1
 -57.0048828125 0.419921875 l 1
 16.9443359375 0.419921875 l 2
EndSplineSet
EndChar

StartChar: K
Encoding: 75 75 46
Width: 672
GlyphClass: 2
Flags: W
LayerCount: 2
Fore
SplineSet
129.66796875 283.233398438 m 1
 223.328125 688.919921875 l 1
 145.807617188 688.919921875 l 1
 -13.1455078125 0.419921875 l 1
 64.375 0.419921875 l 1
 107.815429688 188.578125 l 1
 316.838867188 367.135742188 l 1
 475.96484375 0.419921875 l 1
 568.58984375 0.419921875 l 1
 379.658203125 420.901367188 l 1
 691.751953125 688.919921875 l 1
 596.43359375 688.919921875 l 1
 129.66796875 283.233398438 l 1
EndSplineSet
EndChar

StartChar: L
Encoding: 76 76 47
Width: 578
GlyphClass: 2
Flags: W
LayerCount: 2
Fore
SplineSet
223.328125 688.919921875 m 1
 145.807617188 688.919921875 l 1
 -13.1455078125 0.419921875 l 1
 459.114257812 0.419921875 l 1
 474.65625 67.740234375 l 1
 79.9169921875 67.740234375 l 1
 223.328125 688.919921875 l 1
EndSplineSet
EndChar

StartChar: M
Encoding: 77 77 48
Width: 830
GlyphClass: 2
Flags: W
LayerCount: 2
Fore
SplineSet
668.21484375 0.419921875 m 1
 827.16796875 688.919921875 l 1
 747.500976562 688.919921875 l 1
 379.653320312 223.958007812 l 1
 226.495117188 688.919921875 l 1
 145.807617188 688.919921875 l 1
 -13.1455078125 0.419921875 l 1
 64.375 0.419921875 l 1
 192.209960938 554.130859375 l 1
 332.116210938 140.16015625 l 1
 388.497070312 140.16015625 l 1
 719.549804688 554.130859375 l 1
 591.71484375 0.419921875 l 1
 668.21484375 0.419921875 l 1
EndSplineSet
EndChar

StartChar: N
Encoding: 78 78 49
Width: 723
GlyphClass: 2
Flags: W
LayerCount: 2
Fore
SplineSet
560.094726562 0.419921875 m 1
 719.047851562 688.919921875 l 1
 641.52734375 688.919921875 l 1
 511.943359375 127.630859375 l 1
 227.118164062 688.919921875 l 1
 145.807617188 688.919921875 l 1
 -13.1455078125 0.419921875 l 1
 64.375 0.419921875 l 1
 193.715820312 560.654296875 l 1
 478.780273438 0.419921875 l 1
 560.094726562 0.419921875 l 1
EndSplineSet
EndChar

StartChar: O
Encoding: 79 79 50
Width: 697
GlyphClass: 2
Flags: MW
HStem: -8.75977 68.3398<211.709 303.808> 630.78 68.3398<377.851 469.949 377.851 495.818>
VStem: 58.9971 77.5195 553.697 76.5
LayerCount: 2
Fore
SplineSet
257.5859375 -8.759765625 m 0
 350.029296875 -8.759765625 426.228515625 16.7607421875 487.400390625 66.9921875 c 0
 548.422851562 117.1015625 591.110351562 192.196289062 614.537109375 293.669921875 c 2
 638.321289062 396.690429688 l 2
 661.752929688 498.18359375 654.068359375 573.301757812 616.841796875 623.404296875 c 0
 579.5390625 673.610351562 515.825195312 699.120117188 424.072265625 699.120117188 c 0
 331.62890625 699.120117188 255.4296875 673.599609375 194.2578125 623.3671875 c 0
 133.234375 573.2578125 90.548828125 498.1640625 67.12109375 396.690429688 c 2
 43.3369140625 293.669921875 l 2
 19.9052734375 192.176757812 27.58984375 117.057617188 64.81640625 66.9560546875 c 0
 102.119140625 16.7490234375 165.833007812 -8.759765625 257.5859375 -8.759765625 c 0
537.801757812 292.651367188 m 2
 512.162109375 181.590820312 450.900390625 59.580078125 275.403320312 59.580078125 c 0
 112.947265625 59.580078125 90.4248046875 161.854492188 120.62109375 292.650390625 c 2
 143.462890625 391.58984375 l 2
 173.39453125 521.236328125 240.487304688 630.780273438 407.275390625 630.780273438 c 0
 584.361328125 630.780273438 586.732421875 504.591796875 560.64453125 391.590820312 c 2
 537.801757812 292.651367188 l 2
EndSplineSet
EndChar

StartChar: P
Encoding: 80 80 51
Width: 637
GlyphClass: 2
Flags: MW
HStem: 282.96 67.3203<145.145 349.413 349.413 366.994 145.145 384.308> 621.6 67.3203<207.784 423.514 423.514 443.137 145.807 480.222>
VStem: 524.115 77.5195
LayerCount: 2
Fore
SplineSet
349.413085938 282.959960938 m 2
 419.203125 282.959960938 586.502929688 295.956054688 630.24609375 485.4296875 c 0
 645.909179688 553.2734375 637.337890625 603.27734375 605.736328125 637.219726562 c 0
 574.006835938 671.297851562 520.234375 688.919921875 443.13671875 688.919921875 c 2
 145.806640625 688.919921875 l 1
 -13.146484375 0.419921875 l 1
 64.3740234375 0.419921875 l 1
 129.603515625 282.959960938 l 1
 349.413085938 282.959960938 l 2
552.491210938 484.41015625 m 0
 531.259765625 392.448242188 472.404296875 350.280273438 366.994140625 350.280273438 c 2
 145.14453125 350.280273438 l 1
 207.784179688 621.599609375 l 1
 423.513671875 621.599609375 l 2
 536.930664062 621.599609375 574.122070312 578.102539062 552.491210938 484.41015625 c 0
EndSplineSet
EndChar

StartChar: Q
Encoding: 81 81 52
Width: 697
GlyphClass: 2
Flags: MW
HStem: -8.75977 68.3398<211.709 267.617> 630.78 68.3398<377.851 469.949 377.851 495.819>
VStem: 58.9971 77.5195 553.697 76.5
LayerCount: 2
Fore
SplineSet
614.537109375 293.669921875 m 2
 638.321289062 396.690429688 l 2
 661.752929688 498.18359375 654.068359375 573.301757812 616.841796875 623.404296875 c 0
 579.5390625 673.610351562 515.825195312 699.120117188 424.072265625 699.120117188 c 0
 331.62890625 699.120117188 255.4296875 673.599609375 194.2578125 623.3671875 c 0
 133.234375 573.2578125 90.548828125 498.1640625 67.12109375 396.690429688 c 2
 43.3369140625 293.669921875 l 2
 19.9052734375 192.176757812 27.58984375 117.057617188 64.81640625 66.9560546875 c 0
 102.119140625 16.7490234375 165.833007812 -8.759765625 257.5859375 -8.759765625 c 0
 277.647460938 -8.759765625 314.638671875 -8.759765625 368.8359375 5.9189453125 c 1
 416.604492188 -150.895507812 l 1
 482.829101562 -119.349609375 l 1
 436.724609375 33.0791015625 l 1
 478.743164062 56.9814453125 572.895507812 113.297851562 614.537109375 293.669921875 c 2
407.275390625 630.780273438 m 0
 584.36328125 630.780273438 586.732421875 504.590820312 560.643554688 391.58984375 c 2
 537.801757812 292.650390625 l 2
 512.161132812 181.588867188 450.899414062 59.580078125 275.403320312 59.580078125 c 0
 112.947265625 59.580078125 90.4248046875 161.854492188 120.62109375 292.650390625 c 2
 143.462890625 391.58984375 l 2
 173.39453125 521.236328125 240.487304688 630.780273438 407.275390625 630.780273438 c 0
EndSplineSet
EndChar

StartChar: R
Encoding: 82 82 53
Width: 666
GlyphClass: 2
Flags: MW
HStem: 621.599 67.3203<207.786 425.556 425.556 445.178 145.808 468.508>
VStem: 524.117 77.5195
LayerCount: 2
Fore
SplineSet
632.3671875 494.609375 m 0
 642.073242188 536.650390625 672.54296875 688.918945312 445.177734375 688.918945312 c 2
 145.807617188 688.918945312 l 1
 -13.1455078125 0.4189453125 l 1
 64.375 0.4189453125 l 1
 133.607421875 300.298828125 l 1
 349.791015625 300.298828125 l 1
 444.77734375 0.419921875 l 1
 533.22265625 0.419921875 l 1
 430.984375 306.993164062 l 1
 462.318359375 313.829101562 518.235351562 326.02734375 566.767578125 373.389648438 c 0
 598.947265625 404.793945312 620.897460938 444.926757812 632.3671875 494.609375 c 0
554.84765625 494.609375 m 0
 531.10546875 391.770507812 455.66015625 365.579101562 372.568359375 365.579101562 c 2
 148.678710938 365.579101562 l 1
 207.786132812 621.598632812 l 1
 425.555664062 621.598632812 l 2
 511.4609375 621.598632812 578.081054688 595.244140625 554.84765625 494.609375 c 0
EndSplineSet
EndChar

StartChar: S
Encoding: 83 83 54
Width: 611
GlyphClass: 2
Flags: MW
HStem: -5.7002 64.2578<156.947 251.326> 634.86 63.2393<334.272 396.473>
VStem: 29.0508 74.5723 44.7139 74.4629 474.416 74.2539 486.374 76.5029
LayerCount: 2
Fore
SplineSet
-10.982421875 188.09765625 m 1xe4
 -24.1767578125 90.38671875 12.6015625 -5.7001953125 208.311523438 -5.7001953125 c 0
 294.33984375 -5.7001953125 364.736328125 12.1533203125 419.921875 46.875 c 0
 474.857421875 81.4384765625 509.377929688 129.770507812 524.139648438 193.709960938 c 0xe4
 548.682617188 300.018554688 498.145507812 361.82421875 365.7578125 379.916992188 c 2
 365.7578125 379.916992188 269.4765625 391.12890625 269.353515625 391.14453125 c 0
 198.020507812 400.737304688 134.41015625 427.482421875 153.911132812 511.950195312 c 0
 165.961914062 564.149414062 209.859375 634.860351562 359.256835938 634.860351562 c 0
 433.688476562 634.860351562 521.006835938 617.920898438 509.502929688 513.48046875 c 1
 583.756835938 513.48046875 l 1
 589.158203125 567.541992188 589.751953125 698.099609375 373.853515625 698.099609375 c 0
 294.690429688 698.099609375 229.237304688 680.807617188 176.9765625 647.118164062 c 0
 124.962890625 613.587890625 92.177734375 567.087890625 78.03515625 505.830078125 c 0xd8
 53.9677734375 401.583984375 103.830078125 341.458984375 234.544921875 324.719726562 c 2
 234.544921875 324.719726562 326.729492188 313.510742188 326.770507812 313.505859375 c 0
 411.514648438 303.702148438 465.568359375 271.381835938 446.22265625 187.587890625 c 0
 426.166992188 100.71484375 349.497070312 58.5576171875 227.224609375 58.5576171875 c 0
 86.669921875 58.5576171875 55.7685546875 115.762695312 63.58984375 188.09765625 c 1
 -10.982421875 188.09765625 l 1xe4
EndSplineSet
EndChar

StartChar: T
Encoding: 84 84 55
Width: 549
GlyphClass: 2
Flags: W
LayerCount: 2
Fore
SplineSet
224.514648438 0.419921875 m 1
 367.92578125 621.599609375 l 1
 595.385742188 621.599609375 l 1
 610.927734375 688.919921875 l 1
 79.5078125 688.919921875 l 1
 63.9658203125 621.599609375 l 1
 291.42578125 621.599609375 l 1
 148.014648438 0.419921875 l 1
 224.514648438 0.419921875 l 1
EndSplineSet
EndChar

StartChar: U
Encoding: 85 85 56
Width: 693
GlyphClass: 2
Flags: MW
HStem: -5.7002 66.2998<231.2 300.487>
VStem: 70.2168 77.5205 536.357 77.5195
LayerCount: 2
Fore
SplineSet
272.578125 60.599609375 m 0
 189.821289062 60.599609375 84.28125 86.6416015625 122.1875 250.830078125 c 2
 223.328125 688.919921875 l 1
 145.807617188 688.919921875 l 1
 43.25390625 244.709960938 l 2
 24.7744140625 164.666015625 34.697265625 103.6484375 72.10546875 60.1181640625 c 0
 109.5703125 16.5224609375 170.840820312 -5.7001953125 257.271484375 -5.7001953125 c 0
 343.703125 -5.7001953125 415.234375 16.5224609375 472.829101562 60.1181640625 c 0
 530.3359375 103.6484375 568.434570312 164.666015625 586.9140625 244.709960938 c 2
 689.467773438 688.919921875 l 1
 611.948242188 688.919921875 l 1
 510.807617188 250.830078125 l 2
 486.702148438 146.420898438 421.5703125 60.599609375 272.578125 60.599609375 c 0
EndSplineSet
EndChar

StartChar: V
Encoding: 86 86 57
Width: 605
GlyphClass: 2
Flags: W
LayerCount: 2
Fore
SplineSet
162.349609375 688.919921875 m 1
 81.896484375 688.919921875 l 1
 182.37890625 0.419921875 l 1
 249.2890625 0.419921875 l 1
 664.68359375 688.919921875 l 1
 584.212890625 688.919921875 l 1
 237.822265625 95.380859375 l 1
 162.349609375 688.919921875 l 1
EndSplineSet
EndChar

StartChar: W
Encoding: 87 87 58
Width: 919
GlyphClass: 2
Flags: MW
VStem: 514.626 69.5547 543.974 65.874
LayerCount: 2
Fore
SplineSet
626.223632812 0.419921875 m 1x40
 980.750976562 688.919921875 l 1
 906.985351562 688.919921875 l 1
 609.84765625 94.1123046875 l 1x40
 584.180664062 688.919921875 l 1
 480.666015625 688.919921875 l 1
 187.805664062 94.2001953125 l 1
 156.850585938 688.919921875 l 1
 81.021484375 688.919921875 l 1
 121.633789062 0.419921875 l 1
 203.915039062 0.419921875 l 1
 514.625976562 609.779296875 l 1x80
 543.973632812 0.419921875 l 1
 626.223632812 0.419921875 l 1x40
EndSplineSet
EndChar

StartChar: X
Encoding: 88 88 59
Width: 649
GlyphClass: 2
Flags: W
LayerCount: 2
Fore
SplineSet
273.428710938 358.946289062 m 1
 -72.9951171875 0.419921875 l 1
 15.0537109375 0.419921875 l 1
 302.098632812 303.650390625 l 1
 454.321289062 0.419921875 l 1
 545.524414062 0.419921875 l 1
 364.30078125 362.018554688 l 1
 679.96484375 688.919921875 l 1
 591.89453125 688.919921875 l 1
 333.543945312 417.307617188 l 1
 198.525390625 688.919921875 l 1
 107.36328125 688.919921875 l 1
 273.428710938 358.946289062 l 1
EndSplineSet
EndChar

StartChar: Y
Encoding: 89 89 60
Width: 579
GlyphClass: 2
Flags: W
LayerCount: 2
Fore
SplineSet
303.989257812 278.388671875 m 1
 636.916015625 688.919921875 l 1
 550.719726562 688.919921875 l 1
 280.75390625 338.844726562 l 1
 170.338867188 688.919921875 l 1
 84.1357421875 688.919921875 l 1
 227.725585938 279.413085938 l 1
 163.314453125 0.419921875 l 1
 239.814453125 0.419921875 l 1
 303.989257812 278.388671875 l 1
EndSplineSet
EndChar

StartChar: Z
Encoding: 90 90 61
Width: 570
GlyphClass: 2
Flags: W
LayerCount: 2
Fore
SplineSet
447.111328125 1.4404296875 m 1
 462.65234375 68.759765625 l 1
 51.19921875 68.759765625 l 1
 584.237304688 617.4921875 l 1
 600.962890625 689.940429688 l 1
 122.583007812 689.940429688 l 1
 107.041015625 622.620117188 l 1
 501.177734375 622.620117188 l 1
 -32.9052734375 73.8818359375 l 1
 -49.62890625 1.4404296875 l 1
 447.111328125 1.4404296875 l 1
EndSplineSet
EndChar

StartChar: bracketleft
Encoding: 91 91 62
Width: 317
GlyphClass: 2
Flags: MW
VStem: 70.2168 187.68
LayerCount: 2
Fore
SplineSet
345.26171875 739.919921875 m 1
 157.58203125 739.919921875 l 1
 -32.92578125 -85.259765625 l 1
 154.75390625 -85.259765625 l 1
 170.295898438 -17.9404296875 l 1
 55.0361328125 -17.9404296875 l 1
 214.459960938 672.599609375 l 1
 329.719726562 672.599609375 l 1
 345.26171875 739.919921875 l 1
EndSplineSet
Substitution2: "'rtla' Right to Left Alternates lookup 0 subtable" bracketright
EndChar

StartChar: backslash
Encoding: 92 92 63
Width: 424
GlyphClass: 2
Flags: W
LayerCount: 2
Fore
SplineSet
187.297851562 690.959960938 m 1
 129.08984375 690.959960938 l 1
 217.860351562 -9.7802734375 l 1
 276.069335938 -9.7802734375 l 1
 187.297851562 690.959960938 l 1
EndSplineSet
EndChar

StartChar: bracketright
Encoding: 93 93 64
Width: 317
GlyphClass: 2
Flags: MW
VStem: 49.8174 187.68
LayerCount: 2
Fore
SplineSet
121.640625 672.599609375 m 1
 235.879882812 672.599609375 l 1
 76.4560546875 -17.9404296875 l 1
 -37.783203125 -17.9404296875 l 1
 -53.3251953125 -85.259765625 l 1
 134.354492188 -85.259765625 l 1
 324.862304688 739.919921875 l 1
 137.182617188 739.919921875 l 1
 121.640625 672.599609375 l 1
EndSplineSet
Substitution2: "'rtla' Right to Left Alternates lookup 0 subtable" bracketleft
EndChar

StartChar: asciicircum
Encoding: 94 94 65
Width: 507
GlyphClass: 2
Flags: W
LayerCount: 2
Fore
SplineSet
356.880859375 690.959960938 m 1
 292.67578125 690.959960938 l 1
 33.3349609375 287.040039062 l 1
 91.2080078125 287.040039062 l 1
 311.1796875 634.377929688 l 1
 371.831054688 287.040039062 l 1
 429.717773438 287.040039062 l 1
 356.880859375 690.959960938 l 1
EndSplineSet
EndChar

StartChar: underscore
Encoding: 95 95 66
Width: 535
GlyphClass: 2
Flags: MW
HStem: -110.76 44.8799<-101.892 420.187 420.187 420.187>
LayerCount: 2
Fore
SplineSet
430.547851562 -65.8798828125 m 1
 -101.891601562 -65.8798828125 l 1
 -112.252929688 -110.759765625 l 1
 420.186523438 -110.759765625 l 1
 430.547851562 -65.8798828125 l 1
EndSplineSet
EndChar

StartChar: grave
Encoding: 96 96 67
Width: 498
GlyphClass: 2
Flags: MW
HStem: 588.96 115.26<187.309 353.944 187.309 353.944>
LayerCount: 2
Fore
SplineSet
277.000976562 704.219726562 m 1
 187.30859375 704.219726562 l 1
 290.366210938 588.959960938 l 1
 353.944335938 588.959960938 l 1
 277.000976562 704.219726562 l 1
EndSplineSet
EndChar

StartChar: a
Encoding: 97 97 68
Width: 548
GlyphClass: 2
Flags: MW
HStem: -5.7002 55.0801<142.471 179.07> 238.081 49.9785<217.672 373.222 373.222 373.222> 457.38 57.1201<259.254 302.439>
VStem: 39.6162 70.3799 57.0127 69.4004 401.715 71.4014
LayerCount: 2
Fore
SplineSet
-10.66015625 143.73046875 m 0xf4
 -20.5576171875 100.859375 -35.044921875 -5.7001953125 140.990234375 -5.7001953125 c 0
 217.150390625 -5.7001953125 276.200195312 15.5693359375 319.8671875 56.8046875 c 2
 337.1875 73.16015625 l 1
 320.393554688 0.419921875 l 1
 389.75390625 0.419921875 l 1
 466.640625 333.450195312 l 2
 480.390625 393.009765625 471.954101562 437.202148438 442.280273438 467.821289062 c 0
 412.497070312 498.552734375 362.359375 514.5 290.668945312 514.5 c 0
 227.838867188 514.5 176.1171875 500.6171875 134.958007812 473.750976562 c 0
 95.279296875 447.852539062 70.072265625 413.318359375 58.6611328125 368.639648438 c 1
 128.061523438 368.639648438 l 1xec
 136.959960938 401.1953125 168.282226562 457.379882812 278.501953125 457.379882812 c 0
 326.376953125 457.379882812 421.696289062 448.045898438 394.768554688 331.41015625 c 2
 384.760742188 288.059570312 l 1
 214.930664062 288.059570312 l 2
 155.174804688 288.059570312 20.2197265625 277.486328125 -10.66015625 143.73046875 c 0xf4
362.03515625 189.630859375 m 2
 335.426757812 74.375 251.55078125 49.3798828125 171.047851562 49.3798828125 c 0
 113.893554688 49.3798828125 40.544921875 60.6728515625 59.955078125 144.75 c 0xf4
 79.0849609375 227.611328125 159.525390625 238.081054688 217.671875 238.081054688 c 2
 373.221679688 238.081054688 l 1
 362.03515625 189.630859375 l 2
EndSplineSet
EndChar

StartChar: b
Encoding: 98 98 69
Width: 579
GlyphClass: 2
Flags: MW
HStem: -8.75977 61.1992<201.227 249.408 201.227 256.064> 455.338 62.2217<327.367 352.44>
VStem: 65.1172 71.3994 448.635 71.4023
LayerCount: 2
Fore
SplineSet
223.92578125 -8.759765625 m 0
 288.202148438 -8.759765625 343.458984375 11.5830078125 391.017578125 52.078125 c 0
 438.383789062 92.41015625 471.306640625 150.424804688 489.0703125 227.370117188 c 2
 501.787109375 282.450195312 l 2
 519.390625 358.69921875 513.19140625 416.375976562 484.436523438 456.72265625 c 0
 455.577148438 497.216796875 409.712890625 517.559570312 345.436523438 517.559570312 c 0
 309.296875 517.559570312 230.763671875 508.798828125 168.71484375 440.354492188 c 2
 149.940429688 419.64453125 l 1
 212.107421875 688.919921875 l 1
 140.708007812 688.919921875 l 1
 -18.2451171875 0.419921875 l 1
 52.134765625 0.419921875 l 1
 71.49609375 84.28125 l 1
 80.837890625 64.4814453125 l 2
 100.17578125 23.49609375 141.577148438 -8.759765625 223.92578125 -8.759765625 c 0
316.7890625 455.337890625 m 0
 388.091796875 455.337890625 463.018554688 423.802734375 429.442382812 278.368164062 c 2
 418.609375 231.448242188 l 2
 405.18359375 173.293945312 382.079101562 128.4140625 348.125976562 97.8759765625 c 0
 314.276367188 67.4306640625 273.001953125 52.439453125 225.813476562 52.439453125 c 0
 176.640625 52.439453125 140.385742188 67.5361328125 118.606445312 98.1982421875 c 0
 96.9013671875 128.752929688 92.18359375 169.48046875 103.6640625 219.208007812 c 2
 119.44140625 287.547851562 l 2
 131.068359375 337.908203125 154.458007812 378.959960938 189.942382812 409.54296875 c 0
 225.529296875 440.213867188 268.268554688 455.337890625 316.7890625 455.337890625 c 0
EndSplineSet
EndChar

StartChar: c
Encoding: 99 99 70
Width: 552
GlyphClass: 2
Flags: MW
HStem: -8.75977 61.2002<167.112 230.118> 455.34 62.2197<280.186 325.511>
VStem: 49.8184 71.3984 423.097 69.375
LayerCount: 2
Fore
SplineSet
102.024414062 278.370117188 m 2
 117.4375 345.130859375 159.560546875 455.33984375 303.53125 455.33984375 c 0
 347.490234375 455.33984375 380.12109375 445.236328125 400.180664062 423.932617188 c 0
 419.803710938 403.090820312 425.435546875 373.947265625 417.701171875 338.040039062 c 1
 487.068359375 338.040039062 l 1
 499.497070312 394.2265625 490.880859375 437.35546875 461.799804688 468.942382812 c 0
 432.233398438 501.056640625 384.338867188 517.559570312 316.875976562 517.559570312 c 0
 243.49609375 517.559570312 182.544921875 497.15625 132.853515625 457.049804688 c 0
 83.3125 417.065429688 49.1630859375 358.661132812 31.09765625 280.41015625 c 2
 19.0869140625 228.389648438 l 2
 1.021484375 150.138671875 8.203125 91.734375 39.28125 51.75 c 0
 70.4423828125 11.6591796875 122.306640625 -8.759765625 196.385742188 -8.759765625 c 0
 263.850585938 -8.759765625 319.180664062 7.74609375 363.217773438 39.8359375 c 0
 406.319335938 71.244140625 434.422851562 113.388671875 447.729492188 167.700195312 c 1
 378.354492188 167.700195312 l 1
 362.80078125 106.346679688 310.775390625 52.4404296875 210.514648438 52.4404296875 c 0
 123.709960938 52.4404296875 59.197265625 92.8662109375 90.95703125 230.4296875 c 2
 102.024414062 278.370117188 l 2
EndSplineSet
EndChar

StartChar: d
Encoding: 100 100 71
Width: 579
GlyphClass: 2
Flags: MW
HStem: -8.75977 61.2002<171.896 197.072> 455.34 62.2197<271.467 319.946>
VStem: 49.8184 71.3994 433.337 70.3799
LayerCount: 2
Fore
SplineSet
172.92578125 -8.759765625 m 0
 221.217773438 -8.759765625 294.638671875 3.2353515625 350.98046875 65.3857421875 c 2
 369.754882812 86.0947265625 l 1
 349.974609375 0.419921875 l 1
 420.354492188 0.419921875 l 1
 579.307617188 688.919921875 l 1
 508.927734375 688.919921875 l 1
 447.125 421.223632812 l 1
 437.821289062 441.293945312 l 2
 427.842773438 462.817382812 392.612304688 517.559570312 292.396484375 517.559570312 c 0
 229.524414062 517.559570312 175.317382812 497.256835938 128.422851562 456.770507812 c 0
 81.697265625 416.431640625 49.177734375 358.724609375 31.568359375 282.450195312 c 2
 18.6162109375 226.349609375 l 2
 0.8427734375 149.364257812 6.53515625 91.48828125 34.3525390625 51.517578125 c 0
 62.2431640625 11.4423828125 107.926757812 -8.759765625 172.92578125 -8.759765625 c 0
203.375 52.4404296875 m 0
 140.416015625 52.4404296875 55.9501953125 78.796875 90.9580078125 230.4296875 c 2
 101.790039062 277.349609375 l 2
 115.21484375 335.499023438 138.28125 380.231445312 172.196289062 410.447265625 c 0
 206.0078125 440.5703125 247.561523438 455.33984375 295.372070312 455.33984375 c 0
 344.51953125 455.33984375 380.655273438 440.434570312 402.188476562 410.088867188 c 0
 423.67578125 379.807617188 428.041992188 338.561523438 416.264648438 287.549804688 c 2
 400.487304688 219.209960938 l 2
 388.866210938 168.874023438 365.706054688 127.991210938 330.618164062 97.7275390625 c 0
 295.392578125 67.3466796875 252.51953125 52.4404296875 203.375 52.4404296875 c 0
EndSplineSet
EndChar

StartChar: e
Encoding: 101 101 72
Width: 556
GlyphClass: 2
Flags: MW
HStem: -8.75977 60.1797<170.542 220.753> 456.36 61.1992<274.119 327.427>
VStem: 49.8174 71.3984 424.155 71.4014
LayerCount: 2
Fore
SplineSet
215.377929688 51.419921875 m 0
 125.70703125 51.419921875 58.9267578125 91.6982421875 90.484375 228.389648438 c 2
 93.193359375 240.120117188 l 1
 467.534179688 240.120117188 l 1
 479.896484375 293.669921875 l 2
 496.8515625 367.109375 489.604492188 422.087890625 459.422851562 460.063476562 c 0
 429.135742188 498.171875 379.71875 517.559570312 309.736328125 517.559570312 c 0
 238.500976562 517.559570312 179.21875 496.576171875 130.557617188 455.188476562 c 0
 81.939453125 413.838867188 48.154296875 354.296875 29.9189453125 275.309570312 c 2
 20.263671875 233.490234375 l 2
 1.72265625 153.180664062 8.9482421875 93.4189453125 40.537109375 52.76953125 c 0
 72.2314453125 11.9873046875 124.701171875 -8.759765625 199.4453125 -8.759765625 c 0
 242.060546875 -8.759765625 280.543945312 -1.2705078125 315.037109375 13.4580078125 c 0
 353.728515625 29.978515625 421.637695312 70.02734375 444.34375 153.419921875 c 1
 373.887695312 153.419921875 l 1
 365.484375 124.711914062 347.436523438 100.318359375 320.5390625 81.2783203125 c 0
 291.939453125 61.0341796875 256.639648438 51.419921875 215.377929688 51.419921875 c 0
295.60546875 456.360351562 m 0
 359.248046875 456.360351562 440.711914062 433.213867188 411.556640625 306.9296875 c 2
 407.670898438 290.099609375 l 1
 104.311523438 290.099609375 l 1
 112.409179688 318.592773438 129.174804688 377.583007812 177.5546875 416.888671875 c 0
 210.233398438 443.4375 249.979492188 456.360351562 295.60546875 456.360351562 c 0
EndSplineSet
EndChar

StartChar: f
Encoding: 102 102 73
Width: 359
GlyphClass: 2
Flags: MW
HStem: 639.96 48.96<342.074 382.364 382.364 382.364>
VStem: 116.117 71.3994
LayerCount: 2
Fore
SplineSet
232.140625 554.790039062 m 2
 247.829101562 622.744140625 293.229492188 639.959960938 342.07421875 639.959960938 c 2
 382.364257812 639.959960938 l 1
 393.66796875 688.919921875 l 1
 339.09765625 688.919921875 l 2
 291.474609375 688.919921875 189.198242188 678.049804688 160.03515625 551.73046875 c 2
 149.791992188 507.360351562 l 1
 76.3515625 507.360351562 l 1
 64.8125 457.379882812 l 1
 138.252929688 457.379882812 l 1
 32.7548828125 0.419921875 l 1
 104.154296875 0.419921875 l 1
 209.65234375 457.379882812 l 1
 340.212890625 457.379882812 l 1
 351.751953125 507.360351562 l 1
 221.19140625 507.360351562 l 1
 232.140625 554.790039062 l 2
EndSplineSet
EndChar

StartChar: g
Encoding: 103 103 74
Width: 579
GlyphClass: 2
Flags: MW
HStem: -162.78 58.1387<133.442 173.045> 15.7188 62.2217<180.72 204.157> 456.36 61.1982<271.701 320.18>
VStem: 49.8164 71.3994 61.8955 70.3047 433.336 70.3799
LayerCount: 2
Fore
SplineSet
-28.7666015625 -31.201171875 m 1xec
 -31.4111328125 -57.3818359375 -40.9013671875 -162.780273438 151.646484375 -162.780273438 c 0
 194.444335938 -162.780273438 383.095703125 -160.962890625 428.94921875 37.6494140625 c 2
 537.389648438 507.359375 l 1
 467.009765625 507.359375 l 1
 447.359375 422.243164062 l 1
 438.055664062 442.3125 l 2
 427.764648438 464.508789062 392.68359375 517.55859375 292.395507812 517.55859375 c 0
 228.801757812 517.55859375 174.466796875 497.393554688 128.029296875 457.28125 c 0
 81.7216796875 417.28125 49.4892578125 360.083007812 32.037109375 284.489257812 c 2
 22.8525390625 244.708984375 l 2xf4
 5.7236328125 170.515625 11.92578125 114.380859375 40.228515625 75.046875 c 0
 68.6142578125 35.5966796875 114.248046875 15.71875 178.576171875 15.71875 c 0
 229.737304688 15.71875 301.735351562 28.85546875 356.794921875 90.8056640625 c 2
 375.76953125 112.154296875 l 1
 357.15625 31.529296875 l 2
 331.1171875 -81.2578125 245.098632812 -104.641601562 166.088867188 -104.641601562 c 0
 100.795898438 -104.641601562 45.7509765625 -90.56640625 41.5380859375 -31.201171875 c 1
 -28.7666015625 -31.201171875 l 1xec
208.241210938 77.9404296875 m 0
 153.19921875 77.9404296875 60.66015625 99.20703125 95.4296875 249.809570312 c 2
 102.258789062 279.389648438 l 2
 115.53125 336.877929688 138.538085938 381.271484375 172.430664062 411.467773438 c 0
 206.241210938 441.58984375 247.795898438 456.360351562 295.606445312 456.360351562 c 0
 344.75390625 456.360351562 380.888671875 441.454101562 402.421875 411.108398438 c 0
 423.876953125 380.873046875 428.444335938 340.313476562 416.969726562 290.610351562 c 2
 405.901367188 242.669921875 l 2
 393.986328125 191.060546875 371.047851562 150.1015625 336.423828125 121.086914062 c 0
 301.749023438 92.0302734375 258.59375 77.9404296875 208.241210938 77.9404296875 c 0
EndSplineSet
EndChar

StartChar: h
Encoding: 104 104 75
Width: 571
GlyphClass: 2
Flags: MW
HStem: 451.26 62.2207<322.762 338.223>
VStem: 65.1172 71.3994 425.178 71.4004
LayerCount: 2
Fore
SplineSet
308.7109375 451.259765625 m 0
 367.735351562 451.259765625 440.721679688 428.827148438 413.286132812 309.990234375 c 2
 341.815429688 0.419921875 l 1
 413.215820312 0.419921875 l 1
 487.276367188 321.209960938 l 2
 501.40234375 382.396484375 495.663085938 429.168945312 471.098632812 462.790039062 c 0
 446.583984375 496.33984375 404.924804688 513.48046875 344.495117188 513.48046875 c 0
 301.028320312 513.48046875 229.032226562 503.138671875 168.502929688 440.125976562 c 2
 150.291992188 421.168945312 l 1
 212.107421875 688.918945312 l 1
 188.307617188 688.918945312 164.5078125 688.919921875 140.708007812 688.919921875 c 1
 -18.2451171875 0.419921875 l 1
 53.154296875 0.419921875 l 1
 122.034179688 298.76953125 l 2
 132.741210938 345.149414062 155.09375 382.774414062 189.329101562 410.293945312 c 0
 223.467773438 437.735351562 263.649414062 451.259765625 308.7109375 451.259765625 c 0
EndSplineSet
EndChar

StartChar: i
Encoding: 105 105 76
Width: 227
GlyphClass: 2
Flags: MW
VStem: 72.2568 71.4004
LayerCount: 2
Fore
SplineSet
219.012695312 687.900390625 m 1
 147.612304688 687.900390625 l 1
 129.479492188 609.360351562 l 1
 200.879882812 609.360351562 l 1
 219.012695312 687.900390625 l 1
177.33203125 507.360351562 m 1
 105.931640625 507.360351562 l 1
 -11.10546875 0.419921875 l 1
 60.294921875 0.419921875 l 1
 177.33203125 507.360351562 l 1
EndSplineSet
EndChar

StartChar: j
Encoding: 106 106 77
Width: 225
GlyphClass: 2
Flags: MW
HStem: -155.64 62.2197<-163.329 -156.954 -163.329 -129.245 -163.329 -72.4087>
VStem: 71.2373 71.3994
LayerCount: 2
Fore
SplineSet
217.208007812 688.919921875 m 1
 144.788085938 688.919921875 l 1
 126.419921875 609.360351562 l 1
 198.83984375 609.360351562 l 1
 217.208007812 688.919921875 l 1
-129.245117188 -155.639648438 m 2
 -15.572265625 -155.639648438 37.4365234375 -94.169921875 57.5087890625 -7.2294921875 c 2
 176.311523438 507.361328125 l 1
 104.912109375 507.361328125 l 1
 -12.4775390625 -1.109375 l 2
 -27.060546875 -64.2763671875 -59.08984375 -93.4189453125 -125.079101562 -93.4189453125 c 0
 -137.829101562 -93.4189453125 -150.579101562 -93.419921875 -163.329101562 -93.419921875 c 1
 -177.694335938 -155.639648438 l 1
 -129.245117188 -155.639648438 l 2
EndSplineSet
EndChar

StartChar: k
Encoding: 107 107 78
Width: 557
GlyphClass: 2
Flags: W
LayerCount: 2
Fore
SplineSet
106.655273438 232.158203125 m 1
 212.107421875 688.919921875 l 1
 140.708007812 688.919921875 l 1
 -18.2451171875 0.419921875 l 1
 53.154296875 0.419921875 l 1
 87.677734375 149.95703125 l 1
 232.701171875 267.778320312 l 1
 358.541992188 0.419921875 l 1
 442.786132812 0.419921875 l 1
 291.966796875 315.946289062 l 1
 528.548828125 507.360351562 l 1
 441.143554688 507.360351562 l 1
 106.655273438 232.158203125 l 1
EndSplineSet
EndChar

StartChar: l
Encoding: 108 108 79
Width: 296
GlyphClass: 2
Flags: MW
HStem: 0.419922 62.2197<134.245 159.83 159.83 182.694 182.694 182.694>
VStem: 65.1172 71.3994
LayerCount: 2
Fore
SplineSet
16.25390625 149.849609375 m 2
 -6.4375 51.5634765625 25.2021484375 0.419921875 134.245117188 0.419921875 c 2
 182.694335938 0.419921875 l 1
 197.059570312 62.6396484375 l 1
 159.830078125 62.6396484375 l 2
 96.1103515625 62.6396484375 73.1123046875 86.8662109375 88.8310546875 154.950195312 c 2
 212.107421875 688.919921875 l 1
 140.708007812 688.919921875 l 1
 16.25390625 149.849609375 l 2
EndSplineSet
EndChar

StartChar: m
Encoding: 109 109 80
Width: 917
GlyphClass: 2
Flags: MW
HStem: 451.26 62.2207<286.18 360.618 633.769 685.519>
VStem: 65.1172 71.3994 418.038 72.4199 770.957 71.4004
LayerCount: 2
Fore
SplineSet
656.529296875 451.259765625 m 0
 714.5078125 451.259765625 786.522460938 428.921875 759.065429688 309.990234375 c 2
 687.594726562 0.419921875 l 1
 758.995117188 0.419921875 l 1
 833.055664062 321.209960938 l 2
 847.340820312 383.083984375 841.458007812 429.989257812 816.524414062 463.245117188 c 0
 791.625976562 496.45703125 749.061523438 513.48046875 687.213867188 513.48046875 c 0
 572.21875 513.48046875 516.875976562 457.806640625 483.30078125 423.986328125 c 1
 475.109375 445.2890625 465.041992188 471.470703125 429.927734375 492.419921875 c 0
 406.470703125 506.415039062 377.76171875 513.48046875 343.473632812 513.48046875 c 0
 301.165039062 513.48046875 227.845703125 502.965820312 167.482421875 440.125976562 c 2
 149.272460938 421.168945312 l 1
 169.170898438 507.359375 l 1
 145.7109375 507.359375 122.251953125 507.360351562 98.7919921875 507.360351562 c 1
 -18.2451171875 0.419921875 l 1
 53.154296875 0.419921875 l 1
 122.034179688 298.76953125 l 2
 132.741210938 345.149414062 155.09375 382.774414062 189.329101562 410.293945312 c 0
 223.467773438 437.735351562 263.649414062 451.259765625 308.7109375 451.259765625 c 0
 333.889648438 451.259765625 438.033203125 448.108398438 406.381835938 311.009765625 c 2
 334.67578125 0.419921875 l 1
 407.095703125 0.419921875 l 1
 478.094726562 307.950195312 l 2
 488.458007812 352.838867188 509.084960938 388.618164062 540.528320312 413.8671875 c 0
 571.962890625 439.109375 611.008789062 451.259765625 656.529296875 451.259765625 c 0
EndSplineSet
EndChar

StartChar: n
Encoding: 110 110 81
Width: 571
GlyphClass: 2
Flags: MW
HStem: 451.26 62.2207<323.082 338.223>
VStem: 65.1172 71.3994 425.178 71.4004
LayerCount: 2
Fore
SplineSet
308.7109375 451.259765625 m 0
 367.735351562 451.259765625 440.721679688 428.827148438 413.286132812 309.990234375 c 2
 341.815429688 0.419921875 l 1
 413.215820312 0.419921875 l 1
 487.276367188 321.209960938 l 2
 501.40234375 382.396484375 495.663085938 429.168945312 471.098632812 462.790039062 c 0
 446.583984375 496.33984375 404.924804688 513.48046875 344.495117188 513.48046875 c 0
 301.668945312 513.48046875 228.165039062 503.297851562 167.483398438 440.125976562 c 2
 149.2734375 421.168945312 l 1
 169.171875 507.359375 l 1
 145.711914062 507.359375 122.251953125 507.360351562 98.7919921875 507.360351562 c 1
 -18.2451171875 0.419921875 l 1
 53.154296875 0.419921875 l 1
 122.034179688 298.76953125 l 2
 132.741210938 345.149414062 155.09375 382.774414062 189.329101562 410.293945312 c 0
 223.467773438 437.735351562 263.649414062 451.259765625 308.7109375 451.259765625 c 0
EndSplineSet
EndChar

StartChar: o
Encoding: 111 111 82
Width: 571
GlyphClass: 2
Flags: MW
HStem: -8.75977 61.1992<166.378 232.727> 455.339 62.2197<281.208 345.607>
VStem: 49.8174 71.3994 440.477 71.4004
LayerCount: 2
Fore
SplineSet
196.385742188 -8.759765625 m 0
 269.068359375 -8.759765625 329.678710938 11.62890625 379.388671875 51.75 c 0
 428.9296875 91.7353515625 463.080078125 150.138671875 481.145507812 228.389648438 c 2
 493.15625 280.41015625 l 2
 511.059570312 357.9609375 503.858398438 416.212890625 472.825195312 456.560546875 c 0
 441.711914062 497.012695312 390.565429688 517.55859375 317.896484375 517.55859375 c 0
 244.518554688 517.55859375 183.380859375 497.155273438 133.334960938 457.02734375 c 0
 83.4619140625 417.037109375 49.1591796875 358.647460938 31.095703125 280.409179688 c 2
 19.0859375 228.388671875 l 2
 1.0234375 150.151367188 8.3662109375 91.76171875 39.7744140625 51.7724609375 c 0
 71.2919921875 11.6435546875 123.0078125 -8.759765625 196.385742188 -8.759765625 c 0
302.510742188 455.338867188 m 0
 388.703125 455.338867188 452.872070312 415.192382812 421.284179688 278.369140625 c 2
 410.215820312 230.428710938 l 2
 394.88671875 164.02734375 353.004882812 52.439453125 209.494140625 52.439453125 c 0
 123.262695312 52.439453125 59.193359375 92.8486328125 90.9560546875 230.428710938 c 2
 102.024414062 278.369140625 l 2
 117.328125 344.65625 159.16796875 455.338867188 302.510742188 455.338867188 c 0
EndSplineSet
EndChar

StartChar: p
Encoding: 112 112 83
Width: 579
GlyphClass: 2
Flags: MW
HStem: -8.75977 61.1992<201.227 249.408 201.227 256.064> 455.338 61.2021<325.114 351.093>
VStem: 65.1172 71.3994 448.635 71.4023
LayerCount: 2
Fore
SplineSet
169.170898438 507.359375 m 1
 145.7109375 507.359375 122.251953125 507.360351562 98.7919921875 507.360351562 c 1
 -56.3935546875 -164.8203125 l 1
 15.005859375 -164.8203125 l 1
 72.5771484375 84.548828125 l 1
 81.876953125 64.44140625 l 2
 104.372070312 15.798828125 150.912109375 -8.759765625 223.92578125 -8.759765625 c 0
 288.202148438 -8.759765625 343.458984375 11.5830078125 391.017578125 52.078125 c 0
 438.383789062 92.41015625 471.306640625 150.424804688 489.0703125 227.370117188 c 2
 501.787109375 282.450195312 l 2
 519.390625 358.701171875 513.147460938 416.192382812 484.334960938 456.189453125 c 0
 455.404296875 496.3515625 409.493164062 516.540039062 345.201171875 516.540039062 c 0
 305.02734375 516.540039062 229.435546875 506.48828125 167.587890625 440.23828125 c 2
 149.103515625 420.4375 l 1
 169.170898438 507.359375 l 1
316.7890625 455.337890625 m 0
 385.396484375 455.337890625 463.393554688 425.42578125 429.20703125 277.34765625 c 2
 418.609375 231.448242188 l 2
 405.18359375 173.293945312 382.079101562 128.4140625 348.125976562 97.8759765625 c 0
 314.276367188 67.4306640625 273.001953125 52.439453125 225.813476562 52.439453125 c 0
 176.640625 52.439453125 140.385742188 67.5361328125 118.606445312 98.1982421875 c 0
 96.9013671875 128.752929688 92.18359375 169.48046875 103.6640625 219.208007812 c 2
 119.44140625 287.547851562 l 2
 131.068359375 337.908203125 154.458007812 378.959960938 189.942382812 409.54296875 c 0
 225.529296875 440.213867188 268.268554688 455.337890625 316.7890625 455.337890625 c 0
EndSplineSet
EndChar

StartChar: q
Encoding: 113 113 84
Width: 579
GlyphClass: 2
Flags: MW
HStem: -8.75977 61.2002<171.894 185.161> 455.34 61.2002<271.465 319.944>
VStem: 49.8164 71.3994 433.337 70.3799
LayerCount: 2
Fore
SplineSet
369.754882812 86.0947265625 m 1
 311.826171875 -164.8203125 l 1
 382.206054688 -164.8203125 l 1
 537.391601562 507.360351562 l 1
 467.01171875 507.360351562 l 1
 447.125 421.223632812 l 1
 437.821289062 441.293945312 l 2
 426.822265625 465.01953125 391.60546875 516.540039062 293.1796875 516.540039062 c 0
 229.587890625 516.540039062 175.06640625 496.373046875 128.276367188 456.23828125 c 0
 81.6552734375 416.248046875 49.17578125 358.7265625 31.56640625 282.450195312 c 2
 18.6142578125 226.349609375 l 2
 0.8408203125 149.364257812 6.5341796875 91.4892578125 34.3515625 51.517578125 c 0
 62.2421875 11.4423828125 107.92578125 -8.759765625 172.924804688 -8.759765625 c 0
 197.397460938 -8.759765625 285.797851562 -6.5166015625 350.98046875 65.3857421875 c 2
 369.754882812 86.0947265625 l 1
203.373046875 52.4404296875 m 0
 140.4140625 52.4404296875 55.9482421875 78.796875 90.9560546875 230.4296875 c 2
 101.788085938 277.349609375 l 2
 115.212890625 335.499023438 138.279296875 380.231445312 172.194335938 410.447265625 c 0
 206.005859375 440.5703125 247.559570312 455.33984375 295.370117188 455.33984375 c 0
 344.517578125 455.33984375 380.653320312 440.434570312 402.186523438 410.088867188 c 0
 423.673828125 379.807617188 428.040039062 338.561523438 416.262695312 287.549804688 c 2
 400.485351562 219.209960938 l 2
 388.864257812 168.874023438 365.704101562 127.991210938 330.616210938 97.7275390625 c 0
 295.390625 67.3466796875 252.517578125 52.4404296875 203.373046875 52.4404296875 c 0
EndSplineSet
EndChar

StartChar: r
Encoding: 114 114 85
Width: 373
GlyphClass: 2
Flags: MW
HStem: 452.28 62.2197<318.573 323.541>
VStem: 65.1172 71.3994
LayerCount: 2
Fore
SplineSet
169.170898438 507.360351562 m 1
 98.7919921875 507.360351562 l 1
 -18.2451171875 0.419921875 l 1
 53.154296875 0.419921875 l 1
 120.856445312 293.669921875 l 2
 131.887695312 341.452148438 155.267578125 380.427734375 191.131835938 409.272460938 c 0
 226.903320312 438.04296875 268.602539062 452.280273438 315.065429688 452.280273438 c 0
 332.015625 452.280273438 348.069335938 450.337890625 363.189453125 446.451171875 c 1
 378.427734375 512.453125 l 1
 368.0859375 513.813476562 356.852539062 514.5 344.728515625 514.5 c 0
 292.41796875 514.5 222.399414062 500.200195312 167.088867188 437.409179688 c 2
 148.0234375 415.763671875 l 1
 169.170898438 507.360351562 l 1
EndSplineSet
EndChar

StartChar: s
Encoding: 115 115 86
Width: 515
GlyphClass: 2
Flags: MW
HStem: -5.7002 57.1201<160.257 202.036> 459.42 55.0801<255.492 300.764>
VStem: 39.6748 67.416 47.7783 67.3193 395.494 67.3857 403.759 67.3184
LayerCount: 2
Fore
SplineSet
353.247070312 142.709960938 m 0xd4
 339.9609375 85.162109375 279.244140625 51.419921875 184.78125 51.419921875 c 0
 135.732421875 51.419921875 100.311523438 59.53515625 79.25 77.2958984375 c 0
 59.6591796875 93.818359375 52.0634765625 116.576171875 56.9326171875 144.240234375 c 1
 -10.4833984375 144.240234375 l 1
 -19.9697265625 98.2724609375 -9.9892578125 62.7470703125 19.556640625 36.13671875 c 0
 50.15234375 8.5810546875 99.1669921875 -5.7001953125 167.51171875 -5.7001953125 c 0
 236.560546875 -5.7001953125 293.391601562 8.2509765625 338.349609375 35.2587890625 c 0
 383.025390625 62.09765625 410.4765625 99.01171875 421.743164062 147.809570312 c 0xe4
 436.185546875 210.369140625 419.0859375 267.268554688 287.334960938 283.01171875 c 2
 210.119140625 293.211914062 l 2
 150.407226562 299.782226562 104.432617188 315.306640625 117.805664062 373.23046875 c 0
 126.2265625 409.70703125 159.125976562 459.419921875 275.9140625 459.419921875 c 0
 325.61328125 459.419921875 412.026367188 448.48828125 397.61328125 370.6796875 c 1
 464.999023438 370.6796875 l 1xd8
 474.138671875 414.287109375 463.935546875 448.267578125 433.966796875 474.115234375 c 0
 403.116210938 500.724609375 354.60546875 514.5 287.610351562 514.5 c 0
 223.373046875 514.5 170.26171875 500.92578125 127.84375 474.637695312 c 0
 85.6337890625 448.478515625 59.71484375 413.205078125 49.0732421875 367.110351562 c 0
 33.3896484375 299.17578125 57.68359375 248.725585938 179.8828125 233.947265625 c 2
 252.192382812 224.771484375 l 2
 320.280273438 217.544921875 366.180664062 198.731445312 353.247070312 142.709960938 c 0xd4
EndSplineSet
EndChar

StartChar: t
Encoding: 116 116 87
Width: 378
GlyphClass: 2
Flags: MW
HStem: 0.419922 60.1797<185.245 213.418 213.418 235.734 235.734 235.734>
VStem: 120.197 71.3994
LayerCount: 2
Fore
SplineSet
213.41796875 60.599609375 m 2
 150.774414062 60.599609375 127.844726562 85.3623046875 142.262695312 147.809570312 c 2
 213.732421875 457.379882812 l 1
 352.453125 457.379882812 l 1
 363.9921875 507.360351562 l 1
 225.271484375 507.360351562 l 1
 258.780273438 652.505859375 l 1
 180.59375 623.10546875 l 1
 153.872070312 507.360351562 l 1
 62.0712890625 507.360351562 l 1
 50.5322265625 457.379882812 l 1
 142.333007812 457.379882812 l 1
 69.685546875 142.709960938 l 2
 50.462890625 59.4482421875 73.2802734375 0.419921875 185.245117188 0.419921875 c 2
 235.734375 0.419921875 l 1
 249.627929688 60.599609375 l 1
 213.41796875 60.599609375 l 2
EndSplineSet
EndChar

StartChar: u
Encoding: 117 117 88
Width: 571
GlyphClass: 2
Flags: MW
HStem: -6.71973 62.2188<171.889 216.447>
VStem: 65.1172 71.3994 425.177 71.4004
LayerCount: 2
Fore
SplineSet
27.7919921875 199.829101562 m 2
 16.154296875 149.41796875 -11.5869140625 -6.7197265625 194.81640625 -6.7197265625 c 0
 238.077148438 -6.7197265625 412.18359375 -4.0478515625 459.251953125 199.829101562 c 2
 530.250976562 507.359375 l 1
 458.850585938 507.359375 l 1
 389.971679688 209.008789062 l 2
 362.067382812 88.142578125 289.012695312 55.4990234375 210.200195312 55.4990234375 c 0
 133.577148438 55.4990234375 73.6865234375 89.3515625 101.311523438 209.008789062 c 2
 170.190429688 507.359375 l 1
 98.791015625 507.359375 l 1
 27.7919921875 199.829101562 l 2
EndSplineSet
EndChar

StartChar: v
Encoding: 118 118 89
Width: 511
GlyphClass: 2
Flags: W
LayerCount: 2
Fore
SplineSet
123.587890625 507.360351562 m 1
 47.3046875 507.360351562 l 1
 130.271484375 0.419921875 l 1
 204.517578125 0.419921875 l 1
 521.55859375 507.360351562 l 1
 445.288085938 507.360351562 l 1
 186.099609375 79.1298828125 l 1
 123.587890625 507.360351562 l 1
EndSplineSet
EndChar

StartChar: w
Encoding: 119 119 90
Width: 823
GlyphClass: 2
Flags: W
LayerCount: 2
Fore
SplineSet
123.305664062 507.360351562 m 1
 46.7822265625 507.360351562 l 1
 104.005859375 0.419921875 l 1
 177.782226562 0.419921875 l 1
 418.34765625 413.65625 l 1
 468.107421875 0.419921875 l 1
 542.913085938 0.419921875 l 1
 835.201171875 507.360351562 l 1
 758.698242188 507.360351562 l 1
 521.93359375 78.9453125 l 1
 470.260742188 507.360351562 l 1
 410.736328125 507.360351562 l 1
 162.26171875 78.8662109375 l 1
 123.305664062 507.360351562 l 1
EndSplineSet
EndChar

StartChar: x
Encoding: 120 120 91
Width: 485
GlyphClass: 2
Flags: W
LayerCount: 2
Fore
SplineSet
7.857421875 0.419921875 m 1
 201.745117188 209.043945312 l 1
 301.399414062 0.419921875 l 1
 375.458984375 0.419921875 l 1
 249.759765625 263.080078125 l 1
 480.21875 507.360351562 l 1
 406.220703125 507.360351562 l 1
 226.053710938 314.0390625 l 1
 134.100585938 507.360351562 l 1
 59.982421875 507.360351562 l 1
 177.013671875 260.002929688 l 1
 -66.2099609375 0.419921875 l 1
 7.857421875 0.419921875 l 1
EndSplineSet
EndChar

StartChar: y
Encoding: 121 121 92
Width: 511
GlyphClass: 2
Flags: MW
HStem: -155.64 63.2393<-29.4736 -15.0049 -15.0049 -0.404297 -29.4736 32.9482>
LayerCount: 2
Fore
SplineSet
-44.07421875 -155.639648438 m 1
 -15.0048828125 -155.639648438 l 2
 80.9013671875 -155.639648438 132.279296875 -117.465820312 170.075195312 -56.4814453125 c 2
 521.579101562 507.360351562 l 1
 447.338867188 507.360351562 l 1
 191.086914062 82.4541015625 l 1
 123.650390625 507.360351562 l 1
 47.4072265625 507.360351562 l 1
 136.620117188 -7.046875 l 1
 124.904296875 -27.1142578125 l 2
 94.75 -77.8369140625 59.5986328125 -92.400390625 -0.404296875 -92.400390625 c 2
 -29.4736328125 -92.400390625 l 1
 -44.07421875 -155.639648438 l 1
EndSplineSet
EndChar

StartChar: z
Encoding: 122 122 93
Width: 498
GlyphClass: 2
Flags: W
LayerCount: 2
Fore
SplineSet
369.204101562 61.6201171875 m 1
 56.6611328125 61.6201171875 l 1
 456.614257812 440.237304688 l 1
 472.111328125 507.360351562 l 1
 83.4921875 507.360351562 l 1
 69.126953125 445.139648438 l 1
 379.560546875 445.139648438 l 1
 -18.2802734375 66.5361328125 l 1
 -33.544921875 0.419921875 l 1
 355.07421875 0.419921875 l 1
 369.204101562 61.6201171875 l 1
EndSplineSet
EndChar

StartChar: braceleft
Encoding: 123 123 94
Width: 372
GlyphClass: 2
Flags: MW
HStem: -85.2598 59.1602<159.353 180.143 180.143 209.834 209.834 209.834> 298.013 63.7324<35.1611 49.875> 680.759 59.1602<343.335 386.685 386.685 386.685>
VStem: 139.578 72.4189
LayerCount: 2
Fore
SplineSet
61.75 24.3896484375 m 2
 42.861328125 -57.42578125 79.2060546875 -85.259765625 143.024414062 -85.259765625 c 2
 209.833984375 -85.259765625 l 1
 223.4921875 -26.099609375 l 1
 180.142578125 -26.099609375 l 2
 138.563476562 -26.099609375 127.331054688 -5.228515625 136.288085938 33.5703125 c 2
 176.0859375 205.950195312 l 2
 184.7421875 243.446289062 186.033203125 270.22265625 181.189453125 285.969726562 c 0
 176.358398438 301.673828125 164.305664062 313.803710938 143.653320312 322.1953125 c 2
 125.995117188 329.369140625 l 1
 146.965820312 336.54296875 l 2
 171.452148438 344.918945312 189.125 357.180664062 201.306640625 373.224609375 c 0
 213.552734375 389.357421875 224.653320312 416.317382812 233.30859375 453.80859375 c 2
 271.928710938 621.088867188 l 2
 280.885742188 659.885742188 301.75390625 680.758789062 343.334960938 680.758789062 c 2
 386.684570312 680.758789062 l 1
 400.342773438 739.918945312 l 1
 333.533203125 739.918945312 l 2
 269.745117188 739.918945312 220.522460938 712.110351562 201.627929688 630.268554688 c 2
 160.182617188 450.749023438 l 2
 144.7421875 383.870117188 109.318359375 364.447265625 49.875 361.745117188 c 1
 35.1611328125 298.012695312 l 1
 94.9560546875 295.236328125 119.565429688 274.814453125 104.137695312 207.989257812 c 2
 61.75 24.3896484375 l 2
EndSplineSet
Substitution2: "'rtla' Right to Left Alternates lookup 0 subtable" braceright
EndChar

StartChar: bar
Encoding: 124 124 95
Width: 283
GlyphClass: 2
Flags: MW
VStem: 102.857 68.3398
LayerCount: 2
Fore
SplineSet
258.5625 739.919921875 m 1
 190.22265625 739.919921875 l 1
 -0.0498046875 -84.240234375 l 1
 68.2900390625 -84.240234375 l 1
 258.5625 739.919921875 l 1
EndSplineSet
EndChar

StartChar: braceright
Encoding: 125 125 96
Width: 372
GlyphClass: 2
Flags: MW
HStem: -85.2598 59.1602<-39.667 3.68359 -39.667 12.4648 -39.667 50.0474> 298.021 63.7188<298.321 313.031> 680.76 59.1602<137.183 166.874 166.874 187.664>
VStem: 150.798 71.3994
LayerCount: 2
Fore
SplineSet
284.247070312 630.26953125 m 2
 300.669921875 701.40234375 278.126953125 739.919921875 202.97265625 739.919921875 c 2
 137.182617188 739.919921875 l 1
 123.524414062 680.759765625 l 1
 166.874023438 680.759765625 l 2
 208.453125 680.759765625 219.685546875 659.888671875 210.727539062 621.08984375 c 2
 172.108398438 453.809570312 l 2
 163.452148438 416.318359375 162.10546875 389.357421875 166.90234375 373.225585938 c 0
 171.674804688 357.181640625 183.685546875 344.919921875 204.305664062 336.54296875 c 2
 221.962890625 329.369140625 l 1
 200.993164062 322.1953125 l 2
 176.465820312 313.803710938 158.811523438 301.673828125 146.73046875 285.969726562 c 0
 134.615234375 270.22265625 123.54296875 243.446289062 114.88671875 205.950195312 c 2
 75.0888671875 33.5703125 l 2
 66.1318359375 -5.2265625 45.2646484375 -26.099609375 3.68359375 -26.099609375 c 2
 -39.6669921875 -26.099609375 l 1
 -53.3251953125 -85.259765625 l 1
 12.46484375 -85.259765625 l 2
 87.6298828125 -85.259765625 127.950195312 -46.73046875 144.369140625 24.3896484375 c 2
 186.756835938 207.990234375 l 2
 202.376953125 275.647460938 236.94140625 295.317382812 298.321289062 298.020507812 c 1
 313.03125 361.739257812 l 1
 254.490234375 364.37109375 227.178710938 383.078125 242.801757812 450.75 c 2
 284.247070312 630.26953125 l 2
EndSplineSet
Substitution2: "'rtla' Right to Left Alternates lookup 0 subtable" braceleft
EndChar

StartChar: asciitilde
Encoding: 126 126 97
Width: 507
GlyphClass: 2
Flags: MW
HStem: 211.561 61.2002<298.691 311.057> 273.78 60.1807<141.714 168.506>
LayerCount: 2
Fore
SplineSet
399.728515625 329.873046875 m 1
 371.080078125 294.397460938 345.314453125 272.760742188 308.30078125 272.760742188 c 0
 289.08203125 272.760742188 278.232421875 277.322265625 242.407226562 300.361328125 c 0
 201.6015625 331.00390625 181.19140625 333.9609375 159.229492188 333.9609375 c 0
 124.198242188 333.9609375 69.3037109375 319.421875 16.1494140625 245.692382812 c 1
 57.08984375 217.551757812 l 1
 85.75 253.109375 110.38671875 273.780273438 147.375 273.780273438 c 0
 189.63671875 273.780273438 208.2578125 240.430664062 253.57421875 219.651367188 c 0
 265.258789062 214.29296875 279.071289062 211.560546875 295.190429688 211.560546875 c 0
 326.922851562 211.560546875 384.278320312 224.184570312 439.616210938 300.973632812 c 1
 399.728515625 329.873046875 l 1
EndSplineSet
EndChar

StartChar: exclamdown
Encoding: 161 161 99
Width: 232
GlyphClass: 2
Flags: MW
VStem: 67.1572 88.7393 85.2227 52.5928
LayerCount: 2
Fore
SplineSet
189.571289062 507.360351562 m 1x80
 100.83203125 507.360351562 l 1
 79.40234375 414.540039062 l 1
 168.141601562 414.540039062 l 1
 189.571289062 507.360351562 l 1x80
122.979492188 297.240234375 m 1x40
 70.38671875 297.240234375 l 1
 -51.9287109375 -155.639648438 l 1
 35.1962890625 -155.639648438 l 1
 122.979492188 297.240234375 l 1x40
EndSplineSet
EndChar

StartChar: cent
Encoding: 162 162 100
Width: 552
GlyphClass: 2
Flags: MW
HStem: -7.77246 61.0703<164.695 185.722> 453.222 64.0029<269.303 292.829>
VStem: 49.8174 71.3984 256.876 46.9199 423.097 69.375
LayerCount: 2
Fore
SplineSet
232.685546875 53.486328125 m 1
 325.219726562 454.295898438 l 1
 347.541015625 451.482421875 384.776367188 446.790039062 406.646484375 416.227539062 c 0
 421.049804688 396.099609375 424.518554688 369.677734375 417.700195312 338.040039062 c 1
 487.068359375 338.040039062 l 1
 498.479492188 389.649414062 492.061523438 430.473632812 468.372070312 461.689453125 c 0
 444.301757812 493.40625 404.134765625 511.905273438 346.6328125 516.565429688 c 2
 339.725585938 517.125 l 1
 360.784179688 608.340820312 l 1
 313.864257812 608.340820312 l 1
 292.829101562 517.224609375 l 1
 261.418945312 514.341796875 188.796875 507.677734375 122.40234375 447.75 c 0
 78.4130859375 408.045898438 47.7666015625 352.618164062 31.0966796875 280.411132812 c 2
 19.0869140625 228.390625 l 2
 2.416015625 156.18359375 7.4697265625 100.755859375 33.1259765625 61.0517578125 c 0
 58.8447265625 21.2490234375 102.26171875 -1.7900390625 164.6953125 -7.7724609375 c 2
 171.473632812 -8.421875 l 1
 149.966796875 -101.579101562 l 1
 196.88671875 -101.579101562 l 1
 218.416015625 -8.3232421875 l 1
 247.84375 -6.0244140625 314.139648438 -0.845703125 372.575195312 46.62890625 c 0
 410.334960938 77.306640625 435.37890625 117.275390625 447.729492188 167.701171875 c 1
 378.354492188 167.701171875 l 1
 363.32421875 108.387695312 316.9765625 63.5244140625 241.515625 54.5380859375 c 2
 232.685546875 53.486328125 l 1
90.9560546875 230.4296875 m 2
 102.0234375 278.370117188 l 2
 125.62109375 380.58203125 181.954101562 441.04296875 269.302734375 453.221679688 c 2
 278.342773438 454.481445312 l 1
 185.721679688 53.2978515625 l 1
 149.51171875 58.6943359375 54.5732421875 72.841796875 90.9560546875 230.4296875 c 2
EndSplineSet
EndChar

StartChar: sterling
Encoding: 163 163 101
Width: 499
GlyphClass: 2
Flags: MW
HStem: 0.420898 68.3389<66.2754 378.535 378.535 378.535> 632.821 66.2998<340.025 376.239>
VStem: 104.896 77.5205 385.237 73.4951
LayerCount: 2
Fore
SplineSet
61.2138671875 172.291015625 m 2
 48.6884765625 118.03515625 26.4404296875 86.1240234375 -16.2412109375 66.5341796875 c 1
 -31.50390625 0.4208984375 l 1
 378.53515625 0.4208984375 l 1
 394.311523438 68.759765625 l 1
 66.275390625 68.759765625 l 1
 92.7861328125 90.2978515625 104.708984375 99.984375 118.827148438 123.879882812 c 0
 128.244140625 139.817382812 135.747070312 159.3515625 141.08984375 182.491210938 c 2
 166.639648438 293.161132812 l 1
 340.040039062 293.161132812 l 1
 355.346679688 359.4609375 l 1
 181.946289062 359.4609375 l 1
 218.328125 517.05078125 l 2
 226.22265625 551.244140625 250.65234375 632.821289062 346.546875 632.821289062 c 0
 405.931640625 632.821289062 439.49609375 608.6484375 427.153320312 543.060546875 c 1
 500.6484375 543.060546875 l 1
 507.763671875 578.092773438 527.700195312 699.12109375 362.873046875 699.12109375 c 0
 317.176757812 699.12109375 181.178710938 691.9140625 137.982421875 504.810546875 c 2
 104.42578125 359.4609375 l 1
 27.92578125 359.4609375 l 1
 12.619140625 293.161132812 l 1
 89.119140625 293.161132812 l 1
 61.2138671875 172.291015625 l 2
EndSplineSet
EndChar

StartChar: currency
Encoding: 164 164 102
Width: 606
GlyphClass: 2
Flags: MW
HStem: 126.901 59.1592<237.733 263.387> 458.401 59.1592<313.145 338.787>
VStem: 101.837 62.2207 430.277 63.2393
LayerCount: 2
Fore
SplineSet
484.450195312 322.231445312 m 0
 493.6875 362.2421875 490.958007812 398.384765625 476.237304688 431.157226562 c 2
 473.890625 436.3828125 l 1
 559.372070312 505.831054688 l 1
 524.483398438 551.192382812 l 1
 438.263671875 482.779296875 l 1
 423.484375 494.424804688 394.120117188 517.560546875 333.196289062 517.560546875 c 0
 293.09375 517.560546875 254.4609375 507.104492188 216.833984375 486.123046875 c 2
 210.940429688 482.836914062 l 1
 157.391601562 551.153320312 l 1
 101.557617188 505.791992188 l 1
 154.801757812 435.256835938 l 1
 138.6171875 417.91015625 107.048828125 384.075195312 92.7705078125 322.231445312 c 0
 83.6748046875 282.833007812 85.8349609375 246.951171875 99.255859375 214.146484375 c 2
 101.372070312 208.973632812 l 1
 17.2412109375 140.622070312 l 1
 51.9853515625 94.376953125 l 1
 137.147460938 162.749023438 l 1
 152.153320312 150.782226562 182.1015625 126.901367188 243.005859375 126.901367188 c 0
 283.768554688 126.901367188 322.40234375 137.677734375 359.4296875 159.259765625 c 2
 365.416015625 162.748046875 l 1
 419.79296875 93.3564453125 l 1
 475.889648438 139.6015625 l 1
 422.453125 209.077148438 l 1
 438.573242188 226.90234375 470.625 262.345703125 484.450195312 322.231445312 c 0
256.663085938 186.060546875 m 0
 218.803710938 186.060546875 189.68359375 199.1328125 170.43359375 225.099609375 c 0
 151.19921875 251.045898438 146.116210938 283.787109375 154.991210938 322.231445312 c 0
 163.8671875 360.674804688 184.067382812 393.416015625 215.282226562 419.362304688 c 0
 246.522460938 445.329101562 281.678710938 458.401367188 319.538085938 458.401367188 c 0
 358.036132812 458.401367188 387.37109375 445.35546875 406.309570312 419.322265625 c 0
 425.189453125 393.369140625 430.080078125 360.645507812 421.2109375 322.231445312 c 0
 412.342773438 283.81640625 392.342773438 251.092773438 361.478515625 225.139648438 c 0
 330.520507812 199.106445312 295.161132812 186.060546875 256.663085938 186.060546875 c 0
EndSplineSet
EndChar

StartChar: yen
Encoding: 165 165 103
Width: 530
GlyphClass: 2
Flags: W
LayerCount: 2
Fore
SplineSet
172.509765625 146.280273438 m 1
 138.834960938 0.419921875 l 1
 216.354492188 0.419921875 l 1
 250.029296875 146.280273438 l 1
 417.309570312 146.280273438 l 1
 429.319335938 198.299804688 l 1
 262.0390625 198.299804688 l 1
 280.170898438 276.83984375 l 1
 447.451171875 276.83984375 l 1
 459.697265625 329.879882812 l 1
 308.6640625 329.879882812 l 1
 585.354492188 688.919921875 l 1
 500.899414062 688.919921875 l 1
 261.711914062 362.373046875 l 1
 171.203125 688.919921875 l 1
 86.7529296875 688.919921875 l 1
 198.682617188 329.879882812 l 1
 48.63671875 329.879882812 l 1
 36.390625 276.83984375 l 1
 202.651367188 276.83984375 l 1
 184.51953125 198.299804688 l 1
 18.2587890625 198.299804688 l 1
 6.2490234375 146.280273438 l 1
 172.509765625 146.280273438 l 1
EndSplineSet
EndChar

StartChar: brokenbar
Encoding: 166 166 104
Width: 283
GlyphClass: 2
Flags: MW
VStem: 102.857 68.3398
LayerCount: 2
Fore
SplineSet
255.030273438 724.620117188 m 1
 186.690429688 724.620117188 l 1
 107.331054688 380.879882812 l 1
 175.670898438 380.879882812 l 1
 255.030273438 724.620117188 l 1
151.416015625 275.8203125 m 1
 83.076171875 275.8203125 l 1
 3.482421875 -68.9404296875 l 1
 71.822265625 -68.9404296875 l 1
 151.416015625 275.8203125 l 1
EndSplineSet
EndChar

StartChar: section
Encoding: 167 167 105
Width: 558
GlyphClass: 2
Flags: MW
HStem: -170.94 61.1982<145.056 178.083> 652.201 61.2002<330.393 360.193>
VStem: 70.2168 72.4189 85.6309 68.4102 95.7178 72.4189 386.417 72.4199 405.796 72.4209
LayerCount: 2
Fore
SplineSet
-1.4990234375 -15.90234375 m 1xd4
 -20.71484375 -111.711914062 25.9658203125 -170.940429688 148.743164062 -170.940429688 c 0
 207.421875 -170.940429688 256.140625 -157.282226562 295.544921875 -130.782226562 c 0
 334.731445312 -104.428710938 359.624023438 -68.236328125 370.647460938 -20.490234375 c 0xd4
 383.325195312 34.421875 373.4765625 79.275390625 314.002929688 107.098632812 c 2
 296.98046875 115.0625 l 1
 317.904296875 121.422851562 l 2
 366.100585938 136.073242188 435.12109375 174.833007812 458.7890625 277.348632812 c 0
 471.34765625 331.74609375 465.395507812 370.903320312 442.473632812 396.583984375 c 0
 418.756835938 423.155273438 385.75 441.814453125 343.026367188 452.458984375 c 0
 249.091796875 472.944335938 198.883789062 494.680664062 215.116210938 564.991210938 c 0
 222.291992188 596.071289062 248.458984375 652.201171875 343.879882812 652.201171875 c 0
 376.506835938 652.201171875 449.7578125 646.96875 435.119140625 564.481445312 c 1
 503.537109375 564.481445312 l 1
 510.375976562 598.920898438 526.541015625 713.401367188 359.030273438 713.401367188 c 0
 301.755859375 713.401367188 254.267578125 699.608398438 215.826171875 672.83203125 c 0
 177.440429688 646.096679688 153.2421875 610.6640625 142.697265625 564.991210938 c 0xca
 124.100585938 484.439453125 165.393554688 456.015625 197.173828125 441.504882812 c 2
 214.064453125 433.79296875 l 1
 193.452148438 427.198242188 l 2
 139.560546875 409.956054688 71.8857421875 368.727539062 49.140625 270.209960938 c 0xe0
 27.7333984375 177.484375 65.5517578125 119.723632812 166.940429688 95.0986328125 c 0
 219.020507812 83.4580078125 255.5390625 70.5224609375 276.87890625 55.408203125 c 0
 299.142578125 39.640625 306.155273438 13.8466796875 298.462890625 -19.470703125 c 0
 289.21875 -59.5107421875 258.5546875 -109.7421875 162.87109375 -109.7421875 c 0
 127.241210938 -109.7421875 50.9912109375 -103.59765625 66.9111328125 -15.90234375 c 1
 -1.4990234375 -15.90234375 l 1xd4
385.42578125 273.266601562 m 0xe2
 375.87109375 231.883789062 342.600585938 155.458007812 227.157226562 155.458007812 c 0
 172.201171875 155.458007812 99.1796875 173.26953125 122.265625 273.266601562 c 0
 137.58984375 339.642578125 185.3671875 392.096679688 281.7890625 392.096679688 c 0
 330.696289062 392.096679688 409.306640625 376.705078125 385.42578125 273.266601562 c 0xe2
EndSplineSet
EndChar

StartChar: dieresis
Encoding: 168 168 106
Width: 498
GlyphClass: 2
Flags: MW
HStem: 593.04 81.5996<171.071 223.632 223.632 223.632 390.371 441.912 441.912 441.912>
LayerCount: 2
Fore
SplineSet
242.470703125 674.639648438 m 1
 171.071289062 674.639648438 l 1
 152.232421875 593.040039062 l 1
 223.631835938 593.040039062 l 1
 242.470703125 674.639648438 l 1
460.750976562 674.639648438 m 1
 390.37109375 674.639648438 l 1
 371.532226562 593.040039062 l 1
 441.912109375 593.040039062 l 1
 460.750976562 674.639648438 l 1
EndSplineSet
EndChar

StartChar: copyright
Encoding: 169 169 107
Width: 806
GlyphClass: 2
Flags: MW
HStem: -8.75977 44.8799<238.78 414.412> 151.381 42.8398<336.539 378.96> 489.001 43.8604<416.681 448.867> 644.041 45.8994<375.06 556.917>
VStem: 58.9971 49.9795 235.458 53.04 505.698 51.0215 690.378 49.9795
LayerCount: 2
Fore
SplineSet
54.169921875 340.58984375 m 0
 5.365234375 129.196289062 111.995117188 -8.759765625 314.705078125 -8.759765625 c 0
 514.118164062 -8.759765625 686.016601562 126.125 735.530273438 340.58984375 c 0
 783.674804688 549.126953125 680.663085938 689.940429688 476.012695312 689.940429688 c 0
 273.310546875 689.940429688 102.975585938 551.9921875 54.169921875 340.58984375 c 0
685.55078125 340.590820312 m 0
 644.01953125 160.69921875 505.649414062 36.1201171875 325.06640625 36.1201171875 c 0
 152.493164062 36.1201171875 60.337890625 150.823242188 104.149414062 340.590820312 c 0
 146.05859375 522.122070312 284.704101562 644.041015625 465.416015625 644.041015625 c 0
 648.418945312 644.041015625 726.680664062 518.743164062 685.55078125 340.590820312 c 0
366.668945312 194.220703125 m 0
 306.409179688 194.220703125 256.146484375 221.372070312 279.666992188 323.250976562 c 2
 288.380859375 360.991210938 l 2
 298.045898438 402.858398438 315.078125 435.301757812 340.702148438 457.033203125 c 0
 366.145507812 478.610351562 397.586914062 489.000976562 433.703125 489.000976562 c 0
 464.03125 489.000976562 487.2578125 482.31640625 502.391601562 468.01953125 c 0
 516.7890625 454.418945312 521.587890625 435.068359375 517.1953125 411.481445312 c 1
 569.278320312 411.481445312 l 1
 577.049804688 448.633789062 570.194335938 477.291992188 548.94140625 498.903320312 c 0
 526.961914062 521.252929688 491.955078125 532.861328125 442.809570312 532.861328125 c 0
 390.551757812 532.861328125 346.66015625 518.098632812 310.018554688 489.114257812 c 0
 273.59375 460.301757812 248.678710938 418.763671875 235.811523438 363.03125 c 2
 226.15625 321.2109375 l 2
 213.125976562 264.770507812 218.850585938 223.08984375 242.00390625 194.647460938 c 0
 265.333007812 165.990234375 302.4609375 151.380859375 354.73828125 151.380859375 c 0
 403.181640625 151.380859375 443.204101562 162.970703125 475.530273438 185.338867188 c 0
 506.760742188 206.950195312 526.849609375 235.608398438 536.232421875 272.760742188 c 1
 485.2109375 272.760742188 l 1
 472.827148438 225.969726562 431.815429688 194.220703125 366.668945312 194.220703125 c 0
EndSplineSet
EndChar

StartChar: ordfeminine
Encoding: 170 170 108
Width: 377
GlyphClass: 2
Flags: MW
HStem: 434.941 43.8594<172.749 188.924> 577.741 34.6797<220.61 307.821 307.821 307.821> 707.28 40.7998<248.497 270.79>
VStem: 40.6367 55.0801 50.9814 52.2158 257.898 57.1182
LayerCount: 2
Fore
SplineSet
78.4326171875 525.2109375 m 0xf4
 71.005859375 493.04296875 71.046875 434.94140625 168.26171875 434.94140625 c 0
 209.5859375 434.94140625 244.116210938 446.93359375 273.048828125 470.439453125 c 2
 289.122070312 483.498046875 l 1
 278.853515625 439.020507812 l 1
 332.913085938 439.020507812 l 1
 378.715820312 637.41015625 l 2
 391.072265625 690.934570312 382.7265625 748.080078125 270.135742188 748.080078125 c 0
 226.858398438 748.080078125 192.581054688 739.676757812 167.016601562 724.000976562 c 0
 143.288085938 709.450195312 128.172851562 690.083984375 120.920898438 664.440429688 c 1
 173.13671875 664.440429688 l 1xec
 178.622070312 679.9296875 196.908203125 707.280273438 257.65625 707.280273438 c 0
 283.922851562 707.280273438 336.721679688 702.930664062 322.537109375 641.491210938 c 2
 315.826171875 612.420898438 l 1
 218.416992188 612.420898438 l 2
 152.889648438 612.420898438 93.9013671875 592.21484375 78.4326171875 525.2109375 c 0xf4
302.758789062 555.810546875 m 2
 287.560546875 489.98046875 237.139648438 478.80078125 194.708007812 478.80078125 c 0
 150.7890625 478.80078125 126.372070312 494.28515625 134.21875 528.270507812 c 0xf4
 145.418945312 576.78515625 200.346679688 577.741210938 220.610351562 577.741210938 c 2
 307.821289062 577.741210938 l 1
 302.758789062 555.810546875 l 2
77 706.770507812 m 1024
EndSplineSet
EndChar

StartChar: guillemotleft
Encoding: 171 171 109
Width: 551
GlyphClass: 2
Flags: W
LayerCount: 2
Fore
SplineSet
264.004882812 454.231445312 m 1
 1.2060546875 262.049804688 l 1
 175.267578125 69.8681640625 l 1
 191.983398438 142.270507812 l 1
 80.9453125 262.049804688 l 1
 247.290039062 381.829101562 l 1
 264.004882812 454.231445312 l 1
497.584960938 454.231445312 m 1
 234.786132812 262.049804688 l 1
 408.84765625 69.8681640625 l 1
 425.563476562 142.270507812 l 1
 314.525390625 262.049804688 l 1
 480.870117188 381.829101562 l 1
 497.584960938 454.231445312 l 1
EndSplineSet
EndChar

StartChar: logicalnot
Encoding: 172 172 110
Width: 507
GlyphClass: 2
Flags: MW
HStem: 132 197.88<321.192 393.612 393.612 393.612>
LayerCount: 2
Fore
SplineSet
352.276367188 266.639648438 m 1
 321.192382812 132 l 1
 393.612304688 132 l 1
 439.296875 329.879882812 l 1
 43.537109375 329.879882812 l 1
 28.9365234375 266.639648438 l 1
 352.276367188 266.639648438 l 1
EndSplineSet
EndChar

StartChar: uni00AD
Encoding: 173 173 111
Width: 418
GlyphClass: 2
Flags: MW
HStem: 312.54 67.3203<54.0557 347.573 347.573 347.573>
VStem: 49.8174 309.06
LayerCount: 2
Fore
SplineSet
363.115234375 379.860351562 m 1
 54.0556640625 379.860351562 l 1
 38.513671875 312.540039062 l 1
 347.573242188 312.540039062 l 1
 363.115234375 379.860351562 l 1
EndSplineSet
EndChar

StartChar: registered
Encoding: 174 174 112
Width: 517
GlyphClass: 2
Flags: MW
HStem: 313.56 19.3809<223.061 270.366 223.061 294.705> 582.841 21.4199<307.908 313.588 313.588 321.327> 669.54 19.3799<300.771 347.753>
VStem: 70.2168 22.4395 303.797 25.5 415.997 21.4199
LayerCount: 2
Fore
SplineSet
102.595703125 501.75 m 0
 77.3125 392.234375 135.877929688 313.559570312 242.23828125 313.559570312 c 0
 347.170898438 313.559570312 443.979492188 389.927734375 469.795898438 501.75 c 0
 493.930664062 606.287109375 437.852539062 688.919921875 328.897460938 688.919921875 c 0
 225.344726562 688.919921875 128.057617188 612.036132812 102.595703125 501.75 c 0
246.712890625 332.940429688 m 0
 199.409179688 332.940429688 163.859375 348.684570312 141.392578125 380.223632812 c 0
 118.958007812 411.717773438 113.689453125 452.603515625 125.03515625 501.75 c 0
 136.231445312 550.245117188 160.321289062 590.78515625 197.270507812 622.256835938 c 0
 234.299804688 653.795898438 277.119140625 669.540039062 324.422851562 669.540039062 c 0
 371.083007812 669.540039062 406.724609375 653.780273438 430.1796875 622.35546875 c 0
 453.658203125 590.901367188 459.587890625 550.311523438 448.375976562 501.75 c 0
 437.01953125 452.559570312 412.483398438 411.639648438 374.806640625 380.157226562 c 0
 337.133789062 348.678710938 294.01953125 332.940429688 246.712890625 332.940429688 c 0
372.037109375 546.630859375 m 0
 374.834960938 558.748046875 384.625 604.260742188 320.573242188 604.260742188 c 0
 295.243164062 604.260742188 269.912109375 604.259765625 244.58203125 604.259765625 c 1
 197.720703125 401.280273438 l 1
 224.240234375 401.280273438 l 1
 244.4921875 489 l 1
 286.822265625 489 l 1
 291.702148438 489 l 1
 312.25 401.280273438 l 1
 339.2734375 401.280273438 l 1
 318.725585938 490.361328125 l 1
 338.94140625 498.309570312 363.072265625 507.797851562 372.037109375 546.630859375 c 0
346.537109375 546.630859375 m 0
 343.305664062 532.631835938 332.534179688 509.401367188 296.6328125 509.401367188 c 2
 249.202148438 509.401367188 l 1
 266.157226562 582.840820312 l 1
 313.587890625 582.840820312 l 2
 329.06640625 582.840820312 353.80859375 578.123046875 346.537109375 546.630859375 c 0
EndSplineSet
EndChar

StartChar: macron
Encoding: 175 175 113
Width: 498
GlyphClass: 2
Flags: MW
HStem: 602.22 63.2402<166.912 448.111 448.111 448.111>
VStem: 96.7373 295.8
LayerCount: 2
Fore
SplineSet
462.711914062 665.459960938 m 1
 166.912109375 665.459960938 l 1
 152.311523438 602.219726562 l 1
 448.111328125 602.219726562 l 1
 462.711914062 665.459960938 l 1
EndSplineSet
EndChar

StartChar: degree
Encoding: 176 176 114
Width: 397
GlyphClass: 2
Flags: MW
HStem: 427.8 42.8398<193.052 246.555 193.052 249.697> 658.32 40.7998<253.245 289.444>
VStem: 58.9961 44.8809 285.437 44.8809
LayerCount: 2
Fore
SplineSet
210.474609375 427.799804688 m 0
 288.918945312 427.799804688 359.647460938 488.54296875 377.061523438 563.969726562 c 0
 386.063476562 602.962890625 380.452148438 634.768554688 360.318359375 660.528320312 c 0
 340.147460938 686.334960938 311.4140625 699.120117188 273.112304688 699.120117188 c 0
 233.377929688 699.120117188 198.26171875 686.286132812 166.598632812 660.561523438 c 0
 134.901367188 634.810546875 114.748046875 602.989257812 105.740234375 563.969726562 c 0
 96.7314453125 524.952148438 102.15234375 492.9375 121.907226562 466.833984375 c 0
 141.625 440.780273438 170.765625 427.799804688 210.474609375 427.799804688 c 0
332.180664062 563.969726562 m 0
 319.880859375 510.697265625 272.747070312 470.639648438 220.36328125 470.639648438 c 0
 165.741210938 470.639648438 138.538085938 511.6328125 150.62109375 563.969726562 c 0
 163.223632812 618.557617188 209.948242188 658.3203125 263.693359375 658.3203125 c 0
 315.1953125 658.3203125 345 619.499023438 332.180664062 563.969726562 c 0
EndSplineSet
EndChar

StartChar: plusminus
Encoding: 177 177 115
Width: 507
GlyphClass: 2
Flags: W
LayerCount: 2
Fore
SplineSet
197.630859375 286.01953125 m 1
 159.717773438 121.799804688 l 1
 227.038085938 121.799804688 l 1
 264.951171875 286.01953125 l 1
 429.170898438 286.01953125 l 1
 444.712890625 353.33984375 l 1
 280.493164062 353.33984375 l 1
 318.40625 517.559570312 l 1
 251.0859375 517.559570312 l 1
 213.172851562 353.33984375 l 1
 48.953125 353.33984375 l 1
 33.4111328125 286.01953125 l 1
 197.630859375 286.01953125 l 1
376.186523438 56.51953125 m 1
 -19.5732421875 56.51953125 l 1
 -35.115234375 -10.7998046875 l 1
 360.64453125 -10.7998046875 l 1
 376.186523438 56.51953125 l 1
EndSplineSet
EndChar

StartChar: uni00B2
Encoding: 178 178 116
Width: 370
GlyphClass: 2
Flags: MW
HStem: 806.221 49.9795<273.249 294.706>
VStem: 44.7168 61.2012 249.737 64.2588
LayerCount: 2
Fore
SplineSet
281.518554688 806.220703125 m 0
 307.893554688 806.220703125 350.48046875 797.865234375 337.456054688 741.451171875 c 2
 336.04296875 735.331054688 l 2
 329.956054688 708.965820312 314.013671875 686.698242188 276.909179688 656.541992188 c 2
 78.34765625 489.499023438 l 1
 66.693359375 439.01953125 l 1
 333.93359375 439.01953125 l 1
 346.178710938 492.059570312 l 1
 163.778320312 492.059570312 l 1
 214.236328125 535.19921875 263.884765625 579.37109375 315.1484375 621.484375 c 0
 370.418945312 666.889648438 391.694335938 698.048828125 400.537109375 736.349609375 c 2
 402.420898438 744.509765625 l 2
 418.18359375 812.786132812 381.059570312 856.200195312 295.096679688 856.200195312 c 0
 251.400390625 856.200195312 215.763671875 845.7890625 187.438476562 825.860351562 c 0
 159.243164062 806.0234375 141.052734375 778.776367188 132.670898438 742.469726562 c 2
 132.317382812 740.940429688 l 1
 193.518554688 740.940429688 l 1
 198.856445312 763.564453125 217.41796875 806.220703125 281.518554688 806.220703125 c 0
EndSplineSet
EndChar

StartChar: uni00B3
Encoding: 179 179 117
Width: 368
GlyphClass: 2
Flags: MW
HStem: 432.9 48.958<185.633 215.127> 625.678 51<225.601 230.656 230.656 242.431 225.601 245.64> 806.218 49.9805<269.834 292.782>
VStem: 43.6963 55.0938 245.656 61.2012 252.796 61.2012
LayerCount: 2
Fore
SplineSet
203.573242188 481.858398438 m 0xf4
 167.692382812 481.858398438 129.966796875 492.688476562 140.234375 541.017578125 c 1
 85.140625 541.017578125 l 1
 85.0234375 540.5078125 l 2
 76.9521484375 505.546875 82.3818359375 479.71484375 100.641601562 461.259765625 c 0
 118.995117188 442.7109375 149.498046875 432.900390625 193.291015625 432.900390625 c 0
 236.962890625 432.900390625 272.799804688 443.4609375 301.568359375 463.744140625 c 0
 330.220703125 483.944335938 348.598632812 511.375 356.97265625 547.649414062 c 2
 359.091796875 556.829101562 l 2xf4
 370.111328125 604.556640625 356.973632812 634.369140625 319.215820312 649.610351562 c 2
 302.790039062 656.240234375 l 1
 322.119140625 663.817382812 l 2
 362.779296875 679.7578125 386.430664062 706.170898438 395.517578125 745.529296875 c 2
 397.401367188 753.689453125 l 2
 412.012695312 816.978515625 374.981445312 856.198242188 291.015625 856.198242188 c 0
 248.65234375 856.198242188 214.3046875 846.274414062 187.252929688 827.369140625 c 0
 160.4765625 808.655273438 143.107421875 782.780273438 134.984375 748.078125 c 1
 190.065429688 748.078125 l 1
 194.2578125 765.716796875 211.004882812 806.217773438 276.416992188 806.217773438 c 0
 309.147460938 806.217773438 345.90625 795.732421875 334.31640625 745.528320312 c 2
 332.66796875 738.387695312 l 2xf8
 326.08984375 709.8984375 305.004882812 676.677734375 242.430664062 676.677734375 c 2
 225.600585938 676.677734375 l 1
 213.826171875 625.677734375 l 1
 230.65625 625.677734375 l 2
 260.623046875 625.677734375 312.48046875 620.022460938 297.655273438 555.807617188 c 2
 295.771484375 547.6484375 l 2
 288.732421875 517.157226562 266.90625 481.858398438 203.573242188 481.858398438 c 0xf4
EndSplineSet
EndChar

StartChar: acute
Encoding: 180 180 118
Width: 498
GlyphClass: 2
Flags: MW
HStem: 588.96 115.26<220.38 429.525 281.352 429.525>
LayerCount: 2
Fore
SplineSet
429.525390625 704.219726562 m 1
 345.141601562 704.219726562 l 1
 220.379882812 588.959960938 l 1
 281.3515625 588.959960938 l 1
 429.525390625 704.219726562 l 1
EndSplineSet
EndChar

StartChar: uni00B5
Encoding: 181 181 119
Width: 570
GlyphClass: 2
Flags: MW
HStem: -5.7002 61.1992<166.472 212.076>
VStem: 65.1172 71.3994 423.137 72.4199
LayerCount: 2
Fore
SplineSet
206.120117188 55.4990234375 m 0
 126.823242188 55.4990234375 75.669921875 97.943359375 98.25 195.749023438 c 2
 170.190429688 507.359375 l 1
 146.390625 507.359375 122.591796875 507.360351562 98.7919921875 507.360351562 c 1
 -54.2744140625 -155.639648438 l 1
 17.125 -155.639648438 l 1
 63.34765625 44.5712890625 l 1
 73.4130859375 31.9072265625 l 2
 93.021484375 7.2353515625 127.922851562 -5.7001953125 179.751953125 -5.7001953125 c 0
 244.399414062 -5.7001953125 298.08203125 17.6767578125 342.767578125 64.5625 c 2
 361.052734375 83.7470703125 l 1
 341.814453125 0.419921875 l 1
 412.194335938 0.419921875 l 1
 529.231445312 507.360351562 l 1
 456.811523438 507.360351562 l 1
 388.873046875 213.08984375 l 2
 377.588867188 164.2109375 355.956054688 125.174804688 323.3359375 97.1962890625 c 0
 290.716796875 69.2197265625 251.19140625 55.4990234375 206.120117188 55.4990234375 c 0
EndSplineSet
EndChar

StartChar: paragraph
Encoding: 182 182 120
Width: 682
GlyphClass: 2
Flags: MW
VStem: 70.2158 324.361
LayerCount: 2
Fore
SplineSet
308.260742188 274.798828125 m 1
 208.885742188 -155.639648438 l 1
 275.185546875 -155.639648438 l 1
 455.803710938 626.700195312 l 1
 560.86328125 626.700195312 l 1
 380.245117188 -155.639648438 l 1
 446.544921875 -155.639648438 l 1
 641.52734375 688.919921875 l 1
 379.897460938 688.919921875 l 2
 304.954101562 688.919921875 243.419921875 670.545898438 194.4453125 634.725585938 c 0
 145.611328125 599.0078125 113.372070312 548.430664062 97.884765625 481.349609375 c 0
 82.5791015625 415.053710938 92.3037109375 364.86328125 126.3203125 329.090820312 c 0
 160.384765625 293.26953125 217.390625 274.798828125 298.569335938 274.798828125 c 2
 308.260742188 274.798828125 l 1
EndSplineSet
EndChar

StartChar: periodcentered
Encoding: 183 183 121
Width: 191
GlyphClass: 2
Flags: MW
HStem: 223.8 93.8398<35.6113 102.686 102.686 102.686>
VStem: 45.7373 88.7393
LayerCount: 2
Fore
SplineSet
124.350585938 317.639648438 m 1
 35.611328125 317.639648438 l 1
 13.9462890625 223.799804688 l 1
 102.685546875 223.799804688 l 1
 124.350585938 317.639648438 l 1
EndSplineSet
EndChar

StartChar: cedilla
Encoding: 184 184 122
Width: 498
GlyphClass: 2
Flags: MW
HStem: -154.62 151.98<47.793 219.744 117.934 219.744>
LayerCount: 2
Fore
SplineSet
219.744140625 -2.6396484375 m 1
 161.650390625 -2.6396484375 l 1
 47.79296875 -154.620117188 l 1
 117.93359375 -154.620117188 l 1
 219.744140625 -2.6396484375 l 1
EndSplineSet
EndChar

StartChar: uni00B9
Encoding: 185 185 123
Width: 258
GlyphClass: 2
Flags: MW
VStem: 36.5566 150.96
LayerCount: 2
Fore
SplineSet
221.928710938 788.895507812 m 1
 141.153320312 439.01953125 l 1
 205.413085938 439.01953125 l 1
 300.078125 849.059570312 l 1
 230.322265625 849.059570312 l 1
 137.649414062 799.381835938 l 1
 122.748046875 734.834960938 l 1
 221.928710938 788.895507812 l 1
EndSplineSet
EndChar

StartChar: ordmasculine
Encoding: 186 186 124
Width: 377
GlyphClass: 2
Flags: MW
HStem: 434.94 49.9795<195.33 218.409> 698.1 49.9814<261.711 270.711>
VStem: 43.6973 57.1201 267.077 58.1396
LayerCount: 2
Fore
SplineSet
273.196289062 748.081054688 m 0
 250.2265625 748.081054688 132.758789062 747.26953125 101.038085938 609.87109375 c 2
 92.7958984375 574.170898438 l 2
 82.1181640625 527.920898438 86.72265625 493.856445312 105.309570312 470.510742188 c 0
 123.962890625 447.080078125 155.325195312 434.940429688 200.90234375 434.940429688 c 0
 235.916015625 434.940429688 343.676757812 441.458984375 374.315429688 574.170898438 c 2
 382.557617188 609.87109375 l 2
 393.061523438 655.3671875 388.09765625 689.052734375 368.845703125 712.44140625 c 0
 349.478515625 735.967773438 318.056640625 748.081054688 273.196289062 748.081054688 c 0
316.17578125 574.169921875 m 2
 307.693359375 537.428710938 283.193359375 484.919921875 212.440429688 484.919921875 c 0
 178.21875 484.919921875 132.37890625 498.20703125 149.916015625 574.169921875 c 2
 158.158203125 609.870117188 l 2
 165.907226562 643.434570312 189.58984375 698.099609375 261.657226562 698.099609375 c 0
 279.765625 698.099609375 344.182617188 695.479492188 324.41796875 609.870117188 c 2
 316.17578125 574.169921875 l 2
73.9384765625 706.76953125 m 1024
EndSplineSet
EndChar

StartChar: guillemotright
Encoding: 187 187 125
Width: 551
GlyphClass: 2
Flags: W
LayerCount: 2
Fore
SplineSet
69.810546875 381.829101562 m 1
 180.848632812 262.049804688 l 1
 14.50390625 142.270507812 l 1
 -2.22265625 69.8203125 l 1
 261.580078125 262.049804688 l 1
 86.537109375 454.279296875 l 1
 69.810546875 381.829101562 l 1
303.390625 381.829101562 m 1
 414.428710938 262.049804688 l 1
 248.083984375 142.270507812 l 1
 231.357421875 69.8203125 l 1
 495.16015625 262.049804688 l 1
 320.1171875 454.279296875 l 1
 303.390625 381.829101562 l 1
EndSplineSet
EndChar

StartChar: onequarter
Encoding: 188 188 126
Width: 809
GlyphClass: 3
Flags: W
LayerCount: 2
Fore
SplineSet
112.383789062 0.419921875 m 1
 652.002929688 690.959960938 l 1
 593.995117188 690.959960938 l 1
 55.373046875 0.419921875 l 1
 112.383789062 0.419921875 l 1
174.501953125 627.650390625 m 1
 93.982421875 278.879882812 l 1
 158.243164062 278.879882812 l 1
 252.908203125 688.919921875 l 1
 183.130859375 688.919921875 l 1
 89.4521484375 639.215820312 l 1
 74.3017578125 573.590820312 l 1
 174.501953125 627.650390625 l 1
641.694335938 0.419921875 m 1
 658.178710938 71.8203125 l 1
 699.999023438 71.8203125 l 1
 712.244140625 124.860351562 l 1
 670.423828125 124.860351562 l 1
 692.794921875 221.759765625 l 1
 628.53515625 221.759765625 l 1
 606.1640625 124.860351562 l 1
 469.934570312 124.860351562 l 1
 676.629882812 410.459960938 l 1
 614.11328125 410.459960938 l 1
 410.655273438 130.713867188 l 1
 397.05859375 71.8203125 l 1
 593.918945312 71.8203125 l 1
 577.434570312 0.419921875 l 1
 641.694335938 0.419921875 l 1
EndSplineSet
Ligature2: "'frac' Diagonal Fractions lookup 2 subtable" one slash four
EndChar

StartChar: onehalf
Encoding: 189 189 127
Width: 820
GlyphClass: 3
Flags: MW
HStem: 367.62 49.9795<622.83 644.287>
VStem: 495.557 61.2012 700.577 64.2588
LayerCount: 2
Fore
SplineSet
646.903320312 690.959960938 m 1
 588.895507812 690.959960938 l 1
 50.2734375 0.419921875 l 1
 107.283203125 0.419921875 l 1
 646.903320312 690.959960938 l 1
174.501953125 627.650390625 m 1
 93.982421875 278.879882812 l 1
 158.243164062 278.879882812 l 1
 252.908203125 688.919921875 l 1
 183.130859375 688.919921875 l 1
 89.4521484375 639.215820312 l 1
 74.3017578125 573.590820312 l 1
 174.501953125 627.650390625 l 1
631.099609375 367.620117188 m 0
 657.474609375 367.620117188 700.060546875 359.263671875 687.036132812 302.849609375 c 2
 685.624023438 296.73046875 l 2
 679.537109375 270.365234375 663.594726562 248.09765625 626.491210938 217.940429688 c 2
 427.928710938 50.8994140625 l 1
 416.274414062 0.419921875 l 1
 683.514648438 0.419921875 l 1
 695.759765625 53.4599609375 l 1
 513.359375 53.4599609375 l 1
 563.817382812 96.599609375 613.465820312 140.76953125 664.728515625 182.883789062 c 0
 720.048828125 228.331054688 741.284179688 259.486328125 750.118164062 297.75 c 2
 752.001953125 305.91015625 l 2
 767.764648438 374.186523438 730.641601562 417.599609375 644.677734375 417.599609375 c 0
 600.981445312 417.599609375 565.345703125 407.188476562 537.020507812 387.259765625 c 0
 508.82421875 367.422851562 490.633789062 340.176757812 482.251953125 303.870117188 c 2
 481.8984375 302.33984375 l 1
 543.099609375 302.33984375 l 1
 548.435546875 324.959960938 566.997070312 367.620117188 631.099609375 367.620117188 c 0
EndSplineSet
Ligature2: "'frac' Diagonal Fractions lookup 2 subtable" one slash two
EndChar

StartChar: threequarters
Encoding: 190 190 128
Width: 914
GlyphClass: 3
Flags: MW
HStem: 271.74 49.9795<151.94 177.568> 465.54 49.9795<187.376 193.688 193.688 204.206 187.376 213.305> 646.08 49.9785<231.844 255.084>
VStem: 42.6787 55.0947 245.658 61.1992 252.798 60.1787
LayerCount: 2
Fore
SplineSet
46.9169921875 379.860351562 m 1xf4
 37.8203125 339.90625 39.3974609375 271.740234375 156.084960938 271.740234375 c 0
 199.05078125 271.740234375 234.54296875 282.279296875 263.341796875 302.583984375 c 0
 291.993164062 322.784179688 310.37109375 350.21484375 318.74609375 386.489257812 c 2
 320.865234375 395.668945312 l 2xf4
 332.235351562 444.918945312 319.346679688 474.9296875 282.301757812 489.447265625 c 2
 265.572265625 496.002929688 l 1
 285.1484375 503.677734375 l 2
 325.807617188 519.6171875 349.459960938 546.03125 358.545898438 585.388671875 c 2
 360.194335938 592.529296875 l 2
 367.763671875 625.3125 362.185546875 649.96875 343.79296875 668.168945312 c 0
 325.328125 686.44140625 295.432617188 696.05859375 253.026367188 696.05859375 c 0
 210.662109375 696.05859375 176.315429688 686.135742188 149.262695312 667.229492188 c 0
 122.486328125 648.516601562 105.1171875 622.640625 96.9951171875 587.939453125 c 1
 153.108398438 587.939453125 l 1
 159.517578125 613.642578125 180.194335938 646.080078125 238.427734375 646.080078125 c 0
 271.740234375 646.080078125 308.924804688 635.538085938 297.346679688 585.389648438 c 2
 295.69921875 578.25 l 2xf8
 288.991210938 549.196289062 267.551757812 515.51953125 204.206054688 515.51953125 c 2
 187.375976562 515.51953125 l 1
 175.837890625 465.540039062 l 1
 193.6875 465.540039062 l 2
 232.921875 465.540039062 273.87109375 452.778320312 260.686523438 395.669921875 c 2
 258.567382812 386.490234375 l 2
 251.619140625 356.396484375 229.703125 321.719726562 165.583007812 321.719726562 c 0
 138.297851562 321.719726562 91.2705078125 328.883789062 102.01171875 379.860351562 c 1
 46.9169921875 379.860351562 l 1xf4
217.443359375 0.419921875 m 1
 757.063476562 690.959960938 l 1
 699.055664062 690.959960938 l 1
 160.43359375 0.419921875 l 1
 217.443359375 0.419921875 l 1
746.754882812 0.419921875 m 1
 763.239257812 71.8203125 l 1
 805.05859375 71.8203125 l 1
 817.303710938 124.860351562 l 1
 775.484375 124.860351562 l 1
 797.85546875 221.759765625 l 1
 733.595703125 221.759765625 l 1
 711.224609375 124.860351562 l 1
 574.994140625 124.860351562 l 1
 781.689453125 410.459960938 l 1
 719.173828125 410.459960938 l 1
 515.715820312 130.713867188 l 1
 502.119140625 71.8203125 l 1
 698.979492188 71.8203125 l 1
 682.495117188 0.419921875 l 1
 746.754882812 0.419921875 l 1
EndSplineSet
Ligature2: "'frac' Diagonal Fractions lookup 2 subtable" three slash four
EndChar

StartChar: questiondown
Encoding: 191 191 129
Width: 482
GlyphClass: 2
Flags: MW
HStem: -165.84 66.2998<116.785 142.29>
VStem: 39.6182 76.499 206.898 74.46 367.908 73.3184
LayerCount: 2
Fore
SplineSet
321.151367188 507.360351562 m 1
 233.431640625 507.360351562 l 1
 212.47265625 416.580078125 l 1
 300.192382812 416.580078125 l 1
 321.151367188 507.360351562 l 1
33.34375 2.9697265625 m 0
 43.2587890625 45.9169921875 65.3828125 75.798828125 113.361328125 113.63671875 c 2
 113.361328125 113.63671875 182.6875 166.645507812 182.7265625 166.67578125 c 0
 209.431640625 187.291992188 227.99609375 206.388671875 238.838867188 223.576171875 c 0
 249.791992188 240.936523438 259.086914062 265.033203125 266.169921875 295.709960938 c 2
 272.173828125 321.719726562 l 1
 197.713867188 321.719726562 l 1
 192.651367188 299.790039062 l 2
 182.288085938 254.899414062 167.4453125 232.526367188 130.305664062 203.4765625 c 2
 49.484375 140.297851562 l 2
 2.6337890625 102.216796875 -29.9033203125 60.3681640625 -44.0966796875 -1.1103515625 c 0
 -56.07421875 -52.9873046875 -47.6123046875 -92.6328125 -19.1298828125 -121.688476562 c 0
 9.4248046875 -150.819335938 55.2001953125 -165.83984375 119.321289062 -165.83984375 c 0
 165.2578125 -165.83984375 312.766601562 -160.016601562 359.748046875 8.580078125 c 1
 286.4296875 8.580078125 l 1
 271.139648438 -47.9931640625 231.254882812 -99.5400390625 136.66796875 -99.5400390625 c 0
 96.90234375 -99.5400390625 67.376953125 -91.23046875 49.1923828125 -73.38671875 c 0
 30.91015625 -55.447265625 25.8740234375 -29.384765625 33.34375 2.9697265625 c 0
EndSplineSet
EndChar

StartChar: Agrave
Encoding: 192 192 130
Width: 667
GlyphClass: 2
Flags: W
LayerCount: 2
Fore
SplineSet
103.568359375 159.540039062 m 1
 458.68359375 159.540039062 l 1
 486.20703125 0.419921875 l 1
 567.465820312 0.419921875 l 1
 438.046875 688.919921875 l 1
 369.6953125 688.919921875 l 1
 -76.6318359375 0.419921875 l 1
 3.591796875 0.419921875 l 1
 103.568359375 159.540039062 l 1
447.80078125 222.780273438 m 1
 143.6796875 222.780273438 l 1
 383.505859375 602.931640625 l 1
 447.80078125 222.780273438 l 1
399.258789062 880.6796875 m 1
 312.1875 880.6796875 l 1
 410.7421875 765.419921875 l 1
 472.600585938 765.419921875 l 1
 399.258789062 880.6796875 l 1
EndSplineSet
EndChar

StartChar: Aacute
Encoding: 193 193 131
Width: 667
GlyphClass: 2
Flags: W
LayerCount: 2
Fore
SplineSet
103.568359375 159.540039062 m 1
 458.68359375 159.540039062 l 1
 486.20703125 0.419921875 l 1
 567.465820312 0.419921875 l 1
 438.046875 688.919921875 l 1
 369.6953125 688.919921875 l 1
 -76.6318359375 0.419921875 l 1
 3.591796875 0.419921875 l 1
 103.568359375 159.540039062 l 1
447.80078125 222.780273438 m 1
 143.6796875 222.780273438 l 1
 383.505859375 602.931640625 l 1
 447.80078125 222.780273438 l 1
563.690429688 880.6796875 m 1
 477.619140625 880.6796875 l 1
 350.15625 765.419921875 l 1
 411.915039062 765.419921875 l 1
 563.690429688 880.6796875 l 1
EndSplineSet
EndChar

StartChar: Acircumflex
Encoding: 194 194 132
Width: 667
GlyphClass: 2
Flags: W
LayerCount: 2
Fore
SplineSet
103.568359375 159.540039062 m 1
 458.68359375 159.540039062 l 1
 486.20703125 0.419921875 l 1
 567.465820312 0.419921875 l 1
 438.046875 688.919921875 l 1
 369.6953125 688.919921875 l 1
 -76.6318359375 0.419921875 l 1
 3.591796875 0.419921875 l 1
 103.568359375 159.540039062 l 1
447.80078125 222.780273438 m 1
 143.6796875 222.780273438 l 1
 383.505859375 602.931640625 l 1
 447.80078125 222.780273438 l 1
480.938476562 893.940429688 m 1
 421.462890625 893.940429688 l 1
 270.72265625 760.3203125 l 1
 331.859375 760.3203125 l 1
 442.918945312 855.715820312 l 1
 508.872070312 760.3203125 l 1
 569.982421875 760.3203125 l 1
 480.938476562 893.940429688 l 1
EndSplineSet
EndChar

StartChar: Atilde
Encoding: 195 195 133
Width: 667
GlyphClass: 2
Flags: MW
HStem: 763.38 56.1006<476.538 501.305> 802.14 56.1006<364.927 369.21>
LayerCount: 2
Fore
SplineSet
103.568359375 159.540039062 m 1x00
 458.68359375 159.540039062 l 1
 486.20703125 0.419921875 l 1
 567.465820312 0.419921875 l 1
 438.046875 688.919921875 l 1
 369.6953125 688.919921875 l 1
 -76.6318359375 0.419921875 l 1
 3.591796875 0.419921875 l 1
 103.568359375 159.540039062 l 1x00
447.80078125 222.780273438 m 1
 143.6796875 222.780273438 l 1
 383.505859375 602.931640625 l 1
 447.80078125 222.780273438 l 1
582.528320312 848.685546875 m 1
 553.848632812 828.325195312 533.6953125 819.48046875 504.896484375 819.48046875 c 0x80
 447.961914062 819.48046875 435.633789062 858.240234375 377.166992188 858.240234375 c 0
 352.6875 858.240234375 328.901367188 851.783203125 293.465820312 824.834960938 c 1
 281.384765625 772.502929688 l 1
 311.427734375 793.315429688 331.438476562 802.139648438 359.116210938 802.139648438 c 0x40
 379.3046875 802.139648438 388.791992188 799.33203125 421.220703125 783.045898438 c 0
 451.459960938 765.952148438 466.23046875 763.379882812 486.845703125 763.379882812 c 0x80
 515.763671875 763.379882812 543.23828125 773.890625 570.272460938 795.600585938 c 1
 582.528320312 848.685546875 l 1
EndSplineSet
EndChar

StartChar: Adieresis
Encoding: 196 196 134
Width: 667
GlyphClass: 2
Flags: W
LayerCount: 2
Fore
SplineSet
103.568359375 159.540039062 m 1
 458.68359375 159.540039062 l 1
 486.20703125 0.419921875 l 1
 567.465820312 0.419921875 l 1
 438.046875 688.919921875 l 1
 369.6953125 688.919921875 l 1
 -76.6318359375 0.419921875 l 1
 3.591796875 0.419921875 l 1
 103.568359375 159.540039062 l 1
447.80078125 222.780273438 m 1
 143.6796875 222.780273438 l 1
 383.505859375 602.931640625 l 1
 447.80078125 222.780273438 l 1
369.046875 856.200195312 m 1
 297.646484375 856.200195312 l 1
 278.807617188 774.599609375 l 1
 350.208007812 774.599609375 l 1
 369.046875 856.200195312 l 1
587.327148438 856.200195312 m 1
 516.947265625 856.200195312 l 1
 498.108398438 774.599609375 l 1
 568.48828125 774.599609375 l 1
 587.327148438 856.200195312 l 1
EndSplineSet
EndChar

StartChar: Aring
Encoding: 197 197 135
Width: 667
GlyphClass: 2
Flags: MW
HStem: 843.96 28.5596<433.702 457.112>
VStem: 240.557 29.5801 387.437 29.5801
LayerCount: 2
Fore
SplineSet
514.389648438 783.26953125 m 0
 520.420898438 809.39453125 516.848632812 830.330078125 503.856445312 847.221679688 c 0
 490.833984375 864.15234375 472.158203125 872.51953125 446.765625 872.51953125 c 0
 420.638671875 872.51953125 397.967773438 864.118164062 377.544921875 847.272460938 c 0
 357.080078125 830.392578125 343.969726562 809.432617188 337.9296875 783.26953125 c 0
 333.85546875 765.624023438 328.848632812 722.610351562 369.80078125 702.555664062 c 2
 375.975585938 699.532226562 l 1
 -76.640625 0.419921875 l 1
 3.591796875 0.419921875 l 1
 103.568359375 159.540039062 l 1
 458.68359375 159.540039062 l 1
 486.20703125 0.419921875 l 1
 567.474609375 0.419921875 l 1
 436.651367188 699.528320312 l 1
 452.764648438 705.96484375 470.063476562 712.873046875 488.985351562 733.956054688 c 0
 501.510742188 747.911132812 509.98046875 764.172851562 514.389648438 783.26953125 c 0
367.509765625 783.26953125 m 0
 375.841796875 819.358398438 406.291015625 843.959960938 440.171875 843.959960938 c 0
 474.052734375 843.959960938 493.141601562 819.357421875 484.809570312 783.26953125 c 0
 477.123046875 749.977539062 447.443359375 722.580078125 412.1484375 722.580078125 c 0
 376.852539062 722.580078125 359.82421875 749.979492188 367.509765625 783.26953125 c 0
447.80078125 222.780273438 m 1
 143.6796875 222.780273438 l 1
 383.505859375 602.931640625 l 1
 447.80078125 222.780273438 l 1
EndSplineSet
EndChar

StartChar: AE
Encoding: 198 198 136
Width: 1007
GlyphClass: 2
Flags: W
LayerCount: 2
Fore
SplineSet
624.965820312 621.599609375 m 1
 1017.66601562 621.599609375 l 1
 1033.20800781 688.919921875 l 1
 508.610351562 688.919921875 l 1
 -74.4189453125 0.419921875 l 1
 10.60546875 0.419921875 l 1
 148.478515625 164.639648438 l 1
 441.947265625 164.639648438 l 1
 404.034179688 0.419921875 l 1
 874.254882812 0.419921875 l 1
 889.796875 67.740234375 l 1
 497.096679688 67.740234375 l 1
 554.555664062 316.620117188 l 1
 891.155273438 316.620117188 l 1
 906.697265625 383.940429688 l 1
 570.09765625 383.940429688 l 1
 624.965820312 621.599609375 l 1
456.547851562 227.879882812 m 1
 201.702148438 227.879882812 l 1
 553.151367188 646.317382812 l 1
 456.547851562 227.879882812 l 1
EndSplineSet
EndChar

StartChar: Ccedilla
Encoding: 199 199 137
Width: 681
GlyphClass: 2
Flags: MW
HStem: -8.76562 68.3457<245.64 245.64> 630.78 68.3398<379.544 439.058>
VStem: 58.9961 77.5195 537.345 76.5205
LayerCount: 2
Fore
SplineSet
501.55078125 206.459960938 m 1
 488.119140625 152.34375 441.340820312 59.580078125 278.461914062 59.580078125 c 0
 107.514648438 59.580078125 92.4853515625 170.786132812 120.620117188 292.650390625 c 2
 143.461914062 391.58984375 l 2
 173.517578125 521.772460938 241.30078125 630.780273438 409.313476562 630.780273438 c 0
 468.802734375 630.780273438 512.798828125 618.3828125 540.293945312 592.461914062 c 0
 567.228515625 567.072265625 575.571289062 530.653320312 565.836914062 484.919921875 c 1
 643.37890625 484.919921875 l 1
 658.415039062 552.5390625 646.803710938 604.23046875 608.991210938 641.649414062 c 0
 570.567382812 679.673828125 509.9609375 699.120117188 426.112304688 699.120117188 c 0
 332.975585938 699.120117188 256.252929688 673.587890625 194.744140625 623.349609375 c 0
 133.388671875 573.236328125 90.544921875 498.154296875 67.1201171875 396.690429688 c 2
 43.3359375 293.669921875 l 2
 20.5302734375 194.885742188 27.5439453125 121.23046875 62.8837890625 71.44921875 c 0
 98.322265625 21.53125 158.739257812 -5.419921875 245.639648438 -8.765625 c 2
 257.569335938 -9.224609375 l 1
 148.762695312 -154.620117188 l 1
 218.926757812 -154.620117188 l 1
 319.388671875 -5.3564453125 l 1
 352.520507812 -0.7744140625 426.15234375 10.67578125 491.47265625 64.9140625 c 0
 535.228515625 101.24609375 564.077148438 148.051757812 578.071289062 206.459960938 c 1
 501.55078125 206.459960938 l 1
EndSplineSet
EndChar

StartChar: Egrave
Encoding: 200 200 138
Width: 597
GlyphClass: 2
Flags: W
LayerCount: 2
Fore
SplineSet
207.786132812 621.599609375 m 1
 606.60546875 621.599609375 l 1
 622.147460938 688.919921875 l 1
 145.807617188 688.919921875 l 1
 -13.1455078125 0.419921875 l 1
 463.194335938 0.419921875 l 1
 478.736328125 67.740234375 l 1
 79.9169921875 67.740234375 l 1
 137.375976562 316.620117188 l 1
 479.075195312 316.620117188 l 1
 494.6171875 383.940429688 l 1
 152.91796875 383.940429688 l 1
 207.786132812 621.599609375 l 1
375.798828125 880.6796875 m 1
 288.727539062 880.6796875 l 1
 387.282226562 765.419921875 l 1
 449.140625 765.419921875 l 1
 375.798828125 880.6796875 l 1
EndSplineSet
EndChar

StartChar: Eacute
Encoding: 201 201 139
Width: 597
GlyphClass: 2
Flags: W
LayerCount: 2
Fore
SplineSet
207.786132812 621.599609375 m 1
 606.60546875 621.599609375 l 1
 622.147460938 688.919921875 l 1
 145.807617188 688.919921875 l 1
 -13.1455078125 0.419921875 l 1
 463.194335938 0.419921875 l 1
 478.736328125 67.740234375 l 1
 79.9169921875 67.740234375 l 1
 137.375976562 316.620117188 l 1
 479.075195312 316.620117188 l 1
 494.6171875 383.940429688 l 1
 152.91796875 383.940429688 l 1
 207.786132812 621.599609375 l 1
548.390625 880.6796875 m 1
 462.318359375 880.6796875 l 1
 334.85546875 765.419921875 l 1
 396.615234375 765.419921875 l 1
 548.390625 880.6796875 l 1
EndSplineSet
EndChar

StartChar: Ecircumflex
Encoding: 202 202 140
Width: 597
GlyphClass: 2
Flags: W
LayerCount: 2
Fore
SplineSet
207.786132812 621.599609375 m 1
 606.60546875 621.599609375 l 1
 622.147460938 688.919921875 l 1
 145.807617188 688.919921875 l 1
 -13.1455078125 0.419921875 l 1
 463.194335938 0.419921875 l 1
 478.736328125 67.740234375 l 1
 79.9169921875 67.740234375 l 1
 137.375976562 316.620117188 l 1
 479.075195312 316.620117188 l 1
 494.6171875 383.940429688 l 1
 152.91796875 383.940429688 l 1
 207.786132812 621.599609375 l 1
457.478515625 893.940429688 m 1
 398.002929688 893.940429688 l 1
 247.262695312 760.3203125 l 1
 308.399414062 760.3203125 l 1
 419.458984375 855.715820312 l 1
 485.412109375 760.3203125 l 1
 546.522460938 760.3203125 l 1
 457.478515625 893.940429688 l 1
EndSplineSet
EndChar

StartChar: Edieresis
Encoding: 203 203 141
Width: 597
GlyphClass: 2
Flags: W
LayerCount: 2
Fore
SplineSet
207.786132812 621.599609375 m 1
 606.60546875 621.599609375 l 1
 622.147460938 688.919921875 l 1
 145.807617188 688.919921875 l 1
 -13.1455078125 0.419921875 l 1
 463.194335938 0.419921875 l 1
 478.736328125 67.740234375 l 1
 79.9169921875 67.740234375 l 1
 137.375976562 316.620117188 l 1
 479.075195312 316.620117188 l 1
 494.6171875 383.940429688 l 1
 152.91796875 383.940429688 l 1
 207.786132812 621.599609375 l 1
345.586914062 856.200195312 m 1
 274.186523438 856.200195312 l 1
 255.34765625 774.599609375 l 1
 326.748046875 774.599609375 l 1
 345.586914062 856.200195312 l 1
563.8671875 856.200195312 m 1
 493.487304688 856.200195312 l 1
 474.6484375 774.599609375 l 1
 545.028320312 774.599609375 l 1
 563.8671875 856.200195312 l 1
EndSplineSet
EndChar

StartChar: Igrave
Encoding: 204 204 142
Width: 243
GlyphClass: 2
Flags: W
LayerCount: 2
Fore
SplineSet
230.467773438 688.919921875 m 1
 152.948242188 688.919921875 l 1
 -6.0048828125 0.419921875 l 1
 71.5146484375 0.419921875 l 1
 230.467773438 688.919921875 l 1
187.099609375 880.6796875 m 1
 100.02734375 880.6796875 l 1
 198.583007812 765.419921875 l 1
 260.440429688 765.419921875 l 1
 187.099609375 880.6796875 l 1
EndSplineSet
EndChar

StartChar: Iacute
Encoding: 205 205 143
Width: 243
GlyphClass: 2
Flags: W
LayerCount: 2
Fore
SplineSet
230.467773438 688.919921875 m 1
 152.948242188 688.919921875 l 1
 -6.0048828125 0.419921875 l 1
 71.5146484375 0.419921875 l 1
 230.467773438 688.919921875 l 1
359.690429688 880.6796875 m 1
 273.619140625 880.6796875 l 1
 146.15625 765.419921875 l 1
 207.915039062 765.419921875 l 1
 359.690429688 880.6796875 l 1
EndSplineSet
EndChar

StartChar: Icircumflex
Encoding: 206 206 144
Width: 243
GlyphClass: 2
Flags: W
LayerCount: 2
Fore
SplineSet
230.467773438 688.919921875 m 1
 152.948242188 688.919921875 l 1
 -6.0048828125 0.419921875 l 1
 71.5146484375 0.419921875 l 1
 230.467773438 688.919921875 l 1
268.778320312 893.940429688 m 1
 209.302734375 893.940429688 l 1
 58.5625 760.3203125 l 1
 119.700195312 760.3203125 l 1
 230.758789062 855.715820312 l 1
 296.711914062 760.3203125 l 1
 357.822265625 760.3203125 l 1
 268.778320312 893.940429688 l 1
EndSplineSet
EndChar

StartChar: Idieresis
Encoding: 207 207 145
Width: 243
GlyphClass: 2
Flags: W
LayerCount: 2
Fore
SplineSet
230.467773438 688.919921875 m 1
 152.948242188 688.919921875 l 1
 -6.0048828125 0.419921875 l 1
 71.5146484375 0.419921875 l 1
 230.467773438 688.919921875 l 1
156.88671875 856.200195312 m 1
 85.4873046875 856.200195312 l 1
 66.6484375 774.599609375 l 1
 138.047851562 774.599609375 l 1
 156.88671875 856.200195312 l 1
375.166992188 856.200195312 m 1
 304.787109375 856.200195312 l 1
 285.948242188 774.599609375 l 1
 356.328125 774.599609375 l 1
 375.166992188 856.200195312 l 1
EndSplineSet
EndChar

StartChar: Eth
Encoding: 208 208 146
Width: 727
GlyphClass: 2
Flags: MW
HStem: 0.419922 67.3193<131.937 289.284 289.284 306.866 131.937 335.864> 621.599 67.3213<259.806 434.735 434.735 450.277 197.828 516.191>
VStem: 583.277 77.5195
LayerCount: 2
Fore
SplineSet
450.27734375 688.919921875 m 2
 197.828125 688.919921875 l 1
 127.41796875 383.940429688 l 1
 36.6376953125 383.940429688 l 1
 21.095703125 316.620117188 l 1
 111.875976562 316.620117188 l 1
 38.875 0.419921875 l 1
 289.284179688 0.419921875 l 2
 382.443359375 0.419921875 458.931640625 25.6337890625 519.927734375 75.1884765625 c 0
 580.778320312 124.625 623.206054688 198.67578125 646.314453125 298.768554688 c 2
 667.743164062 391.588867188 l 2
 690.854492188 491.6953125 682.73828125 565.576171875 644.986328125 614.662109375 c 0
 607.131835938 663.877929688 542.756835938 688.919921875 450.27734375 688.919921875 c 2
434.735351562 621.598632812 m 2
 597.647460938 621.598632812 619.36328125 517.805664062 589.046875 386.489257812 c 2
 568.323242188 296.728515625 l 2
 538.319335938 166.766601562 468.217773438 67.7392578125 306.866210938 67.7392578125 c 2
 131.936523438 67.7392578125 l 1
 189.395507812 316.619140625 l 1
 362.795898438 316.619140625 l 1
 378.337890625 383.939453125 l 1
 204.9375 383.939453125 l 1
 259.805664062 621.598632812 l 1
 434.735351562 621.598632812 l 2
EndSplineSet
EndChar

StartChar: Ntilde
Encoding: 209 209 147
Width: 723
GlyphClass: 2
Flags: MW
HStem: 763.38 56.1006<502.038 526.805> 802.14 56.1006<390.427 394.71>
LayerCount: 2
Fore
SplineSet
560.094726562 0.419921875 m 1x00
 719.047851562 688.919921875 l 1
 641.52734375 688.919921875 l 1
 511.943359375 127.630859375 l 1
 227.118164062 688.919921875 l 1
 145.807617188 688.919921875 l 1
 -13.1455078125 0.419921875 l 1
 64.375 0.419921875 l 1
 193.715820312 560.654296875 l 1
 478.780273438 0.419921875 l 1
 560.094726562 0.419921875 l 1x00
608.028320312 848.685546875 m 1
 579.348632812 828.325195312 559.1953125 819.48046875 530.396484375 819.48046875 c 0x80
 473.469726562 819.48046875 461.125976562 858.240234375 402.665039062 858.240234375 c 0
 378.188476562 858.240234375 354.40625 851.787109375 318.965820312 824.834960938 c 1
 306.884765625 772.502929688 l 1
 336.927734375 793.315429688 356.938476562 802.139648438 384.616210938 802.139648438 c 0x40
 404.8046875 802.139648438 414.291992188 799.33203125 446.720703125 783.045898438 c 0
 476.959960938 765.952148438 491.73046875 763.379882812 512.345703125 763.379882812 c 0x80
 541.263671875 763.379882812 568.73828125 773.890625 595.772460938 795.600585938 c 1
 608.028320312 848.685546875 l 1
EndSplineSet
EndChar

StartChar: Ograve
Encoding: 210 210 148
Width: 697
GlyphClass: 2
Flags: MW
HStem: -8.75977 68.3398<211.709 303.808> 630.78 68.3398<377.851 469.949 377.851 495.818>
VStem: 58.9971 77.5195 553.697 76.5
LayerCount: 2
Fore
SplineSet
257.5859375 -8.759765625 m 0
 350.029296875 -8.759765625 426.228515625 16.7607421875 487.400390625 66.9921875 c 0
 548.422851562 117.1015625 591.110351562 192.196289062 614.537109375 293.669921875 c 2
 638.321289062 396.690429688 l 2
 661.752929688 498.18359375 654.068359375 573.301757812 616.841796875 623.404296875 c 0
 579.5390625 673.610351562 515.825195312 699.120117188 424.072265625 699.120117188 c 0
 331.62890625 699.120117188 255.4296875 673.599609375 194.2578125 623.3671875 c 0
 133.234375 573.2578125 90.548828125 498.1640625 67.12109375 396.690429688 c 2
 43.3369140625 293.669921875 l 2
 19.9052734375 192.176757812 27.58984375 117.057617188 64.81640625 66.9560546875 c 0
 102.119140625 16.7490234375 165.833007812 -8.759765625 257.5859375 -8.759765625 c 0
537.801757812 292.651367188 m 2
 512.162109375 181.590820312 450.900390625 59.580078125 275.403320312 59.580078125 c 0
 112.947265625 59.580078125 90.4248046875 161.854492188 120.62109375 292.650390625 c 2
 143.462890625 391.58984375 l 2
 173.39453125 521.236328125 240.487304688 630.780273438 407.275390625 630.780273438 c 0
 584.361328125 630.780273438 586.732421875 504.591796875 560.64453125 391.590820312 c 2
 537.801757812 292.651367188 l 2
415.579101562 880.680664062 m 1
 328.5078125 880.680664062 l 1
 427.0625 765.420898438 l 1
 488.920898438 765.420898438 l 1
 415.579101562 880.680664062 l 1
EndSplineSet
EndChar

StartChar: Oacute
Encoding: 211 211 149
Width: 697
GlyphClass: 2
Flags: MW
HStem: -8.75977 68.3398<211.709 303.808> 630.78 68.3398<377.851 469.949 377.851 495.818>
VStem: 58.9971 77.5195 553.697 76.5
LayerCount: 2
Fore
SplineSet
257.5859375 -8.759765625 m 0
 350.029296875 -8.759765625 426.228515625 16.7607421875 487.400390625 66.9921875 c 0
 548.422851562 117.1015625 591.110351562 192.196289062 614.537109375 293.669921875 c 2
 638.321289062 396.690429688 l 2
 661.752929688 498.18359375 654.068359375 573.301757812 616.841796875 623.404296875 c 0
 579.5390625 673.610351562 515.825195312 699.120117188 424.072265625 699.120117188 c 0
 331.62890625 699.120117188 255.4296875 673.599609375 194.2578125 623.3671875 c 0
 133.234375 573.2578125 90.548828125 498.1640625 67.12109375 396.690429688 c 2
 43.3369140625 293.669921875 l 2
 19.9052734375 192.176757812 27.58984375 117.057617188 64.81640625 66.9560546875 c 0
 102.119140625 16.7490234375 165.833007812 -8.759765625 257.5859375 -8.759765625 c 0
537.801757812 292.651367188 m 2
 512.162109375 181.590820312 450.900390625 59.580078125 275.403320312 59.580078125 c 0
 112.947265625 59.580078125 90.4248046875 161.854492188 120.62109375 292.650390625 c 2
 143.462890625 391.58984375 l 2
 173.39453125 521.236328125 240.487304688 630.780273438 407.275390625 630.780273438 c 0
 584.361328125 630.780273438 586.732421875 504.591796875 560.64453125 391.590820312 c 2
 537.801757812 292.651367188 l 2
577.970703125 880.680664062 m 1
 491.8984375 880.680664062 l 1
 364.435546875 765.420898438 l 1
 426.1953125 765.420898438 l 1
 577.970703125 880.680664062 l 1
EndSplineSet
EndChar

StartChar: Ocircumflex
Encoding: 212 212 150
Width: 697
GlyphClass: 2
Flags: MW
HStem: -8.75977 68.3398<211.709 303.808> 630.78 68.3398<377.851 469.949 377.851 495.818>
VStem: 58.9971 77.5195 553.697 76.5
LayerCount: 2
Fore
SplineSet
257.5859375 -8.759765625 m 0
 350.029296875 -8.759765625 426.228515625 16.7607421875 487.400390625 66.9921875 c 0
 548.422851562 117.1015625 591.110351562 192.196289062 614.537109375 293.669921875 c 2
 638.321289062 396.690429688 l 2
 661.752929688 498.18359375 654.068359375 573.301757812 616.841796875 623.404296875 c 0
 579.5390625 673.610351562 515.825195312 699.120117188 424.072265625 699.120117188 c 0
 331.62890625 699.120117188 255.4296875 673.599609375 194.2578125 623.3671875 c 0
 133.234375 573.2578125 90.548828125 498.1640625 67.12109375 396.690429688 c 2
 43.3369140625 293.669921875 l 2
 19.9052734375 192.176757812 27.58984375 117.057617188 64.81640625 66.9560546875 c 0
 102.119140625 16.7490234375 165.833007812 -8.759765625 257.5859375 -8.759765625 c 0
537.801757812 292.651367188 m 2
 512.162109375 181.590820312 450.900390625 59.580078125 275.403320312 59.580078125 c 0
 112.947265625 59.580078125 90.4248046875 161.854492188 120.62109375 292.650390625 c 2
 143.462890625 391.58984375 l 2
 173.39453125 521.236328125 240.487304688 630.780273438 407.275390625 630.780273438 c 0
 584.361328125 630.780273438 586.732421875 504.591796875 560.64453125 391.590820312 c 2
 537.801757812 292.651367188 l 2
497.258789062 893.94140625 m 1
 437.783203125 893.94140625 l 1
 287.041992188 760.321289062 l 1
 348.1796875 760.321289062 l 1
 459.239257812 855.716796875 l 1
 525.19140625 760.321289062 l 1
 586.301757812 760.321289062 l 1
 497.258789062 893.94140625 l 1
EndSplineSet
EndChar

StartChar: Otilde
Encoding: 213 213 151
Width: 697
GlyphClass: 2
Flags: MW
HStem: -8.75977 68.3398<211.709 303.808> 630.78 68.3398<377.851 469.949 377.851 495.818> 763.381 56.1006<492.858 517.624> 802.141 56.1006<381.246 385.531>
VStem: 58.9971 77.5195 553.697 76.5
LayerCount: 2
Fore
SplineSet
257.5859375 -8.759765625 m 0xcc
 350.029296875 -8.759765625 426.228515625 16.7607421875 487.400390625 66.9921875 c 0
 548.422851562 117.1015625 591.110351562 192.196289062 614.537109375 293.669921875 c 2
 638.321289062 396.690429688 l 2
 661.752929688 498.18359375 654.068359375 573.301757812 616.841796875 623.404296875 c 0
 579.5390625 673.610351562 515.825195312 699.120117188 424.072265625 699.120117188 c 0
 331.62890625 699.120117188 255.4296875 673.599609375 194.2578125 623.3671875 c 0
 133.234375 573.2578125 90.548828125 498.1640625 67.12109375 396.690429688 c 2
 43.3369140625 293.669921875 l 2
 19.9052734375 192.176757812 27.58984375 117.057617188 64.81640625 66.9560546875 c 0
 102.119140625 16.7490234375 165.833007812 -8.759765625 257.5859375 -8.759765625 c 0xcc
537.801757812 292.651367188 m 2
 512.162109375 181.590820312 450.900390625 59.580078125 275.403320312 59.580078125 c 0
 112.947265625 59.580078125 90.4248046875 161.854492188 120.62109375 292.650390625 c 2
 143.462890625 391.58984375 l 2
 173.39453125 521.236328125 240.487304688 630.780273438 407.275390625 630.780273438 c 0
 584.361328125 630.780273438 586.732421875 504.591796875 560.64453125 391.590820312 c 2
 537.801757812 292.651367188 l 2
598.848632812 848.686523438 m 1
 570.16796875 828.326171875 550.015625 819.481445312 521.216796875 819.481445312 c 0xec
 464.290039062 819.481445312 451.9453125 858.241210938 393.484375 858.241210938 c 0
 369.0078125 858.241210938 345.225585938 851.788085938 309.787109375 824.8359375 c 1
 297.705078125 772.50390625 l 1
 327.748046875 793.31640625 347.758789062 802.140625 375.436523438 802.140625 c 0xdc
 395.625 802.140625 405.112304688 799.333007812 437.541015625 783.046875 c 0
 467.780273438 765.953125 482.55078125 763.380859375 503.165039062 763.380859375 c 0xec
 532.083007812 763.380859375 559.55859375 773.891601562 586.592773438 795.6015625 c 1
 598.848632812 848.686523438 l 1
EndSplineSet
EndChar

StartChar: Odieresis
Encoding: 214 214 152
Width: 697
GlyphClass: 2
Flags: MW
HStem: -8.75977 68.3398<211.709 303.808> 630.78 68.3398<377.851 469.949 377.851 495.818>
VStem: 58.9971 77.5195 553.697 76.5
LayerCount: 2
Fore
SplineSet
257.5859375 -8.759765625 m 0
 350.029296875 -8.759765625 426.228515625 16.7607421875 487.400390625 66.9921875 c 0
 548.422851562 117.1015625 591.110351562 192.196289062 614.537109375 293.669921875 c 2
 638.321289062 396.690429688 l 2
 661.752929688 498.18359375 654.068359375 573.301757812 616.841796875 623.404296875 c 0
 579.5390625 673.610351562 515.825195312 699.120117188 424.072265625 699.120117188 c 0
 331.62890625 699.120117188 255.4296875 673.599609375 194.2578125 623.3671875 c 0
 133.234375 573.2578125 90.548828125 498.1640625 67.12109375 396.690429688 c 2
 43.3369140625 293.669921875 l 2
 19.9052734375 192.176757812 27.58984375 117.057617188 64.81640625 66.9560546875 c 0
 102.119140625 16.7490234375 165.833007812 -8.759765625 257.5859375 -8.759765625 c 0
537.801757812 292.651367188 m 2
 512.162109375 181.590820312 450.900390625 59.580078125 275.403320312 59.580078125 c 0
 112.947265625 59.580078125 90.4248046875 161.854492188 120.62109375 292.650390625 c 2
 143.462890625 391.58984375 l 2
 173.39453125 521.236328125 240.487304688 630.780273438 407.275390625 630.780273438 c 0
 584.361328125 630.780273438 586.732421875 504.591796875 560.64453125 391.590820312 c 2
 537.801757812 292.651367188 l 2
385.368164062 856.201171875 m 1
 313.967773438 856.201171875 l 1
 295.12890625 774.600585938 l 1
 366.529296875 774.600585938 l 1
 385.368164062 856.201171875 l 1
603.647460938 856.201171875 m 1
 533.267578125 856.201171875 l 1
 514.428710938 774.600585938 l 1
 584.80859375 774.600585938 l 1
 603.647460938 856.201171875 l 1
EndSplineSet
EndChar

StartChar: multiply
Encoding: 215 215 153
Width: 507
GlyphClass: 2
Flags: W
LayerCount: 2
Fore
SplineSet
90.9228515625 397.709960938 m 1
 185.047851562 275.33203125 l 1
 34.1533203125 151.912109375 l 1
 68.2158203125 107.626953125 l 1
 218.873046875 230.026367188 l 1
 313.015625 107.626953125 l 1
 367.525390625 151.912109375 l 1
 273.619140625 275.33203125 l 1
 424.25 397.709960938 l 1
 390.206054688 441.973632812 l 1
 239.546875 319.573242188 l 1
 145.40625 441.973632812 l 1
 90.9228515625 397.709960938 l 1
EndSplineSet
EndChar

StartChar: Oslash
Encoding: 216 216 154
Width: 697
GlyphClass: 2
Flags: MW
HStem: -8.75977 68.3398<248.046 303.807> 630.78 68.3398<377.851 433.967>
VStem: 58.9971 77.5186 553.696 76.5
LayerCount: 2
Fore
SplineSet
424.072265625 699.120117188 m 0
 331.62890625 699.120117188 255.4296875 673.599609375 194.2578125 623.3671875 c 0
 133.234375 573.2578125 90.548828125 498.1640625 67.12109375 396.690429688 c 2
 43.3369140625 293.669921875 l 2
 10.1552734375 149.9453125 48.201171875 91.1884765625 64.3583984375 66.9482421875 c 1
 -12.4033203125 -19.98046875 l 1
 42.7998046875 -19.98046875 l 1
 93.439453125 36.837890625 l 1
 113.530273438 22.3642578125 156.736328125 -8.759765625 257.584960938 -8.759765625 c 0
 350.028320312 -8.759765625 426.227539062 16.7607421875 487.399414062 66.9921875 c 0
 548.421875 117.1015625 591.109375 192.196289062 614.536132812 293.669921875 c 2
 638.3203125 396.690429688 l 2
 672.015625 542.640625 632.870117188 600.614257812 616.454101562 624.362304688 c 1
 693.276367188 711.360351562 l 1
 639.135742188 711.360351562 l 1
 588.229492188 653.446289062 l 1
 568.319335938 668.0390625 525.913085938 699.120117188 424.072265625 699.120117188 c 0
143.461914062 391.58984375 m 2
 173.393554688 521.236328125 240.486328125 630.780273438 407.274414062 630.780273438 c 0
 460.66015625 630.780273438 501.260742188 619.71484375 528.278320312 596.728515625 c 2
 533.318359375 592.440429688 l 1
 122.328125 131.387695312 l 1
 112.689453125 157.772460938 98.46875 196.702148438 120.620117188 292.650390625 c 2
 143.461914062 391.58984375 l 2
537.80078125 292.650390625 m 2
 512.16015625 181.588867188 450.8984375 59.580078125 275.40234375 59.580078125 c 0
 220.689453125 59.580078125 179.409179688 70.6171875 152.357421875 93.6318359375 c 2
 147.317382812 97.9189453125 l 1
 558.198242188 558.849609375 l 1
 568.305664062 532.270507812 583.74609375 491.662109375 560.642578125 391.58984375 c 2
 537.80078125 292.650390625 l 2
EndSplineSet
EndChar

StartChar: Ugrave
Encoding: 217 217 155
Width: 693
GlyphClass: 2
Flags: MW
HStem: -5.7002 66.2998<231.2 300.487>
VStem: 70.2168 77.5205 536.357 77.5195
LayerCount: 2
Fore
SplineSet
272.578125 60.599609375 m 0
 189.821289062 60.599609375 84.28125 86.6416015625 122.1875 250.830078125 c 2
 223.328125 688.919921875 l 1
 145.807617188 688.919921875 l 1
 43.25390625 244.709960938 l 2
 24.7744140625 164.666015625 34.697265625 103.6484375 72.10546875 60.1181640625 c 0
 109.5703125 16.5224609375 170.840820312 -5.7001953125 257.271484375 -5.7001953125 c 0
 343.703125 -5.7001953125 415.234375 16.5224609375 472.829101562 60.1181640625 c 0
 530.3359375 103.6484375 568.434570312 164.666015625 586.9140625 244.709960938 c 2
 689.467773438 688.919921875 l 1
 611.948242188 688.919921875 l 1
 510.807617188 250.830078125 l 2
 486.702148438 146.420898438 421.5703125 60.599609375 272.578125 60.599609375 c 0
412.51953125 880.6796875 m 1
 325.447265625 880.6796875 l 1
 424.002929688 765.419921875 l 1
 485.861328125 765.419921875 l 1
 412.51953125 880.6796875 l 1
EndSplineSet
EndChar

StartChar: Uacute
Encoding: 218 218 156
Width: 693
GlyphClass: 2
Flags: MW
HStem: -5.7002 66.2998<231.2 300.487>
VStem: 70.2168 77.5205 536.357 77.5195
LayerCount: 2
Fore
SplineSet
272.578125 60.599609375 m 0
 189.821289062 60.599609375 84.28125 86.6416015625 122.1875 250.830078125 c 2
 223.328125 688.919921875 l 1
 145.807617188 688.919921875 l 1
 43.25390625 244.709960938 l 2
 24.7744140625 164.666015625 34.697265625 103.6484375 72.10546875 60.1181640625 c 0
 109.5703125 16.5224609375 170.840820312 -5.7001953125 257.271484375 -5.7001953125 c 0
 343.703125 -5.7001953125 415.234375 16.5224609375 472.829101562 60.1181640625 c 0
 530.3359375 103.6484375 568.434570312 164.666015625 586.9140625 244.709960938 c 2
 689.467773438 688.919921875 l 1
 611.948242188 688.919921875 l 1
 510.807617188 250.830078125 l 2
 486.702148438 146.420898438 421.5703125 60.599609375 272.578125 60.599609375 c 0
585.110351562 880.6796875 m 1
 499.0390625 880.6796875 l 1
 371.576171875 765.419921875 l 1
 433.334960938 765.419921875 l 1
 585.110351562 880.6796875 l 1
EndSplineSet
EndChar

StartChar: Ucircumflex
Encoding: 219 219 157
Width: 693
GlyphClass: 2
Flags: MW
HStem: -5.7002 66.2998<231.2 300.487>
VStem: 70.2168 77.5205 536.357 77.5195
LayerCount: 2
Fore
SplineSet
272.578125 60.599609375 m 0
 189.821289062 60.599609375 84.28125 86.6416015625 122.1875 250.830078125 c 2
 223.328125 688.919921875 l 1
 145.807617188 688.919921875 l 1
 43.25390625 244.709960938 l 2
 24.7744140625 164.666015625 34.697265625 103.6484375 72.10546875 60.1181640625 c 0
 109.5703125 16.5224609375 170.840820312 -5.7001953125 257.271484375 -5.7001953125 c 0
 343.703125 -5.7001953125 415.234375 16.5224609375 472.829101562 60.1181640625 c 0
 530.3359375 103.6484375 568.434570312 164.666015625 586.9140625 244.709960938 c 2
 689.467773438 688.919921875 l 1
 611.948242188 688.919921875 l 1
 510.807617188 250.830078125 l 2
 486.702148438 146.420898438 421.5703125 60.599609375 272.578125 60.599609375 c 0
494.198242188 893.940429688 m 1
 434.72265625 893.940429688 l 1
 283.982421875 760.3203125 l 1
 345.120117188 760.3203125 l 1
 456.178710938 855.715820312 l 1
 522.131835938 760.3203125 l 1
 583.2421875 760.3203125 l 1
 494.198242188 893.940429688 l 1
EndSplineSet
EndChar

StartChar: Udieresis
Encoding: 220 220 158
Width: 693
GlyphClass: 2
Flags: MW
HStem: -5.7002 66.2998<231.2 300.487>
VStem: 70.2168 77.5205 536.357 77.5195
LayerCount: 2
Fore
SplineSet
272.578125 60.599609375 m 0
 189.821289062 60.599609375 84.28125 86.6416015625 122.1875 250.830078125 c 2
 223.328125 688.919921875 l 1
 145.807617188 688.919921875 l 1
 43.25390625 244.709960938 l 2
 24.7744140625 164.666015625 34.697265625 103.6484375 72.10546875 60.1181640625 c 0
 109.5703125 16.5224609375 170.840820312 -5.7001953125 257.271484375 -5.7001953125 c 0
 343.703125 -5.7001953125 415.234375 16.5224609375 472.829101562 60.1181640625 c 0
 530.3359375 103.6484375 568.434570312 164.666015625 586.9140625 244.709960938 c 2
 689.467773438 688.919921875 l 1
 611.948242188 688.919921875 l 1
 510.807617188 250.830078125 l 2
 486.702148438 146.420898438 421.5703125 60.599609375 272.578125 60.599609375 c 0
382.306640625 856.200195312 m 1
 310.907226562 856.200195312 l 1
 292.068359375 774.599609375 l 1
 363.467773438 774.599609375 l 1
 382.306640625 856.200195312 l 1
600.586914062 856.200195312 m 1
 530.20703125 856.200195312 l 1
 511.368164062 774.599609375 l 1
 581.748046875 774.599609375 l 1
 600.586914062 856.200195312 l 1
EndSplineSet
EndChar

StartChar: Yacute
Encoding: 221 221 159
Width: 579
GlyphClass: 2
Flags: W
LayerCount: 2
Fore
SplineSet
303.989257812 278.388671875 m 1
 636.916015625 688.919921875 l 1
 550.719726562 688.919921875 l 1
 280.75390625 338.844726562 l 1
 170.338867188 688.919921875 l 1
 84.1357421875 688.919921875 l 1
 227.725585938 279.413085938 l 1
 163.314453125 0.419921875 l 1
 239.814453125 0.419921875 l 1
 303.989257812 278.388671875 l 1
527.991210938 880.6796875 m 1
 441.918945312 880.6796875 l 1
 314.456054688 765.419921875 l 1
 376.21484375 765.419921875 l 1
 527.991210938 880.6796875 l 1
EndSplineSet
EndChar

StartChar: Thorn
Encoding: 222 222 160
Width: 637
GlyphClass: 2
Flags: MW
HStem: 158.52 67.3203<116.416 318.644 318.644 336.226 116.416 353.539> 497.16 67.3203<194.598 393.765 393.765 412.367 194.598 447.519>
VStem: 523.095 76.5
LayerCount: 2
Fore
SplineSet
318.643554688 158.51953125 m 2
 388.43359375 158.51953125 555.733398438 171.515625 599.4765625 360.990234375 c 0
 615.139648438 428.833984375 606.568359375 478.836914062 574.966796875 512.780273438 c 0
 543.237304688 546.858398438 489.465820312 564.48046875 412.3671875 564.48046875 c 2
 194.59765625 564.48046875 l 1
 223.327148438 688.919921875 l 1
 145.806640625 688.919921875 l 1
 -13.146484375 0.419921875 l 1
 64.3740234375 0.419921875 l 1
 100.874023438 158.51953125 l 1
 318.643554688 158.51953125 l 2
522.741210938 359.969726562 m 0
 500.287109375 262.708007812 433.747070312 225.83984375 336.225585938 225.83984375 c 2
 116.416015625 225.83984375 l 1
 179.0546875 497.16015625 l 1
 393.764648438 497.16015625 l 2
 501.2734375 497.16015625 545.229492188 457.377929688 522.741210938 359.969726562 c 0
EndSplineSet
EndChar

StartChar: germandbls
Encoding: 223 223 161
Width: 559
GlyphClass: 2
Flags: MW
HStem: -3.66016 61.1992<195.014 283.565 229.117 277.087> 390.06 61.2002<299.021 302.742 302.742 322.99 299.021 356.304> 634.859 62.2207<295.746 384.14>
VStem: 65.1172 71.3994 419.058 71.3994 428.237 71.3994
LayerCount: 2
Fore
SplineSet
460.62109375 541.530273438 m 0xf8
 442.924804688 464.879882812 382.3125 451.259765625 322.990234375 451.259765625 c 2
 299.020507812 451.259765625 l 1
 284.891601562 390.059570312 l 1
 302.7421875 390.059570312 l 2
 409.865234375 390.059570312 424.032226562 343.286132812 396.09375 222.26953125 c 0
 368.452148438 102.543945312 334.018554688 57.5390625 233.112304688 57.5390625 c 0
 225.122070312 57.5390625 217.131835938 57.5400390625 209.142578125 57.5400390625 c 1
 195.013671875 -3.66015625 l 1
 224.083007812 -3.66015625 l 2
 330.090820312 -3.66015625 384.15234375 28.0087890625 418.993164062 87.6279296875 c 0
 437.904296875 119.985351562 454.500976562 165.995117188 468.19921875 225.330078125 c 0xf4
 482.216796875 286.046875 486.427734375 330.50390625 481.565429688 358.111328125 c 0
 476.76171875 385.385742188 461.157226562 404.859375 433.627929688 417.134765625 c 2
 418.72265625 423.78125 l 1
 451.430664062 437.3671875 476.00390625 447.57421875 499.412109375 474.716796875 c 0
 514.802734375 492.5625 526.057617188 515.705078125 532.7265625 544.58984375 c 0
 544.20703125 594.317382812 535.08984375 631.233398438 505.7578125 657.255859375 c 0
 476.258789062 683.427734375 427.748046875 697.080078125 359.341796875 697.080078125 c 0
 229.890625 697.080078125 131.66796875 649.764648438 96.0830078125 495.629882812 c 2
 -18.2451171875 0.419921875 l 1
 53.154296875 0.419921875 l 1
 169.602539062 504.809570312 l 2
 190.661132812 596.02734375 243.453125 634.859375 348.038085938 634.859375 c 0
 420.2421875 634.859375 478.196289062 617.657226562 460.62109375 541.530273438 c 0xf8
EndSplineSet
EndChar

StartChar: agrave
Encoding: 224 224 162
Width: 548
GlyphClass: 2
Flags: MW
HStem: -5.7002 55.0801<142.471 179.07> 238.081 49.9785<217.672 373.222 373.222 373.222> 457.38 57.1201<259.254 302.439>
VStem: 39.6162 70.3799 57.0127 69.4004 401.715 71.4014
LayerCount: 2
Fore
SplineSet
-10.66015625 143.73046875 m 0xf4
 -20.5576171875 100.859375 -35.044921875 -5.7001953125 140.990234375 -5.7001953125 c 0
 217.150390625 -5.7001953125 276.200195312 15.5693359375 319.8671875 56.8046875 c 2
 337.1875 73.16015625 l 1
 320.393554688 0.419921875 l 1
 389.75390625 0.419921875 l 1
 466.640625 333.450195312 l 2
 480.390625 393.009765625 471.954101562 437.202148438 442.280273438 467.821289062 c 0
 412.497070312 498.552734375 362.359375 514.5 290.668945312 514.5 c 0
 227.838867188 514.5 176.1171875 500.6171875 134.958007812 473.750976562 c 0
 95.279296875 447.852539062 70.072265625 413.318359375 58.6611328125 368.639648438 c 1
 128.061523438 368.639648438 l 1xec
 136.959960938 401.1953125 168.282226562 457.379882812 278.501953125 457.379882812 c 0
 326.376953125 457.379882812 421.696289062 448.045898438 394.768554688 331.41015625 c 2
 384.760742188 288.059570312 l 1
 214.930664062 288.059570312 l 2
 155.174804688 288.059570312 20.2197265625 277.486328125 -10.66015625 143.73046875 c 0xf4
362.03515625 189.630859375 m 2
 335.426757812 74.375 251.55078125 49.3798828125 171.047851562 49.3798828125 c 0
 113.893554688 49.3798828125 40.544921875 60.6728515625 59.955078125 144.75 c 0xf4
 79.0849609375 227.611328125 159.525390625 238.081054688 217.671875 238.081054688 c 2
 373.221679688 238.081054688 l 1
 362.03515625 189.630859375 l 2
286.9609375 699.12109375 m 1
 199.889648438 699.12109375 l 1
 298.444335938 583.861328125 l 1
 360.302734375 583.861328125 l 1
 286.9609375 699.12109375 l 1
EndSplineSet
EndChar

StartChar: aacute
Encoding: 225 225 163
Width: 548
GlyphClass: 2
Flags: MW
HStem: -5.7002 55.0801<142.471 179.07> 238.081 49.9785<217.672 373.222 373.222 373.222> 457.38 57.1201<259.254 302.439>
VStem: 39.6162 70.3799 57.0127 69.4004 401.715 71.4014
LayerCount: 2
Fore
SplineSet
-10.66015625 143.73046875 m 0xf4
 -20.5576171875 100.859375 -35.044921875 -5.7001953125 140.990234375 -5.7001953125 c 0
 217.150390625 -5.7001953125 276.200195312 15.5693359375 319.8671875 56.8046875 c 2
 337.1875 73.16015625 l 1
 320.393554688 0.419921875 l 1
 389.75390625 0.419921875 l 1
 466.640625 333.450195312 l 2
 480.390625 393.009765625 471.954101562 437.202148438 442.280273438 467.821289062 c 0
 412.497070312 498.552734375 362.359375 514.5 290.668945312 514.5 c 0
 227.838867188 514.5 176.1171875 500.6171875 134.958007812 473.750976562 c 0
 95.279296875 447.852539062 70.072265625 413.318359375 58.6611328125 368.639648438 c 1
 128.061523438 368.639648438 l 1xec
 136.959960938 401.1953125 168.282226562 457.379882812 278.501953125 457.379882812 c 0
 326.376953125 457.379882812 421.696289062 448.045898438 394.768554688 331.41015625 c 2
 384.760742188 288.059570312 l 1
 214.930664062 288.059570312 l 2
 155.174804688 288.059570312 20.2197265625 277.486328125 -10.66015625 143.73046875 c 0xf4
362.03515625 189.630859375 m 2
 335.426757812 74.375 251.55078125 49.3798828125 171.047851562 49.3798828125 c 0
 113.893554688 49.3798828125 40.544921875 60.6728515625 59.955078125 144.75 c 0xf4
 79.0849609375 227.611328125 159.525390625 238.081054688 217.671875 238.081054688 c 2
 373.221679688 238.081054688 l 1
 362.03515625 189.630859375 l 2
454.453125 699.12109375 m 1
 368.380859375 699.12109375 l 1
 240.91796875 583.861328125 l 1
 302.677734375 583.861328125 l 1
 454.453125 699.12109375 l 1
EndSplineSet
EndChar

StartChar: acircumflex
Encoding: 226 226 164
Width: 548
GlyphClass: 2
Flags: MW
HStem: -5.7002 55.0801<142.471 179.07> 238.081 49.9785<217.672 373.222 373.222 373.222> 457.38 57.1201<259.254 302.439>
VStem: 39.6162 70.3799 57.0127 69.4004 401.715 71.4014
LayerCount: 2
Fore
SplineSet
-10.66015625 143.73046875 m 0xf4
 -20.5576171875 100.859375 -35.044921875 -5.7001953125 140.990234375 -5.7001953125 c 0
 217.150390625 -5.7001953125 276.200195312 15.5693359375 319.8671875 56.8046875 c 2
 337.1875 73.16015625 l 1
 320.393554688 0.419921875 l 1
 389.75390625 0.419921875 l 1
 466.640625 333.450195312 l 2
 480.390625 393.009765625 471.954101562 437.202148438 442.280273438 467.821289062 c 0
 412.497070312 498.552734375 362.359375 514.5 290.668945312 514.5 c 0
 227.838867188 514.5 176.1171875 500.6171875 134.958007812 473.750976562 c 0
 95.279296875 447.852539062 70.072265625 413.318359375 58.6611328125 368.639648438 c 1
 128.061523438 368.639648438 l 1xec
 136.959960938 401.1953125 168.282226562 457.379882812 278.501953125 457.379882812 c 0
 326.376953125 457.379882812 421.696289062 448.045898438 394.768554688 331.41015625 c 2
 384.760742188 288.059570312 l 1
 214.930664062 288.059570312 l 2
 155.174804688 288.059570312 20.2197265625 277.486328125 -10.66015625 143.73046875 c 0xf4
362.03515625 189.630859375 m 2
 335.426757812 74.375 251.55078125 49.3798828125 171.047851562 49.3798828125 c 0
 113.893554688 49.3798828125 40.544921875 60.6728515625 59.955078125 144.75 c 0xf4
 79.0849609375 227.611328125 159.525390625 238.081054688 217.671875 238.081054688 c 2
 373.221679688 238.081054688 l 1
 362.03515625 189.630859375 l 2
368.639648438 712.380859375 m 1
 309.1640625 712.380859375 l 1
 158.422851562 578.760742188 l 1
 219.560546875 578.760742188 l 1
 330.62109375 674.15625 l 1
 396.572265625 578.760742188 l 1
 457.682617188 578.760742188 l 1
 368.639648438 712.380859375 l 1
EndSplineSet
EndChar

StartChar: atilde
Encoding: 227 227 165
Width: 548
GlyphClass: 2
Flags: MW
HStem: -5.7002 55.0801<142.471 179.07> 238.081 49.9785<217.672 373.222 373.222 373.222> 457.38 57.1201<259.254 302.439> 581.821 56.0996<364.242 389.008> 620.581 56.0996<252.668 256.913>
VStem: 39.6162 70.3799 57.0127 69.4004 401.715 71.4014
LayerCount: 2
Fore
SplineSet
-10.66015625 143.73046875 m 0xe5
 -20.5576171875 100.859375 -35.044921875 -5.7001953125 140.990234375 -5.7001953125 c 0
 217.150390625 -5.7001953125 276.200195312 15.5693359375 319.8671875 56.8046875 c 2
 337.1875 73.16015625 l 1
 320.393554688 0.419921875 l 1
 389.75390625 0.419921875 l 1
 466.640625 333.450195312 l 2
 480.390625 393.009765625 471.954101562 437.202148438 442.280273438 467.821289062 c 0
 412.497070312 498.552734375 362.359375 514.5 290.668945312 514.5 c 0
 227.838867188 514.5 176.1171875 500.6171875 134.958007812 473.750976562 c 0
 95.279296875 447.852539062 70.072265625 413.318359375 58.6611328125 368.639648438 c 1
 128.061523438 368.639648438 l 1xe3
 136.959960938 401.1953125 168.282226562 457.379882812 278.501953125 457.379882812 c 0
 326.376953125 457.379882812 421.696289062 448.045898438 394.768554688 331.41015625 c 2
 384.760742188 288.059570312 l 1
 214.930664062 288.059570312 l 2
 155.174804688 288.059570312 20.2197265625 277.486328125 -10.66015625 143.73046875 c 0xe5
362.03515625 189.630859375 m 2
 335.426757812 74.375 251.55078125 49.3798828125 171.047851562 49.3798828125 c 0
 113.893554688 49.3798828125 40.544921875 60.6728515625 59.955078125 144.75 c 0xe5
 79.0849609375 227.611328125 159.525390625 238.081054688 217.671875 238.081054688 c 2
 373.221679688 238.081054688 l 1
 362.03515625 189.630859375 l 2
470.232421875 667.126953125 m 1
 441.55078125 646.765625 421.3984375 637.920898438 392.599609375 637.920898438 c 0xf1
 335.665039062 637.920898438 323.3359375 676.680664062 264.869140625 676.680664062 c 0
 240.466796875 676.680664062 216.673828125 670.27734375 181.16796875 643.276367188 c 1
 169.0859375 590.943359375 l 1
 199.129882812 611.756835938 219.140625 620.581054688 246.818359375 620.581054688 c 0xe9
 267.006835938 620.581054688 276.490234375 617.774414062 308.924804688 601.487304688 c 0
 339.1640625 584.393554688 353.934570312 581.821289062 374.548828125 581.821289062 c 0xf1
 403.467773438 581.821289062 430.942382812 592.33203125 457.9765625 614.041015625 c 1
 470.232421875 667.126953125 l 1
EndSplineSet
EndChar

StartChar: adieresis
Encoding: 228 228 166
Width: 548
GlyphClass: 2
Flags: MW
HStem: -5.7002 55.0801<142.471 179.07> 238.081 49.9785<217.672 373.222 373.222 373.222> 457.38 57.1201<259.254 302.439>
VStem: 39.6162 70.3799 57.0127 69.4004 401.715 71.4014
LayerCount: 2
Fore
SplineSet
-10.66015625 143.73046875 m 0xf4
 -20.5576171875 100.859375 -35.044921875 -5.7001953125 140.990234375 -5.7001953125 c 0
 217.150390625 -5.7001953125 276.200195312 15.5693359375 319.8671875 56.8046875 c 2
 337.1875 73.16015625 l 1
 320.393554688 0.419921875 l 1
 389.75390625 0.419921875 l 1
 466.640625 333.450195312 l 2
 480.390625 393.009765625 471.954101562 437.202148438 442.280273438 467.821289062 c 0
 412.497070312 498.552734375 362.359375 514.5 290.668945312 514.5 c 0
 227.838867188 514.5 176.1171875 500.6171875 134.958007812 473.750976562 c 0
 95.279296875 447.852539062 70.072265625 413.318359375 58.6611328125 368.639648438 c 1
 128.061523438 368.639648438 l 1xec
 136.959960938 401.1953125 168.282226562 457.379882812 278.501953125 457.379882812 c 0
 326.376953125 457.379882812 421.696289062 448.045898438 394.768554688 331.41015625 c 2
 384.760742188 288.059570312 l 1
 214.930664062 288.059570312 l 2
 155.174804688 288.059570312 20.2197265625 277.486328125 -10.66015625 143.73046875 c 0xf4
362.03515625 189.630859375 m 2
 335.426757812 74.375 251.55078125 49.3798828125 171.047851562 49.3798828125 c 0
 113.893554688 49.3798828125 40.544921875 60.6728515625 59.955078125 144.75 c 0xf4
 79.0849609375 227.611328125 159.525390625 238.081054688 217.671875 238.081054688 c 2
 373.221679688 238.081054688 l 1
 362.03515625 189.630859375 l 2
256.749023438 674.640625 m 1
 185.348632812 674.640625 l 1
 166.509765625 593.041015625 l 1
 237.91015625 593.041015625 l 1
 256.749023438 674.640625 l 1
475.029296875 674.640625 m 1
 404.6484375 674.640625 l 1
 385.809570312 593.041015625 l 1
 456.190429688 593.041015625 l 1
 475.029296875 674.640625 l 1
EndSplineSet
EndChar

StartChar: aring
Encoding: 229 229 167
Width: 548
GlyphClass: 2
Flags: MW
HStem: -5.7002 55.0801<142.471 179.07> 238.081 49.9785<217.672 373.222 373.222 373.222> 457.38 57.1201<259.254 302.439> 573.661 27.54<296.096 320.45> 722.581 28.5596<335.297 358.708>
VStem: 39.6162 70.3799 57.0127 69.4004 170.175 29.5801 317.055 29.5801 401.715 71.4014
LayerCount: 2
Fore
SplineSet
-10.66015625 143.73046875 m 0xfdc0
 -20.5576171875 100.859375 -35.044921875 -5.7001953125 140.990234375 -5.7001953125 c 0
 217.150390625 -5.7001953125 276.200195312 15.5693359375 319.8671875 56.8046875 c 2
 337.1875 73.16015625 l 1
 320.393554688 0.419921875 l 1
 389.75390625 0.419921875 l 1
 466.640625 333.450195312 l 2
 480.390625 393.009765625 471.954101562 437.202148438 442.280273438 467.821289062 c 0
 412.497070312 498.552734375 362.359375 514.5 290.668945312 514.5 c 0
 227.838867188 514.5 176.1171875 500.6171875 134.958007812 473.750976562 c 0
 95.279296875 447.852539062 70.072265625 413.318359375 58.6611328125 368.639648438 c 1
 128.061523438 368.639648438 l 1xfbc0
 136.959960938 401.1953125 168.282226562 457.379882812 278.501953125 457.379882812 c 0
 326.376953125 457.379882812 421.696289062 448.045898438 394.768554688 331.41015625 c 2
 384.760742188 288.059570312 l 1
 214.930664062 288.059570312 l 2
 155.174804688 288.059570312 20.2197265625 277.486328125 -10.66015625 143.73046875 c 0xfdc0
362.03515625 189.630859375 m 2
 335.426757812 74.375 251.55078125 49.3798828125 171.047851562 49.3798828125 c 0
 113.893554688 49.3798828125 40.544921875 60.6728515625 59.955078125 144.75 c 0xfdc0
 79.0849609375 227.611328125 159.525390625 238.081054688 217.671875 238.081054688 c 2
 373.221679688 238.081054688 l 1
 362.03515625 189.630859375 l 2
307.38671875 573.661132812 m 0
 333.512695312 573.661132812 356.182617188 582.0625 376.60546875 598.908203125 c 0
 397.118164062 615.827148438 410.114257812 636.458984375 415.985351562 661.890625 c 0
 422.016601562 688.015625 418.443359375 708.951171875 405.452148438 725.842773438 c 0
 392.4296875 742.7734375 373.752929688 751.140625 348.360351562 751.140625 c 0
 322.233398438 751.140625 299.563476562 742.739257812 279.140625 725.893554688 c 0
 258.67578125 709.013671875 245.565429688 688.053710938 239.525390625 661.890625 c 0
 233.485351562 635.7265625 236.959960938 614.970703125 249.666992188 598.44921875 c 0
 262.375 581.927734375 281.221679688 573.661132812 307.38671875 573.661132812 c 0
386.405273438 661.890625 m 0
 378.71875 628.598632812 349.038085938 601.201171875 313.744140625 601.201171875 c 0
 278.447265625 601.201171875 261.419921875 628.599609375 269.10546875 661.890625 c 0
 277.4375 697.979492188 307.88671875 722.581054688 341.767578125 722.581054688 c 0
 375.6484375 722.581054688 394.736328125 697.978515625 386.405273438 661.890625 c 0
EndSplineSet
EndChar

StartChar: ae
Encoding: 230 230 168
Width: 906
GlyphClass: 2
Flags: MW
HStem: -8.75879 60.1797<522.444 574.693> 240.12 49.9805<456.213 759.571 456.213 819.435> 456.361 61.1982<634.088 683.922>
VStem: 39.6162 70.3799 57.0127 69.4004 401.717 71.4004 776.056 71.4014
LayerCount: 2
Fore
SplineSet
567.279296875 51.4208984375 m 0xf6
 477.608398438 51.4208984375 410.829101562 91.69921875 442.38671875 228.390625 c 2
 445.094726562 240.120117188 l 1
 819.434570312 240.120117188 l 1
 831.561523438 292.650390625 l 2
 848.677734375 366.788085938 841.493164062 422.103515625 811.323242188 460.063476562 c 0
 781.047851562 498.15625 731.297851562 517.559570312 660.616210938 517.559570312 c 0
 607.559570312 517.559570312 533.131835938 504.5859375 471.309570312 444.936523438 c 2
 463.559570312 437.458984375 l 1
 459.354492188 444.998046875 l 2
 433.822265625 490.765625 378.491210938 514.5 290.668945312 514.5 c 0
 227.838867188 514.5 176.1171875 500.6171875 134.958007812 473.750976562 c 0
 95.279296875 447.852539062 70.072265625 413.318359375 58.6611328125 368.639648438 c 1
 128.061523438 368.639648438 l 1xee
 136.959960938 401.1953125 168.282226562 457.379882812 278.501953125 457.379882812 c 0
 326.376953125 457.379882812 421.696289062 448.045898438 394.768554688 331.41015625 c 2
 384.99609375 289.080078125 l 1
 215.166015625 289.080078125 l 2
 155.41015625 289.080078125 20.4560546875 278.506835938 -10.4248046875 144.75 c 0
 -21.5908203125 96.3837890625 -12.865234375 59.90234375 15.4638671875 33.5263671875 c 0
 43.91796875 7.0341796875 89.7783203125 -6.71875 154.016601562 -6.71875 c 0
 246.365234375 -6.71875 316.836914062 21.177734375 367.71875 75.701171875 c 2
 375.935546875 84.50390625 l 1
 391.077148438 53.60546875 421.638671875 -8.7587890625 553.384765625 -8.7587890625 c 0
 596.000976562 -8.7587890625 634.3046875 -1.267578125 668.435546875 13.4453125 c 0
 702.735351562 28.2314453125 730.580078125 48.1767578125 752.565429688 73.3916015625 c 0
 773.775390625 97.7177734375 788.279296875 124.275390625 796.241210938 153.420898438 c 1
 725.701171875 153.420898438 l 1
 716.561523438 124.100585938 698.1875 99.509765625 671.23828125 80.724609375 c 0
 642.755859375 60.869140625 607.8671875 51.4208984375 567.279296875 51.4208984375 c 0xf6
647.506835938 456.361328125 m 0
 720.336914062 456.361328125 791.356445312 427.775390625 763.221679688 305.911132812 c 2
 759.571289062 290.100585938 l 1
 456.212890625 290.100585938 l 1
 464.310546875 318.59375 481.076171875 377.583984375 529.456054688 416.889648438 c 0
 562.133789062 443.438476562 601.879882812 456.361328125 647.506835938 456.361328125 c 0
362.508789062 191.671875 m 2
 350.272460938 138.669921875 312.381835938 49.380859375 176.147460938 49.380859375 c 0
 108.270507812 49.380859375 42.2626953125 68.1162109375 60.19140625 145.772460938 c 0xf6
 78.517578125 225.150390625 151.826171875 240.122070312 218.14453125 240.122070312 c 2
 373.694335938 240.122070312 l 1
 362.508789062 191.671875 l 2
EndSplineSet
EndChar

StartChar: ccedilla
Encoding: 231 231 169
Width: 552
GlyphClass: 2
Flags: MW
HStem: 455.341 62.2188<280.186 325.513>
VStem: 49.8184 71.3994 423.098 69.375
LayerCount: 2
Fore
SplineSet
378.35546875 167.701171875 m 1
 362.802734375 106.34765625 310.77734375 52.44140625 210.516601562 52.44140625 c 0
 123.711914062 52.44140625 59.19921875 92.8671875 90.9580078125 230.430664062 c 2
 102.025390625 278.37109375 l 2
 117.438476562 345.131835938 159.5625 455.340820312 303.533203125 455.340820312 c 0
 347.4921875 455.340820312 380.122070312 445.237304688 400.181640625 423.93359375 c 0
 419.806640625 403.091796875 425.436523438 373.948242188 417.702148438 338.040039062 c 1
 487.068359375 338.040039062 l 1
 499.497070312 394.2265625 490.880859375 437.35546875 461.799804688 468.942382812 c 0
 432.233398438 501.056640625 384.338867188 517.559570312 316.875976562 517.559570312 c 0
 243.49609375 517.559570312 182.544921875 497.15625 132.853515625 457.049804688 c 0
 83.3125 417.065429688 49.1630859375 358.661132812 31.09765625 280.41015625 c 2
 19.0869140625 228.389648438 l 2
 1.947265625 154.146484375 7.4560546875 97.765625 34.390625 58.095703125 c 0
 61.38671875 18.3349609375 106.982421875 -3.76171875 172.603515625 -7.75390625 c 2
 184.141601562 -8.4560546875 l 1
 75.2841796875 -154.620117188 l 1
 145.48828125 -154.620117188 l 1
 245.905273438 -5.4228515625 l 1
 270.89453125 -1.6162109375 328.405273438 7.638671875 379.978515625 53.4580078125 c 0
 413.740234375 83.4521484375 436.327148438 121.220703125 447.73046875 167.701171875 c 1
 378.35546875 167.701171875 l 1
EndSplineSet
EndChar

StartChar: egrave
Encoding: 232 232 170
Width: 556
GlyphClass: 2
Flags: MW
HStem: -8.75977 60.1797<170.542 220.753> 456.36 61.1992<274.119 327.427>
VStem: 49.8174 71.3984 424.155 71.4014
LayerCount: 2
Fore
SplineSet
215.377929688 51.419921875 m 0
 125.70703125 51.419921875 58.9267578125 91.6982421875 90.484375 228.389648438 c 2
 93.193359375 240.120117188 l 1
 467.534179688 240.120117188 l 1
 479.896484375 293.669921875 l 2
 496.8515625 367.109375 489.604492188 422.087890625 459.422851562 460.063476562 c 0
 429.135742188 498.171875 379.71875 517.559570312 309.736328125 517.559570312 c 0
 238.500976562 517.559570312 179.21875 496.576171875 130.557617188 455.188476562 c 0
 81.939453125 413.838867188 48.154296875 354.296875 29.9189453125 275.309570312 c 2
 20.263671875 233.490234375 l 2
 1.72265625 153.180664062 8.9482421875 93.4189453125 40.537109375 52.76953125 c 0
 72.2314453125 11.9873046875 124.701171875 -8.759765625 199.4453125 -8.759765625 c 0
 242.060546875 -8.759765625 280.543945312 -1.2705078125 315.037109375 13.4580078125 c 0
 353.728515625 29.978515625 421.637695312 70.02734375 444.34375 153.419921875 c 1
 373.887695312 153.419921875 l 1
 365.484375 124.711914062 347.436523438 100.318359375 320.5390625 81.2783203125 c 0
 291.939453125 61.0341796875 256.639648438 51.419921875 215.377929688 51.419921875 c 0
295.60546875 456.360351562 m 0
 359.248046875 456.360351562 440.711914062 433.213867188 411.556640625 306.9296875 c 2
 407.670898438 290.099609375 l 1
 104.311523438 290.099609375 l 1
 112.409179688 318.592773438 129.174804688 377.583007812 177.5546875 416.888671875 c 0
 210.233398438 443.4375 249.979492188 456.360351562 295.60546875 456.360351562 c 0
302.259765625 699.120117188 m 1
 215.188476562 699.120117188 l 1
 313.744140625 583.860351562 l 1
 375.602539062 583.860351562 l 1
 302.259765625 699.120117188 l 1
EndSplineSet
EndChar

StartChar: eacute
Encoding: 233 233 171
Width: 556
GlyphClass: 2
Flags: MW
HStem: -8.75977 60.1797<170.542 220.753> 456.36 61.1992<274.119 327.427>
VStem: 49.8174 71.3984 424.155 71.4014
LayerCount: 2
Fore
SplineSet
215.377929688 51.419921875 m 0
 125.70703125 51.419921875 58.9267578125 91.6982421875 90.484375 228.389648438 c 2
 93.193359375 240.120117188 l 1
 467.534179688 240.120117188 l 1
 479.896484375 293.669921875 l 2
 496.8515625 367.109375 489.604492188 422.087890625 459.422851562 460.063476562 c 0
 429.135742188 498.171875 379.71875 517.559570312 309.736328125 517.559570312 c 0
 238.500976562 517.559570312 179.21875 496.576171875 130.557617188 455.188476562 c 0
 81.939453125 413.838867188 48.154296875 354.296875 29.9189453125 275.309570312 c 2
 20.263671875 233.490234375 l 2
 1.72265625 153.180664062 8.9482421875 93.4189453125 40.537109375 52.76953125 c 0
 72.2314453125 11.9873046875 124.701171875 -8.759765625 199.4453125 -8.759765625 c 0
 242.060546875 -8.759765625 280.543945312 -1.2705078125 315.037109375 13.4580078125 c 0
 353.728515625 29.978515625 421.637695312 70.02734375 444.34375 153.419921875 c 1
 373.887695312 153.419921875 l 1
 365.484375 124.711914062 347.436523438 100.318359375 320.5390625 81.2783203125 c 0
 291.939453125 61.0341796875 256.639648438 51.419921875 215.377929688 51.419921875 c 0
295.60546875 456.360351562 m 0
 359.248046875 456.360351562 440.711914062 433.213867188 411.556640625 306.9296875 c 2
 407.670898438 290.099609375 l 1
 104.311523438 290.099609375 l 1
 112.409179688 318.592773438 129.174804688 377.583007812 177.5546875 416.888671875 c 0
 210.233398438 443.4375 249.979492188 456.360351562 295.60546875 456.360351562 c 0
467.711914062 699.120117188 m 1
 381.639648438 699.120117188 l 1
 254.177734375 583.860351562 l 1
 315.9375 583.860351562 l 1
 467.711914062 699.120117188 l 1
EndSplineSet
EndChar

StartChar: ecircumflex
Encoding: 234 234 172
Width: 556
GlyphClass: 2
Flags: MW
HStem: -8.75977 60.1797<170.542 220.753> 456.36 61.1992<274.119 327.427>
VStem: 49.8174 71.3984 424.155 71.4014
LayerCount: 2
Fore
SplineSet
215.377929688 51.419921875 m 0
 125.70703125 51.419921875 58.9267578125 91.6982421875 90.484375 228.389648438 c 2
 93.193359375 240.120117188 l 1
 467.534179688 240.120117188 l 1
 479.896484375 293.669921875 l 2
 496.8515625 367.109375 489.604492188 422.087890625 459.422851562 460.063476562 c 0
 429.135742188 498.171875 379.71875 517.559570312 309.736328125 517.559570312 c 0
 238.500976562 517.559570312 179.21875 496.576171875 130.557617188 455.188476562 c 0
 81.939453125 413.838867188 48.154296875 354.296875 29.9189453125 275.309570312 c 2
 20.263671875 233.490234375 l 2
 1.72265625 153.180664062 8.9482421875 93.4189453125 40.537109375 52.76953125 c 0
 72.2314453125 11.9873046875 124.701171875 -8.759765625 199.4453125 -8.759765625 c 0
 242.060546875 -8.759765625 280.543945312 -1.2705078125 315.037109375 13.4580078125 c 0
 353.728515625 29.978515625 421.637695312 70.02734375 444.34375 153.419921875 c 1
 373.887695312 153.419921875 l 1
 365.484375 124.711914062 347.436523438 100.318359375 320.5390625 81.2783203125 c 0
 291.939453125 61.0341796875 256.639648438 51.419921875 215.377929688 51.419921875 c 0
295.60546875 456.360351562 m 0
 359.248046875 456.360351562 440.711914062 433.213867188 411.556640625 306.9296875 c 2
 407.670898438 290.099609375 l 1
 104.311523438 290.099609375 l 1
 112.409179688 318.592773438 129.174804688 377.583007812 177.5546875 416.888671875 c 0
 210.233398438 443.4375 249.979492188 456.360351562 295.60546875 456.360351562 c 0
383.939453125 712.379882812 m 1
 324.463867188 712.379882812 l 1
 173.723632812 578.759765625 l 1
 234.861328125 578.759765625 l 1
 345.919921875 674.155273438 l 1
 411.873046875 578.759765625 l 1
 472.983398438 578.759765625 l 1
 383.939453125 712.379882812 l 1
EndSplineSet
EndChar

StartChar: edieresis
Encoding: 235 235 173
Width: 556
GlyphClass: 2
Flags: MW
HStem: -8.75977 60.1797<170.542 220.753> 456.36 61.1992<274.119 327.427>
VStem: 49.8174 71.3984 424.155 71.4014
LayerCount: 2
Fore
SplineSet
215.377929688 51.419921875 m 0
 125.70703125 51.419921875 58.9267578125 91.6982421875 90.484375 228.389648438 c 2
 93.193359375 240.120117188 l 1
 467.534179688 240.120117188 l 1
 479.896484375 293.669921875 l 2
 496.8515625 367.109375 489.604492188 422.087890625 459.422851562 460.063476562 c 0
 429.135742188 498.171875 379.71875 517.559570312 309.736328125 517.559570312 c 0
 238.500976562 517.559570312 179.21875 496.576171875 130.557617188 455.188476562 c 0
 81.939453125 413.838867188 48.154296875 354.296875 29.9189453125 275.309570312 c 2
 20.263671875 233.490234375 l 2
 1.72265625 153.180664062 8.9482421875 93.4189453125 40.537109375 52.76953125 c 0
 72.2314453125 11.9873046875 124.701171875 -8.759765625 199.4453125 -8.759765625 c 0
 242.060546875 -8.759765625 280.543945312 -1.2705078125 315.037109375 13.4580078125 c 0
 353.728515625 29.978515625 421.637695312 70.02734375 444.34375 153.419921875 c 1
 373.887695312 153.419921875 l 1
 365.484375 124.711914062 347.436523438 100.318359375 320.5390625 81.2783203125 c 0
 291.939453125 61.0341796875 256.639648438 51.419921875 215.377929688 51.419921875 c 0
295.60546875 456.360351562 m 0
 359.248046875 456.360351562 440.711914062 433.213867188 411.556640625 306.9296875 c 2
 407.670898438 290.099609375 l 1
 104.311523438 290.099609375 l 1
 112.409179688 318.592773438 129.174804688 377.583007812 177.5546875 416.888671875 c 0
 210.233398438 443.4375 249.979492188 456.360351562 295.60546875 456.360351562 c 0
272.048828125 674.639648438 m 1
 200.6484375 674.639648438 l 1
 181.809570312 593.040039062 l 1
 253.209960938 593.040039062 l 1
 272.048828125 674.639648438 l 1
490.329101562 674.639648438 m 1
 419.94921875 674.639648438 l 1
 401.110351562 593.040039062 l 1
 471.490234375 593.040039062 l 1
 490.329101562 674.639648438 l 1
EndSplineSet
EndChar

StartChar: igrave
Encoding: 236 236 174
Width: 227
GlyphClass: 2
Flags: W
LayerCount: 2
Fore
SplineSet
177.33203125 507.360351562 m 1
 105.931640625 507.360351562 l 1
 -11.10546875 0.419921875 l 1
 60.294921875 0.419921875 l 1
 177.33203125 507.360351562 l 1
137.022460938 699.120117188 m 1
 49.951171875 699.120117188 l 1
 148.506835938 583.860351562 l 1
 210.365234375 583.860351562 l 1
 137.022460938 699.120117188 l 1
EndSplineSet
EndChar

StartChar: iacute
Encoding: 237 237 175
Width: 227
GlyphClass: 2
Flags: W
LayerCount: 2
Fore
SplineSet
177.33203125 507.360351562 m 1
 105.931640625 507.360351562 l 1
 -11.10546875 0.419921875 l 1
 60.294921875 0.419921875 l 1
 177.33203125 507.360351562 l 1
319.813476562 699.120117188 m 1
 233.7421875 699.120117188 l 1
 106.280273438 583.860351562 l 1
 168.0390625 583.860351562 l 1
 319.813476562 699.120117188 l 1
EndSplineSet
EndChar

StartChar: icircumflex
Encoding: 238 238 176
Width: 227
GlyphClass: 2
Flags: W
LayerCount: 2
Fore
SplineSet
177.33203125 507.360351562 m 1
 105.931640625 507.360351562 l 1
 -11.10546875 0.419921875 l 1
 60.294921875 0.419921875 l 1
 177.33203125 507.360351562 l 1
218.702148438 712.379882812 m 1
 159.225585938 712.379882812 l 1
 8.4853515625 578.759765625 l 1
 69.623046875 578.759765625 l 1
 180.682617188 674.155273438 l 1
 246.634765625 578.759765625 l 1
 307.745117188 578.759765625 l 1
 218.702148438 712.379882812 l 1
EndSplineSet
EndChar

StartChar: idieresis
Encoding: 239 239 177
Width: 227
GlyphClass: 2
Flags: W
LayerCount: 2
Fore
SplineSet
177.33203125 507.360351562 m 1
 105.931640625 507.360351562 l 1
 -11.10546875 0.419921875 l 1
 60.294921875 0.419921875 l 1
 177.33203125 507.360351562 l 1
106.810546875 674.639648438 m 1
 35.4111328125 674.639648438 l 1
 16.572265625 593.040039062 l 1
 87.9716796875 593.040039062 l 1
 106.810546875 674.639648438 l 1
325.090820312 674.639648438 m 1
 254.7109375 674.639648438 l 1
 235.872070312 593.040039062 l 1
 306.251953125 593.040039062 l 1
 325.090820312 674.639648438 l 1
EndSplineSet
EndChar

StartChar: eth
Encoding: 240 240 178
Width: 547
GlyphClass: 2
Flags: MW
HStem: -10.8008 63.2373<179.352 216.599> 406.377 60.1816<246.406 291.098 246.406 297.557>
VStem: 49.8174 69.3594 417.017 70.3799
LayerCount: 2
Fore
SplineSet
278.58203125 466.55859375 m 0
 214.23046875 466.55859375 160.192382812 446.840820312 115.086914062 407.817382812 c 0
 69.9365234375 368.755859375 39.0302734375 314.77734375 22.853515625 244.708984375 c 2
 16.0244140625 215.12890625 l 2
 -0.7763671875 142.353515625 5.9189453125 87.111328125 34.9560546875 48.087890625 c 0
 64.0126953125 9.0419921875 112.388671875 -10.80078125 181.634765625 -10.80078125 c 0
 251.563476562 -10.80078125 309.651367188 9.21484375 357.151367188 48.5986328125 c 0
 404.625 87.9599609375 437.116210938 143.711914062 454.07421875 217.16796875 c 2
 460.903320312 246.748046875 l 2
 481.235351562 334.8125 469.013671875 400.75 424.836914062 476.611328125 c 2
 365.501953125 578.502929688 l 1
 474.748046875 606.079101562 l 1
 472.4765625 653.5703125 l 1
 340.895507812 620.579101562 l 1
 300.21875 690.958984375 l 1
 219.935546875 690.958984375 l 1
 270.528320312 603.446289062 l 1
 167.854492188 577.920898438 l 1
 169.953125 529.475585938 l 1
 296.16015625 561.4296875 l 1
 365.165039062 442.068359375 l 1
 339.106445312 454.974609375 l 2
 323.72265625 462.59375 303.61328125 466.55859375 278.58203125 466.55859375 c 0
278.967773438 406.376953125 m 0
 316.146484375 406.376953125 425.874023438 399.866210938 390.052734375 244.70703125 c 2
 383.458984375 216.147460938 l 2
 367.26171875 145.990234375 322.232421875 52.4365234375 197.25390625 52.4365234375 c 0
 161.44921875 52.4365234375 49.2177734375 58.474609375 85.619140625 216.147460938 c 2
 92.4482421875 245.7265625 l 2
 98.9150390625 273.735351562 129.998046875 406.376953125 278.967773438 406.376953125 c 0
EndSplineSet
EndChar

StartChar: ntilde
Encoding: 241 241 179
Width: 571
GlyphClass: 2
Flags: MW
HStem: 451.26 62.2207<323.082 338.223> 581.819 56.0996<387.703 412.469> 620.579 56.0996<276.091 280.376>
VStem: 65.1172 71.3994 425.178 71.4004
LayerCount: 2
Fore
SplineSet
308.7109375 451.259765625 m 0x98
 367.735351562 451.259765625 440.721679688 428.827148438 413.286132812 309.990234375 c 2
 341.815429688 0.419921875 l 1
 413.215820312 0.419921875 l 1
 487.276367188 321.209960938 l 2
 501.40234375 382.396484375 495.663085938 429.168945312 471.098632812 462.790039062 c 0
 446.583984375 496.33984375 404.924804688 513.48046875 344.495117188 513.48046875 c 0
 301.668945312 513.48046875 228.165039062 503.297851562 167.483398438 440.125976562 c 2
 149.2734375 421.168945312 l 1
 169.171875 507.359375 l 1
 145.711914062 507.359375 122.251953125 507.360351562 98.7919921875 507.360351562 c 1
 -18.2451171875 0.419921875 l 1
 53.154296875 0.419921875 l 1
 122.034179688 298.76953125 l 2
 132.741210938 345.149414062 155.09375 382.774414062 189.329101562 410.293945312 c 0
 223.467773438 437.735351562 263.649414062 451.259765625 308.7109375 451.259765625 c 0x98
493.693359375 667.125 m 1
 465.012695312 646.763671875 444.860351562 637.918945312 416.061523438 637.918945312 c 0xd8
 359.135742188 637.918945312 346.7890625 676.678710938 288.331054688 676.678710938 c 0
 263.8515625 676.678710938 240.065429688 670.221679688 204.630859375 643.274414062 c 1
 192.548828125 590.94140625 l 1
 222.591796875 611.754882812 242.603515625 620.579101562 270.28125 620.579101562 c 0xb8
 290.470703125 620.579101562 299.958007812 617.770507812 332.38671875 601.485351562 c 0
 362.625 584.391601562 377.395507812 581.819335938 398.009765625 581.819335938 c 0xd8
 426.928710938 581.819335938 454.403320312 592.330078125 481.4375 614.0390625 c 1
 493.693359375 667.125 l 1
EndSplineSet
EndChar

StartChar: ograve
Encoding: 242 242 180
Width: 571
GlyphClass: 2
Flags: MW
HStem: -8.75977 61.1992<166.378 232.727> 455.339 62.2197<281.208 345.607>
VStem: 49.8174 71.3994 440.477 71.4004
LayerCount: 2
Fore
SplineSet
196.385742188 -8.759765625 m 0
 269.068359375 -8.759765625 329.678710938 11.62890625 379.388671875 51.75 c 0
 428.9296875 91.7353515625 463.080078125 150.138671875 481.145507812 228.389648438 c 2
 493.15625 280.41015625 l 2
 511.059570312 357.9609375 503.858398438 416.212890625 472.825195312 456.560546875 c 0
 441.711914062 497.012695312 390.565429688 517.55859375 317.896484375 517.55859375 c 0
 244.518554688 517.55859375 183.380859375 497.155273438 133.334960938 457.02734375 c 0
 83.4619140625 417.037109375 49.1591796875 358.647460938 31.095703125 280.409179688 c 2
 19.0859375 228.388671875 l 2
 1.0234375 150.151367188 8.3662109375 91.76171875 39.7744140625 51.7724609375 c 0
 71.2919921875 11.6435546875 123.0078125 -8.759765625 196.385742188 -8.759765625 c 0
302.510742188 455.338867188 m 0
 388.703125 455.338867188 452.872070312 415.192382812 421.284179688 278.369140625 c 2
 410.215820312 230.428710938 l 2
 394.88671875 164.02734375 353.004882812 52.439453125 209.494140625 52.439453125 c 0
 123.262695312 52.439453125 59.193359375 92.8486328125 90.9560546875 230.428710938 c 2
 102.024414062 278.369140625 l 2
 117.328125 344.65625 159.16796875 455.338867188 302.510742188 455.338867188 c 0
309.40234375 699.119140625 m 1
 222.331054688 699.119140625 l 1
 320.88671875 583.859375 l 1
 382.745117188 583.859375 l 1
 309.40234375 699.119140625 l 1
EndSplineSet
EndChar

